<svg width="134" height="28" viewBox="0 0 134 28" fill="none" xmlns="http://www.w3.org/2000/svg">
<path d="M52.2513 22.1363H39.833V21.5111C40.361 21.5111 40.7588 21.473 41.0419 21.4044C41.325 21.3281 41.5316 21.2138 41.677 21.0384C41.8147 20.8554 41.8989 20.6191 41.9372 20.2989C41.9831 19.9863 42.006 19.5288 42.006 18.9265V8.79371C42.006 8.17614 41.9448 7.7263 41.8377 7.45183C41.7306 7.16972 41.5393 6.99436 41.2409 6.91812C40.9578 6.83425 40.4834 6.76563 39.833 6.75039V6.13281H51.0271V9.65526H50.568C50.4915 9.13681 50.3538 8.71747 50.1778 8.3515C50.0018 7.97791 49.7493 7.69581 49.4738 7.48232C49.1831 7.28409 48.8311 7.1316 48.4026 7.03249C47.9742 6.93337 47.4768 6.88762 46.8953 6.88762H44.2326V13.3378H47.2549C48.0583 13.3378 48.571 13.1548 48.7699 12.7889C48.9765 12.4229 49.1142 11.9426 49.1907 11.3555H49.6345V16.5706H49.1907C49.1907 16.0292 49.1448 15.5946 49.0454 15.2973C48.9459 14.9847 48.8005 14.7636 48.6092 14.6492C48.4256 14.512 48.1961 14.4357 47.9129 14.4052C47.6375 14.3747 47.2243 14.3595 46.6887 14.3595H44.2326V18.2403C44.2326 19.1781 44.2785 19.8643 44.355 20.2836C44.4392 20.6953 44.6458 20.9851 44.9748 21.168C45.2961 21.3434 45.8471 21.4273 46.5892 21.4273H48.0048C48.8005 21.3891 49.6881 21.2977 50.1395 21.1604C50.5986 21.0232 50.9506 20.7487 51.1954 20.3446C51.4403 19.9405 51.601 19.3992 51.6851 18.5986H52.2513V22.144V22.1363Z" fill="#333333"/>
<path d="M54.126 22.1363V21.5111C54.8146 21.5111 55.3349 21.4044 55.6792 21.168C56.0235 20.9393 56.1995 20.5428 56.1995 19.9634V8.41249C56.1995 7.90929 56.1154 7.55094 55.947 7.30696C55.7787 7.07823 55.5645 6.91812 55.3196 6.86475C55.0595 6.80376 54.6692 6.76563 54.126 6.75039V6.13281H60.5073V6.75039C59.964 6.76563 59.5662 6.80376 59.3137 6.86475C59.0612 6.91812 58.8469 7.07061 58.6862 7.30696C58.5179 7.54332 58.4338 7.90929 58.4338 8.41249V18.9875C58.4338 19.4602 58.472 19.8338 58.5562 20.1083C58.6327 20.398 58.7934 20.6343 59.0459 20.8173C59.2907 21.0156 59.658 21.1528 60.1324 21.2443C60.6068 21.3358 61.2495 21.3815 62.0529 21.3815C62.9481 21.3815 63.9045 21.2977 64.3942 21.1223C64.8839 20.9469 65.2435 20.6572 65.4731 20.2531C65.7026 19.849 65.8404 19.3153 65.8863 18.5529H66.4984V22.1363H54.1336H54.126Z" fill="#333333"/>
<path d="M79.9424 6.13262V6.71208C79.5063 6.72732 79.1773 6.83406 78.9324 7.0323C78.6876 7.23816 78.3892 7.57363 78.0449 8.05396L73.6529 13.9476V19.8488C73.6529 20.352 73.7447 20.718 73.9131 20.9696C74.0814 21.1983 74.2957 21.3508 74.5481 21.4042C74.8006 21.4576 75.1985 21.4957 75.7494 21.5109V22.1361H69.3452V21.5109C70.095 21.5033 70.6306 21.4042 70.952 21.2136C71.2733 21.0382 71.434 20.5808 71.434 19.8488V14.3364L66.6595 7.74136C66.4376 7.42114 66.254 7.19241 66.1086 7.07804C65.9556 6.95605 65.8102 6.87981 65.6495 6.84931C65.4888 6.81119 65.1139 6.77307 64.54 6.71208V6.13262H70.5005V6.71208C69.6512 6.71208 69.2227 6.87219 69.2227 7.18479C69.2227 7.42876 69.4752 7.9091 69.9879 8.61054L73.1785 13.1165L76.1779 9.01463C76.2621 8.90789 76.3692 8.74015 76.5375 8.51905C76.7059 8.29794 76.8283 8.08446 76.9201 7.90147C77.0119 7.71087 77.0578 7.54313 77.0578 7.39064C77.0578 7.07042 76.9507 6.87219 76.7365 6.80357C76.5299 6.73495 76.0937 6.70445 75.4357 6.70445V6.125H79.9501L79.9424 6.13262Z" fill="#333333"/>
<path d="M81.3113 21.6845L80.8369 18.3298H81.3802C81.6097 19.2752 82.0535 20.0758 82.7192 20.7467C83.3772 21.41 84.1653 21.7455 85.0911 21.7455C85.7032 21.7455 86.2541 21.6159 86.7515 21.3414C87.2335 21.0898 87.6314 20.7239 87.9069 20.2435C88.19 19.7784 88.3353 19.2524 88.3353 18.6653C88.3353 17.7351 88.0522 17.0184 87.5013 16.5457C86.9504 16.0578 86.0782 15.524 84.8922 14.9141C83.7062 14.3041 82.8033 13.6713 82.1989 13.0309C81.6097 12.3828 81.3037 11.4526 81.3037 10.248C81.3037 9.28732 81.5255 8.47914 81.9617 7.80058C82.3978 7.11438 82.9946 6.60355 83.7521 6.26046C84.5173 5.90974 85.3819 5.73438 86.3689 5.73438C86.6597 5.73438 86.9657 5.74962 87.2871 5.79537C87.6161 5.84112 87.9451 5.88686 88.2818 5.95548C88.6261 6.00885 88.9551 6.06985 89.2688 6.13084L89.6514 9.0281H89.1081C88.9857 8.23516 88.6567 7.59472 88.1288 7.16013C87.6008 6.71792 86.9122 6.48919 86.0476 6.48919C85.4813 6.48919 84.9764 6.62642 84.5402 6.8704C84.1041 7.12963 83.7751 7.48035 83.5455 7.93019C83.316 8.3724 83.2089 8.87561 83.2089 9.42456C83.2089 10.3624 83.492 11.0714 84.0582 11.5518C84.6244 12.0321 85.5349 12.581 86.7668 13.1986C88.0063 13.8238 88.9398 14.449 89.5596 15.0818C90.1793 15.7223 90.4931 16.6296 90.4931 17.819C90.4931 18.5433 90.3477 19.1837 90.034 19.7632C89.7356 20.3426 89.3147 20.8306 88.7868 21.2347C88.2588 21.6388 87.6544 21.9514 86.981 22.1649C86.3077 22.3783 85.6191 22.4851 84.9228 22.4851C83.6526 22.4851 82.4361 22.2182 81.2883 21.6769L81.3113 21.6845Z" fill="#333333"/>
<path d="M99.2617 6.13281V6.75039C98.7184 6.76563 98.3129 6.80376 98.0604 6.86475C97.8079 6.91812 97.5937 7.07061 97.4253 7.30696C97.257 7.54332 97.1652 7.90929 97.1652 8.41249V19.8643C97.1652 20.3599 97.257 20.7258 97.4253 20.9774C97.5937 21.2062 97.8003 21.3586 98.0604 21.412C98.3129 21.4654 98.7184 21.5035 99.2617 21.5188V22.144H92.8574V21.5188C93.6149 21.5111 94.1429 21.412 94.4642 21.2214C94.7856 21.046 94.9539 20.5886 94.9539 19.8643V8.41249C94.9539 7.68818 94.7932 7.23072 94.4642 7.04773C94.1505 6.86475 93.6149 6.76563 92.8574 6.75039V6.13281H99.2617Z" fill="#333333"/>
<path d="M107.48 8.4205L109.921 15.1681H105.215L107.434 8.4205H107.48ZM103.539 17.3258C103.057 18.7363 102.744 19.5826 102.606 19.8875C102.407 20.345 102.231 20.6805 102.07 20.8711C101.917 21.0693 101.718 21.2142 101.489 21.3057C101.259 21.4048 100.884 21.4658 100.395 21.5268V22.152H105.842V21.5268H105.322C104.978 21.5115 104.687 21.4886 104.488 21.4582C104.281 21.4124 104.105 21.3209 103.968 21.176C103.838 21.0236 103.776 20.7872 103.776 20.4365C103.776 20.1163 103.822 19.7655 103.922 19.3691C104.021 18.9802 104.167 18.4389 104.389 17.7603L104.886 16.1516H110.265L111.413 19.4606C111.635 20.0858 111.749 20.528 111.749 20.7643C111.749 21.2828 111.328 21.5344 110.487 21.5344H110.081V22.1596H116.057V21.5344C115.185 21.5344 114.603 21.3209 114.282 20.8863C114.175 20.7491 114.045 20.4822 113.899 20.1239C113.754 19.7503 113.601 19.3157 113.425 18.8277C113.249 18.3398 113.104 17.9128 112.974 17.5545L108.612 5.51562H107.388L103.539 17.3334V17.3258Z" fill="#333333"/>
<path d="M130.97 18.5986V9.5104C130.97 8.79371 130.893 8.23713 130.748 7.85592C130.61 7.46707 130.342 7.18497 129.944 7.02486C129.539 6.86475 128.965 6.76563 128.192 6.75039V6.13281H134.007V6.75039C133.617 6.75039 133.303 6.77326 133.058 6.81138C132.806 6.85713 132.599 6.95624 132.408 7.10111C132.232 7.24597 132.094 7.48995 132.003 7.80255C131.911 8.11515 131.865 8.54973 131.865 9.10631V22.3346H131.352L120.158 9.1978V17.7066C120.158 18.5148 120.189 19.1705 120.25 19.6508C120.311 20.1311 120.434 20.5123 120.617 20.7868C120.793 21.0537 121.061 21.2443 121.405 21.3434C121.75 21.4501 122.247 21.5035 122.874 21.5035V22.1287H116.799V21.5035C117.396 21.5035 117.855 21.4578 118.184 21.3586C118.498 21.2672 118.758 21.0003 118.964 20.5886C119.171 20.1769 119.263 19.5059 119.263 18.591V9.42653C119.263 8.45824 119.041 7.77967 118.605 7.36796C118.161 6.96387 117.449 6.75801 116.439 6.75801V6.14044H120.395L130.962 18.6139L130.97 18.5986Z" fill="#333333"/>
<path d="M3.28962 2.45765C4.12362 2.33566 5.07241 2.36616 5.20248 2.36616C5.37081 2.36616 5.93702 2.34329 3.84817 3.60131C4.09302 4.257 4.73574 5.33204 4.774 5.65988C4.86582 6.33083 4.16188 5.70563 2.79992 4.72209C2.19546 5.4769 1.49152 6.42232 1.33084 6.43757C1.086 6.46806 1.26198 5.14905 1.66751 4.05114C1.30789 3.90628 0.894709 3.73855 0.565696 3.54794C-0.268313 3.08285 -0.428993 2.71688 1.80523 2.71688C2.04243 2.06119 2.22606 0.97853 2.47856 0.917535C2.72341 0.864164 2.95295 1.42837 3.28196 2.45003L3.28962 2.45765Z" fill="#CCADB9"/>
<path d="M34.3857 18.2543C35.0972 18.3305 35.87 18.544 35.9695 18.5745C36.1149 18.605 36.574 18.7041 34.6075 19.3141C34.6764 19.9012 34.9748 20.9076 34.9442 21.1821C34.883 21.7539 34.4316 21.0982 33.521 20.0155C32.8707 20.5111 32.1055 21.1439 31.9678 21.1287C31.7612 21.1058 32.1744 20.0613 32.7329 19.2455C32.4651 19.0472 32.1667 18.8338 31.9372 18.6127C31.348 18.0637 31.2868 17.7282 33.1232 18.1781C33.4445 17.6901 33.8194 16.8362 34.0413 16.8438C34.2556 16.8438 34.3321 17.3546 34.3933 18.2543H34.3857Z" fill="#8B9CC4"/>
<path d="M31.7075 7.20279C32.1819 7.30191 32.6869 7.50776 32.7558 7.53064C32.8476 7.56114 33.1613 7.66025 31.784 7.93473C31.784 8.33882 31.9141 9.04026 31.8758 9.22325C31.7917 9.60446 31.5392 9.13175 31.0036 8.33882C30.5292 8.62092 29.963 8.99451 29.8712 8.97164C29.7334 8.94114 30.093 8.2702 30.5292 7.75937C30.3608 7.60688 30.1772 7.43915 30.0318 7.27141C29.6722 6.85207 29.6569 6.62334 30.8658 7.06555C31.1183 6.76058 31.4397 6.21162 31.5851 6.22687C31.7228 6.24212 31.7458 6.59284 31.7152 7.21042L31.7075 7.20279Z" fill="#CCADB9"/>
<path d="M3.25148 7.53587C3.47337 7.32239 4.60579 7.72648 6.08252 8.09245C8.93651 8.80151 13.0071 9.75456 16.6415 10.1282C20.6739 10.5399 24.2165 10.5246 26.8409 10.5017C27.3612 10.5017 28.463 10.4255 28.463 10.7915C28.463 11.0278 27.9886 11.1727 27.1393 11.3023C26.114 11.4548 24.9893 11.6149 24.2624 11.714C23.6579 11.7903 23.9181 11.9504 24.2241 12.0342C24.5761 12.1334 25.0734 12.2782 25.4101 12.3926C25.7391 12.4993 25.9074 12.5603 25.8998 12.7204C25.8998 12.8577 25.7391 12.9492 25.4943 13.0407C25.2724 13.1245 25.104 13.2008 25.127 13.2694C25.1423 13.3685 25.6243 13.4295 26.0834 13.5134C26.4966 13.582 26.994 13.6963 27.2158 13.7726C27.3306 13.8107 27.4071 13.8641 27.4071 13.9403C27.4071 14.0242 27.3306 14.0928 27.1087 14.1614C26.4431 14.3749 25.8003 14.474 25.808 14.6113C25.808 14.7409 26.2977 14.8095 26.9404 14.901C27.9045 15.0382 30.0775 15.3813 30.5672 15.4652C30.7814 15.5033 30.8503 15.5338 30.8426 15.6101C30.835 15.6863 30.6514 15.7244 30.4295 15.7473C29.9398 15.8007 27.5066 15.8464 26.3895 15.8007C19.5491 15.4881 10.9565 13.7268 4.29973 9.5792C3.15201 8.86251 3.38921 8.43554 3.328 8.21444C3.25913 7.93996 3.09845 7.69598 3.25148 7.5435V7.53587Z" fill="#CCADB9"/>
<path d="M29.8715 26.1038C29.5043 25.2194 28.9304 24.1901 28.2418 23.2828C27.3619 22.1239 26.6579 21.4606 25.4413 21.026C22.9011 20.1111 17.7822 20.2636 15.6781 19.89C13.5739 19.524 11.4239 18.8149 10.7658 16.7716C10.0543 14.5758 10.6664 10.9924 12.388 8.36958C14.5533 5.05299 17.2619 5.32746 23.4367 5.22072C29.619 5.11398 30.1546 1.27131 30.1546 1.27131C28.785 1.21794 24.2018 0.897713 20.5444 0.524119C16.8947 0.150526 14.8517 0.844342 13.0995 1.8965C11.3397 2.94866 8.65404 6.00603 7.69761 9.79533C5.61642 18.0373 8.96775 21.7884 13.0383 23.4734C15.9229 24.6705 20.4679 25.9666 26.0611 27.0492C27.2241 27.2704 28.0734 27.4152 28.8922 27.522C29.4201 27.5982 30.5602 27.7507 29.8792 26.0886L29.8715 26.1038Z" fill="#8B9CC4"/>
<path d="M10.6734 12.6726C10.8877 11.5671 11.2626 10.4387 11.7905 9.39412C10.4898 9.13489 9.21966 8.86041 8.06429 8.58594C7.91891 8.9824 7.78883 9.39412 7.68171 9.81346C7.55164 10.3167 7.45217 10.797 7.36035 11.2621C8.43156 11.7805 9.54102 12.2533 10.6658 12.6726H10.6734Z" fill="#938686"/>
<path d="M11.7907 9.38362C11.9667 9.0329 12.1656 8.6898 12.3799 8.36958C14.5452 5.05299 17.2539 5.32746 23.4286 5.22072C29.611 5.11398 30.1466 1.27131 30.1466 1.27131C28.777 1.21794 24.1937 0.897713 20.5363 0.524119C16.8866 0.150526 14.8436 0.844342 13.0915 1.8965C11.5229 2.8343 9.22747 5.35796 8.06445 8.57544C9.22747 8.84991 10.49 9.12439 11.7907 9.38362Z" fill="#A1BEBF"/>
</svg>
