<svg width="134" height="28" viewBox="0 0 134 28" fill="none" xmlns="http://www.w3.org/2000/svg">
<path d="M52.2543 22.1402H39.8359V21.515C40.3639 21.515 40.7618 21.4769 41.0449 21.4083C41.328 21.3321 41.5346 21.2177 41.6799 21.0423C41.8177 20.8593 41.9018 20.623 41.9401 20.3028C41.986 19.9902 42.009 19.5327 42.009 18.9304V8.79762C42.009 8.18005 41.9477 7.73021 41.8406 7.45573C41.7335 7.17363 41.5422 6.99827 41.2438 6.92203C40.9607 6.83816 40.4863 6.76954 39.8359 6.75429V6.13672H51.03V9.65917H50.5709C50.4944 9.14071 50.3567 8.72137 50.1807 8.35541C50.0047 7.98181 49.7522 7.69971 49.4768 7.48623C49.186 7.288 48.8341 7.13551 48.4056 7.03639C47.9771 6.93728 47.4797 6.89153 46.8982 6.89153H44.2355V13.3417H47.2579C48.0613 13.3417 48.5739 13.1587 48.7728 12.7928C48.9794 12.4268 49.1172 11.9465 49.1937 11.3594H49.6375V16.5745H49.1937C49.1937 16.0331 49.1478 15.5985 49.0483 15.3012C48.9488 14.9886 48.8034 14.7675 48.6122 14.6531C48.4285 14.5159 48.199 14.4396 47.9159 14.4091C47.6404 14.3786 47.2272 14.3634 46.6916 14.3634H44.2355V18.2442C44.2355 19.182 44.2814 19.8682 44.3579 20.2875C44.4421 20.6992 44.6487 20.989 44.9777 21.1719C45.2991 21.3473 45.85 21.4312 46.5922 21.4312H48.0077C48.8034 21.3931 49.691 21.3016 50.1425 21.1643C50.6015 21.0271 50.9535 20.7526 51.1984 20.3485C51.4432 19.9444 51.6039 19.4031 51.688 18.6025H52.2543V22.1479V22.1402Z" fill="white"/>
<path d="M54.1289 22.1402V21.515C54.8175 21.515 55.3378 21.4083 55.6822 21.1719C56.0265 20.9432 56.2025 20.5467 56.2025 19.9673V8.4164C56.2025 7.91319 56.1183 7.55485 55.95 7.31087C55.7816 7.08214 55.5674 6.92203 55.3225 6.86866C55.0624 6.80766 54.6722 6.76954 54.1289 6.75429V6.13672H60.5102V6.75429C59.967 6.76954 59.5691 6.80766 59.3166 6.86866C59.0641 6.92203 58.8499 7.07451 58.6892 7.31087C58.5208 7.54722 58.4367 7.91319 58.4367 8.4164V18.9914C58.4367 19.4641 58.4749 19.8377 58.5591 20.1122C58.6356 20.4019 58.7963 20.6382 59.0488 20.8212C59.2936 21.0195 59.6609 21.1567 60.1353 21.2482C60.6097 21.3397 61.2524 21.3854 62.0558 21.3854C62.951 21.3854 63.9075 21.3016 64.3972 21.1262C64.8869 20.9508 65.2465 20.6611 65.476 20.257C65.7056 19.8529 65.8433 19.3192 65.8892 18.5568H66.5013V22.1402H54.1366H54.1289Z" fill="white"/>
<path d="M79.9454 6.13653V6.71598C79.5092 6.73123 79.1802 6.83797 78.9354 7.0362C78.6905 7.24206 78.3921 7.57753 78.0478 8.05787L73.6559 13.9515V19.8527C73.6559 20.356 73.7477 20.7219 73.916 20.9735C74.0843 21.2023 74.2986 21.3547 74.5511 21.4081C74.8036 21.4615 75.2015 21.4996 75.7524 21.5149V22.14H69.3481V21.5149C70.0979 21.5072 70.6335 21.4081 70.9549 21.2175C71.2763 21.0421 71.4369 20.5847 71.4369 19.8527V14.3403L66.6624 7.74527C66.4405 7.42505 66.2569 7.19632 66.1115 7.08195C65.9585 6.95996 65.8131 6.88372 65.6524 6.85322C65.4918 6.8151 65.1168 6.77698 64.543 6.71598V6.13653H70.5035V6.71598C69.6541 6.71598 69.2257 6.87609 69.2257 7.18869C69.2257 7.43267 69.4782 7.913 69.9908 8.61445L73.1815 13.1204L76.1808 9.01854C76.265 8.9118 76.3721 8.74406 76.5405 8.52295C76.7088 8.30185 76.8312 8.08837 76.923 7.90538C77.0148 7.71477 77.0608 7.54704 77.0608 7.39455C77.0608 7.07433 76.9536 6.87609 76.7394 6.80747C76.5328 6.73885 76.0967 6.70836 75.4386 6.70836V6.12891H79.953L79.9454 6.13653Z" fill="white"/>
<path d="M81.3142 21.6923L80.8398 18.3376H81.3831C81.6126 19.283 82.0564 20.0836 82.7221 20.7545C83.3801 21.4179 84.1682 21.7533 85.0941 21.7533C85.7062 21.7533 86.2571 21.6237 86.7544 21.3492C87.2365 21.0976 87.6343 20.7317 87.9098 20.2513C88.1929 19.7862 88.3383 19.2602 88.3383 18.6731C88.3383 17.7429 88.0552 17.0262 87.5043 16.5535C86.9534 16.0656 86.0811 15.5319 84.8951 14.9219C83.7091 14.312 82.8063 13.6791 82.2018 13.0387C81.6126 12.3906 81.3066 11.4605 81.3066 10.2558C81.3066 9.29514 81.5285 8.48696 81.9646 7.80839C82.4007 7.1222 82.9976 6.61136 83.755 6.26827C84.5202 5.91755 85.3848 5.74219 86.3718 5.74219C86.6626 5.74219 86.9687 5.75744 87.29 5.80318C87.619 5.84893 87.948 5.89467 88.2847 5.96329C88.629 6.01666 88.958 6.07766 89.2717 6.13865L89.6543 9.03591H89.1111C88.9886 8.24298 88.6596 7.60253 88.1317 7.16794C87.6037 6.72573 86.9151 6.497 86.0505 6.497C85.4843 6.497 84.9793 6.63424 84.5431 6.87822C84.107 7.13744 83.778 7.48817 83.5485 7.938C83.3189 8.38021 83.2118 8.88342 83.2118 9.43238C83.2118 10.3702 83.4949 11.0792 84.0611 11.5596C84.6273 12.0399 85.5378 12.5889 86.7697 13.2064C88.0093 13.8316 88.9427 14.4568 89.5625 15.0896C90.1823 15.7301 90.496 16.6374 90.496 17.8268C90.496 18.5511 90.3506 19.1915 90.0369 19.771C89.7385 20.3505 89.3177 20.8384 88.7897 21.2425C88.2618 21.6466 87.6573 21.9592 86.984 22.1727C86.3106 22.3862 85.622 22.4929 84.9257 22.4929C83.6556 22.4929 82.439 22.226 81.2913 21.6847L81.3142 21.6923Z" fill="white"/>
<path d="M99.2636 6.13672V6.75429C98.7204 6.76954 98.3149 6.80766 98.0624 6.86866C97.8099 6.92203 97.5956 7.07451 97.4273 7.31087C97.259 7.54722 97.1671 7.91319 97.1671 8.4164V19.8682C97.1671 20.3638 97.259 20.7297 97.4273 20.9813C97.5956 21.2101 97.8022 21.3626 98.0624 21.4159C98.3149 21.4693 98.7204 21.5074 99.2636 21.5227V22.1479H92.8594V21.5227C93.6169 21.515 94.1448 21.4159 94.4662 21.2253C94.7875 21.05 94.9559 20.5925 94.9559 19.8682V8.4164C94.9559 7.69209 94.7952 7.23463 94.4662 7.05164C94.1525 6.86866 93.6169 6.76954 92.8594 6.75429V6.13672H99.2636Z" fill="white"/>
<path d="M107.484 8.42441L109.925 15.172H105.219L107.438 8.42441H107.484ZM103.543 17.3297C103.061 18.7402 102.747 19.5865 102.61 19.8914C102.411 20.3489 102.235 20.6844 102.074 20.875C101.921 21.0732 101.722 21.2181 101.493 21.3096C101.263 21.4087 100.888 21.4697 100.398 21.5307V22.1559H105.846V21.5307H105.326C104.982 21.5154 104.691 21.4926 104.492 21.4621C104.285 21.4163 104.109 21.3248 103.972 21.18C103.842 21.0275 103.78 20.7911 103.78 20.4404C103.78 20.1202 103.826 19.7695 103.926 19.373C104.025 18.9841 104.171 18.4428 104.392 17.7642L104.89 16.1555H110.269L111.417 19.4645C111.638 20.0897 111.753 20.5319 111.753 20.7682C111.753 21.2867 111.332 21.5383 110.491 21.5383H110.085V22.1635H116.061V21.5383C115.189 21.5383 114.607 21.3248 114.286 20.8902C114.179 20.753 114.049 20.4861 113.903 20.1278C113.758 19.7542 113.605 19.3196 113.429 18.8317C113.253 18.3437 113.108 17.9167 112.977 17.5584L108.616 5.51953H107.392L103.543 17.3373V17.3297Z" fill="white"/>
<path d="M130.972 18.6025V9.51431C130.972 8.79762 130.895 8.24104 130.75 7.85982C130.612 7.47098 130.344 7.18888 129.946 7.02877C129.541 6.86866 128.967 6.76954 128.194 6.75429V6.13672H134.009V6.75429C133.619 6.75429 133.305 6.77716 133.06 6.81529C132.808 6.86103 132.601 6.96015 132.41 7.10501C132.234 7.24987 132.096 7.49385 132.004 7.80645C131.913 8.11905 131.867 8.55364 131.867 9.11022V22.3385H131.354L120.16 9.20171V17.7105C120.16 18.5187 120.191 19.1744 120.252 19.6547C120.313 20.135 120.435 20.5163 120.619 20.7907C120.795 21.0576 121.063 21.2482 121.407 21.3473C121.752 21.454 122.249 21.5074 122.876 21.5074V22.1326H116.801V21.5074C117.398 21.5074 117.857 21.4617 118.186 21.3626C118.5 21.2711 118.76 21.0042 118.966 20.5925C119.173 20.1808 119.265 19.5098 119.265 18.5949V9.43044C119.265 8.46215 119.043 7.78358 118.607 7.37186C118.163 6.96777 117.451 6.76192 116.441 6.76192V6.14434H120.397L130.964 18.6178L130.972 18.6025Z" fill="white"/>
<path d="M3.29157 2.46156C4.12558 2.33957 5.07436 2.37007 5.20443 2.37007C5.37277 2.37007 5.93897 2.3472 3.85013 3.60521C4.09497 4.26091 4.73769 5.33594 4.77595 5.66379C4.86777 6.33473 4.16384 5.70954 2.80188 4.72599C2.19741 5.4808 1.49348 6.42622 1.3328 6.44147C1.08795 6.47197 1.26393 5.15296 1.66946 4.05505C1.30984 3.91019 0.896662 3.74245 0.56765 3.55184C-0.26636 3.08676 -0.42704 2.72079 1.80719 2.72079C2.04438 2.06509 2.22802 0.982436 2.48051 0.921441C2.72536 0.86807 2.9549 1.43227 3.28392 2.45394L3.29157 2.46156Z" fill="#CCADB9"/>
<path d="M34.3866 18.2582C35.0982 18.3345 35.871 18.5479 35.9705 18.5784C36.1159 18.6089 36.5749 18.708 34.6085 19.318C34.6774 19.9051 34.9758 20.9115 34.9452 21.186C34.884 21.7578 34.4325 21.1021 33.522 20.0194C32.8716 20.515 32.1065 21.1478 31.9688 21.1326C31.7622 21.1097 32.1754 20.0652 32.7339 19.2494C32.4661 19.0511 32.1677 18.8377 31.9382 18.6166C31.349 18.0676 31.2878 17.7321 33.1241 18.182C33.4455 17.694 33.8204 16.8401 34.0423 16.8477C34.2566 16.8477 34.3331 17.3585 34.3943 18.2582H34.3866Z" fill="#8B9CC4"/>
<path d="M31.7095 7.20279C32.1838 7.30191 32.6888 7.50776 32.7577 7.53064C32.8495 7.56114 33.1632 7.66025 31.786 7.93473C31.786 8.33882 31.916 9.04026 31.8778 9.22325C31.7936 9.60446 31.5411 9.13175 31.0055 8.33882C30.5311 8.62092 29.9649 8.99451 29.8731 8.97164C29.7354 8.94114 30.095 8.2702 30.5311 7.75937C30.3628 7.60688 30.1792 7.43915 30.0338 7.27141C29.6742 6.85207 29.6589 6.62334 30.8678 7.06555C31.1203 6.76058 31.4417 6.21162 31.587 6.22687C31.7248 6.24212 31.7477 6.59284 31.7171 7.21042L31.7095 7.20279Z" fill="#CCADB9"/>
<path d="M3.25539 7.53978C3.47728 7.3263 4.60969 7.73039 6.08643 8.09636C8.94042 8.80542 13.011 9.75846 16.6454 10.1321C20.6778 10.5438 24.2204 10.5285 26.8448 10.5057C27.3651 10.5057 28.4669 10.4294 28.4669 10.7954C28.4669 11.0317 27.9926 11.1766 27.1432 11.3062C26.1179 11.4587 24.9932 11.6188 24.2663 11.7179C23.6618 11.7942 23.922 11.9543 24.228 12.0381C24.58 12.1373 25.0773 12.2821 25.414 12.3965C25.743 12.5032 25.9114 12.5642 25.9037 12.7243C25.9037 12.8616 25.743 12.9531 25.4982 13.0446C25.2763 13.1284 25.108 13.2047 25.1309 13.2733C25.1462 13.3724 25.6283 13.4334 26.0873 13.5173C26.5005 13.5859 26.9979 13.7003 27.2198 13.7765C27.3345 13.8146 27.411 13.868 27.411 13.9442C27.411 14.0281 27.3345 14.0967 27.1126 14.1653C26.447 14.3788 25.8042 14.4779 25.8119 14.6152C25.8119 14.7448 26.3016 14.8134 26.9443 14.9049C27.9084 15.0421 30.0814 15.3852 30.5711 15.4691C30.7853 15.5072 30.8542 15.5377 30.8465 15.614C30.8389 15.6902 30.6553 15.7283 30.4334 15.7512C29.9437 15.8046 27.5105 15.8503 26.3934 15.8046C19.553 15.492 10.9604 13.7308 4.30364 9.5831C3.15592 8.86641 3.39311 8.43945 3.3319 8.21834C3.26304 7.94387 3.10236 7.69989 3.25539 7.5474V7.53978Z" fill="#CCADB9"/>
<path d="M29.8725 26.1038C29.5052 25.2194 28.9314 24.1901 28.2428 23.2828C27.3628 22.1239 26.6589 21.4606 25.4423 21.026C22.902 20.1111 17.7832 20.2636 15.6791 19.89C13.5749 19.524 11.4248 18.8149 10.7668 16.7716C10.0552 14.5758 10.6674 10.9924 12.3889 8.36958C14.5543 5.05299 17.2629 5.32746 23.4376 5.22072C29.62 5.11398 30.1556 1.27131 30.1556 1.27131C28.786 1.21794 24.2028 0.897713 20.5454 0.524119C16.8956 0.150526 14.8527 0.844342 13.1005 1.8965C11.3407 2.94866 8.65502 6.00603 7.69859 9.79533C5.61739 18.0373 8.96873 21.7884 13.0393 23.4734C15.9239 24.6705 20.4689 25.9666 26.0621 27.0492C27.2251 27.2704 28.0744 27.4152 28.8931 27.522C29.4211 27.5982 30.5611 27.7507 29.8802 26.0886L29.8725 26.1038Z" fill="#8B9CC4"/>
<path d="M10.6764 12.6687C10.8906 11.5632 11.2655 10.4347 11.7935 9.39021C10.4927 9.13099 9.22259 8.85651 8.06722 8.58203C7.92184 8.9785 7.79176 9.39021 7.68464 9.80955C7.55457 10.3128 7.4551 10.7931 7.36328 11.2582C8.43449 11.7766 9.54395 12.2493 10.6687 12.6687H10.6764Z" fill="#938686"/>
<path d="M11.7927 9.38362C11.9686 9.0329 12.1676 8.6898 12.3818 8.36958C14.5472 5.05299 17.2558 5.32746 23.4305 5.22072C29.6129 5.11398 30.1485 1.27131 30.1485 1.27131C28.7789 1.21794 24.1957 0.897713 20.5383 0.524119C16.8885 0.150526 14.8456 0.844342 13.0934 1.8965C11.5249 2.8343 9.22943 5.35796 8.06641 8.57544C9.22943 8.84991 10.4919 9.12439 11.7927 9.38362Z" fill="#A1BEBF"/>
</svg>
