<svg width="889" height="174" viewBox="0 0 889 174" fill="none" xmlns="http://www.w3.org/2000/svg">
<path d="M7.29289 173.707C7.68342 174.098 8.31658 174.098 8.70711 173.707L15.0711 167.343C15.4616 166.953 15.4616 166.319 15.0711 165.929C14.6805 165.538 14.0474 165.538 13.6569 165.929L8 171.586L2.34315 165.929C1.95262 165.538 1.31946 165.538 0.928932 165.929C0.538408 166.319 0.538408 166.953 0.928932 167.343L7.29289 173.707ZM344 80H28V82H344V80ZM7 101V173H9V101H7ZM28 80C16.402 80 7 89.402 7 101H9C9 90.5066 17.5066 82 28 82V80Z" fill="#78AEBA"/>
<path d="M298.293 173.707C298.683 174.098 299.317 174.098 299.707 173.707L306.071 167.343C306.462 166.953 306.462 166.319 306.071 165.929C305.681 165.538 305.047 165.538 304.657 165.929L299 171.586L293.343 165.929C292.953 165.538 292.319 165.538 291.929 165.929C291.538 166.319 291.538 166.953 291.929 167.343L298.293 173.707ZM344 80H319V82H344V80ZM298 101V173H300V101H298ZM319 80C307.402 80 298 89.402 298 101H300C300 90.5066 308.507 82 319 82V80Z" fill="#78AEBA"/>
<path d="M589.293 173.707C589.683 174.098 590.317 174.098 590.707 173.707L597.071 167.343C597.462 166.953 597.462 166.319 597.071 165.929C596.681 165.538 596.047 165.538 595.657 165.929L590 171.586L584.343 165.929C583.953 165.538 583.319 165.538 582.929 165.929C582.538 166.319 582.538 166.953 582.929 167.343L589.293 173.707ZM589 98V173H591V98H589ZM573 82C581.837 82 589 89.1634 589 98H591C591 88.0589 582.941 80 573 80V82Z" fill="#78AEBA"/>
<path d="M880.293 173.707C880.683 174.098 881.317 174.098 881.707 173.707L888.071 167.343C888.462 166.953 888.462 166.319 888.071 165.929C887.681 165.538 887.047 165.538 886.657 165.929L881 171.586L875.343 165.929C874.953 165.538 874.319 165.538 873.929 165.929C873.538 166.319 873.538 166.953 873.929 167.343L880.293 173.707ZM573 82H861V80H573V82ZM880 101V173H882V101H880ZM861 82C871.493 82 880 90.5066 880 101H882C882 89.402 872.598 80 861 80V82Z" fill="#78AEBA"/>
<path d="M344 81H576.5" stroke="#78AEBA" stroke-width="2"/>
<path d="M445 0L445 81" stroke="#78AEBA" stroke-width="2"/>
</svg>
