<svg width="33" height="30" viewBox="0 0 33 30" fill="none" xmlns="http://www.w3.org/2000/svg">
<path d="M13 6.5H4.25C2.317 6.5 0.75 8.067 0.75 10V25.75C0.75 27.683 2.317 29.25 4.25 29.25H28.75C30.683 29.25 32.25 27.683 32.25 25.75V10C32.25 8.067 30.683 6.5 28.75 6.5H20M13 6.5V4.75C13 2.817 14.567 1.25 16.5 1.25C18.433 1.25 20 2.817 20 4.75V6.5M13 6.5C13 8.433 14.567 10 16.5 10C18.433 10 20 8.433 20 6.5M11.25 20.5C13.183 20.5 14.75 18.933 14.75 17C14.75 15.067 13.183 13.5 11.25 13.5C9.317 13.5 7.75 15.067 7.75 17C7.75 18.933 9.317 20.5 11.25 20.5ZM11.25 20.5C13.5359 20.5 15.4805 21.9609 16.2012 24M11.25 20.5C8.96412 20.5 7.01936 21.9609 6.29865 24M21.75 15.25H27M21.75 22.25H25.25" stroke="#333333" stroke-linecap="round" stroke-linejoin="round"/>
</svg>
