<svg width="33" height="34" viewBox="0 0 33 34" fill="none" xmlns="http://www.w3.org/2000/svg">
<path d="M0.75 1.25H4.25L4.95 4.75M7.75 18.75H25.25L32.25 4.75H4.95M7.75 18.75L4.95 4.75M7.75 18.75L3.73744 22.7626C2.635 23.865 3.41579 25.75 4.97487 25.75H25.25M25.25 25.75C23.317 25.75 21.75 27.317 21.75 29.25C21.75 31.183 23.317 32.75 25.25 32.75C27.183 32.75 28.75 31.183 28.75 29.25C28.75 27.317 27.183 25.75 25.25 25.75ZM11.25 29.25C11.25 31.183 9.683 32.75 7.75 32.75C5.817 32.75 4.25 31.183 4.25 29.25C4.25 27.317 5.817 25.75 7.75 25.75C9.683 25.75 11.25 27.317 11.25 29.25Z" stroke="#333333" stroke-linecap="round" stroke-linejoin="round"/>
</svg>
