<svg width="64" height="64" viewBox="0 0 64 64" fill="none" xmlns="http://www.w3.org/2000/svg">
<path d="M62.0013 27.0005C61.9988 26.3822 61.8052 25.7798 61.4472 25.2758C61.0892 24.7717 60.5842 24.3905 60.0013 24.1845V19.4435L61.3523 18.9375C61.5383 18.8681 61.6994 18.7449 61.8151 18.5836C61.9308 18.4224 61.9959 18.2303 62.0022 18.0319C62.0084 17.8335 61.9554 17.6378 61.85 17.4696C61.7446 17.3014 61.5916 17.1684 61.4103 17.0875L32.4103 4.08747C32.2817 4.02981 32.1423 4 32.0013 4C31.8604 4 31.721 4.02981 31.5923 4.08747L2.59233 17.0875C2.41108 17.1684 2.25802 17.3014 2.15263 17.4696C2.04723 17.6378 1.99427 17.8335 2.00049 18.0319C2.00671 18.2303 2.07183 18.4224 2.18755 18.5836C2.30328 18.7449 2.46437 18.8681 2.65033 18.9375L10.0013 21.6935V38.0005C10.0013 42.8605 29.7493 43.0005 32.0013 43.0005C34.2533 43.0005 54.0013 42.8605 54.0013 38.0005V21.6935L58.0013 20.1935V24.1845C57.455 24.3745 56.9759 24.7196 56.6225 25.1775C56.269 25.6353 56.0566 26.1862 56.0111 26.7629C55.9656 27.3395 56.089 27.9169 56.3663 28.4245C56.6435 28.9322 57.0626 29.3481 57.5723 29.6215L56.1063 32.5535C56.0371 32.6923 56.0012 32.8453 56.0013 33.0005V57.0005C56.0003 57.1871 56.0516 57.3704 56.1493 57.5294C56.247 57.6885 56.3873 57.817 56.5543 57.9005L60.5543 59.9005C60.7072 59.9769 60.8771 60.0128 61.0478 60.0049C61.2185 59.9969 61.3844 59.9453 61.5295 59.8551C61.6746 59.7648 61.7942 59.6389 61.8768 59.4893C61.9594 59.3397 62.0023 59.1714 62.0013 59.0005V33.0005C62.003 32.8457 61.9688 32.6927 61.9013 32.5535L60.4353 29.6215C60.9078 29.3657 61.3026 28.9872 61.5782 28.526C61.8538 28.0648 62 27.5378 62.0013 27.0005V27.0005ZM11.9903 21.0645C12.4863 19.9645 19.6013 18.0005 32.0013 18.0005C44.4013 18.0005 51.5163 19.9645 52.0013 21.0005L52.0083 31.6595C46.9413 29.0935 33.8133 29.0005 32.0013 29.0005C30.1893 29.0005 17.0663 29.0935 12.0013 31.6575L11.9903 21.0645ZM52.0103 35.6645C46.9453 33.0935 33.8133 33.0005 32.0013 33.0005C30.1893 33.0005 17.0703 33.0935 12.0013 35.6565V34.0565C12.5323 32.9525 19.6343 31.0005 32.0013 31.0005C44.3943 31.0005 51.5013 32.9615 52.0093 34.0615L52.0103 35.6645ZM32.0013 41.0005C19.6913 41.0005 12.6013 39.0665 12.0213 38.0255C12.6613 36.9185 19.7393 35.0005 32.0013 35.0005C44.3113 35.0005 51.4013 36.9345 51.9813 37.9755C51.3413 39.0825 44.2633 41.0005 32.0013 41.0005ZM52.0093 34.0505C52.0039 34.0344 52.0012 34.0175 52.0013 34.0005H52.0093V34.0505ZM53.5013 19.7445C50.4213 16.1155 34.0403 16.0005 32.0013 16.0005C29.9623 16.0005 13.5813 16.1155 10.5013 19.7445L5.62933 17.9175L32.0013 6.10047L58.3733 17.9175L53.5013 19.7445ZM59.0013 26.0005C59.1991 26.0005 59.3924 26.0591 59.5569 26.169C59.7213 26.2789 59.8495 26.4351 59.9252 26.6178C60.0009 26.8005 60.0207 27.0016 59.9821 27.1956C59.9435 27.3895 59.8483 27.5677 59.7084 27.7076C59.5686 27.8474 59.3904 27.9427 59.1964 27.9813C59.0024 28.0198 58.8014 28 58.6186 27.9243C58.4359 27.8487 58.2797 27.7205 58.1699 27.556C58.06 27.3916 58.0013 27.1982 58.0013 27.0005C58.0013 26.7352 58.1067 26.4809 58.2942 26.2934C58.4818 26.1058 58.7361 26.0005 59.0013 26.0005ZM60.0013 57.3825L58.0013 56.3825V33.2365L59.0013 31.2365L60.0013 33.2365V57.3825Z" fill="#569AA9"/>
<path d="M16 24H14V26H16V24Z" fill="#569AA9"/>
<path d="M20 22H18V24H20V22Z" fill="#569AA9"/>
</svg>
