<svg width="64" height="64" viewBox="0 0 64 64" fill="none" xmlns="http://www.w3.org/2000/svg">
<path d="M57 14H44V7C44 6.73478 43.8946 6.48043 43.7071 6.29289C43.5196 6.10536 43.2652 6 43 6H21C20.7348 6 20.4804 6.10536 20.2929 6.29289C20.1054 6.48043 20 6.73478 20 7V14H7C5.6744 14.0016 4.40356 14.5289 3.46622 15.4662C2.52888 16.4036 2.00159 17.6744 2 19V53C2.00159 54.3256 2.52888 55.5964 3.46622 56.5338C4.40356 57.4711 5.6744 57.9984 7 58H57C58.3256 57.9984 59.5964 57.4711 60.5338 56.5338C61.4711 55.5964 61.9984 54.3256 62 53V19C61.9984 17.6744 61.4711 16.4036 60.5338 15.4662C59.5964 14.5289 58.3256 14.0016 57 14V14ZM22 8H42V14H40V11C40 10.7348 39.8946 10.4804 39.7071 10.2929C39.5196 10.1054 39.2652 10 39 10H25C24.7348 10 24.4804 10.1054 24.2929 10.2929C24.1054 10.4804 24 10.7348 24 11V14H22V8ZM26 14V12H38V14H26ZM32 16C35.9556 16 39.8224 17.173 43.1114 19.3706C46.4004 21.5682 48.9638 24.6918 50.4776 28.3463C51.9913 32.0009 52.3874 36.0222 51.6157 39.9018C50.844 43.7814 48.9392 47.3451 46.1421 50.1421C43.3451 52.9392 39.7814 54.844 35.9018 55.6157C32.0222 56.3874 28.0009 55.9913 24.3463 54.4776C20.6918 52.9638 17.5682 50.4004 15.3706 47.1114C13.173 43.8224 12 39.9556 12 36C12.0061 30.6975 14.1152 25.614 17.8646 21.8646C21.614 18.1152 26.6975 16.0061 32 16V16ZM7 56C6.20435 56 5.44129 55.6839 4.87868 55.1213C4.31607 54.5587 4 53.7956 4 53V19C4 18.2044 4.31607 17.4413 4.87868 16.8787C5.44129 16.3161 6.20435 16 7 16H22.852C19.0183 17.7513 15.7687 20.5676 13.4902 24.1134C11.2117 27.6592 10.0003 31.7852 10.0003 36C10.0003 40.2148 11.2117 44.3408 13.4902 47.8866C15.7687 51.4324 19.0183 54.2487 22.852 56H7ZM60 53C60 53.7956 59.6839 54.5587 59.1213 55.1213C58.5587 55.6839 57.7956 56 57 56H41.148C44.9817 54.2487 48.2313 51.4324 50.5098 47.8866C52.7883 44.3408 53.9997 40.2148 53.9997 36C53.9997 31.7852 52.7883 27.6592 50.5098 24.1134C48.2313 20.5676 44.9817 17.7513 41.148 16H57C57.7956 16 58.5587 16.3161 59.1213 16.8787C59.6839 17.4413 60 18.2044 60 19V53Z" fill="#569AA9"/>
<path d="M20 41H27V48C27 48.2652 27.1054 48.5196 27.2929 48.7071C27.4804 48.8946 27.7348 49 28 49H36C36.2652 49 36.5196 48.8946 36.7071 48.7071C36.8946 48.5196 37 48.2652 37 48V41H44C44.2652 41 44.5196 40.8946 44.7071 40.7071C44.8946 40.5196 45 40.2652 45 40V32C45 31.7348 44.8946 31.4804 44.7071 31.2929C44.5196 31.1054 44.2652 31 44 31H37V24C37 23.7348 36.8946 23.4804 36.7071 23.2929C36.5196 23.1054 36.2652 23 36 23H28C27.7348 23 27.4804 23.1054 27.2929 23.2929C27.1054 23.4804 27 23.7348 27 24V31H20C19.7348 31 19.4804 31.1054 19.2929 31.2929C19.1054 31.4804 19 31.7348 19 32V40C19 40.2652 19.1054 40.5196 19.2929 40.7071C19.4804 40.8946 19.7348 41 20 41ZM21 33H28C28.2652 33 28.5196 32.8946 28.7071 32.7071C28.8946 32.5196 29 32.2652 29 32V25H35V32C35 32.2652 35.1054 32.5196 35.2929 32.7071C35.4804 32.8946 35.7348 33 36 33H43V39H36C35.7348 39 35.4804 39.1054 35.2929 39.2929C35.1054 39.4804 35 39.7348 35 40V47H29V40C29 39.7348 28.8946 39.4804 28.7071 39.2929C28.5196 39.1054 28.2652 39 28 39H21V33Z" fill="#569AA9"/>
<path d="M32 54C35.5601 54 39.0402 52.9443 42.0003 50.9665C44.9603 48.9886 47.2675 46.1774 48.6298 42.8883C49.9922 39.5992 50.3487 35.98 49.6541 32.4884C48.9596 28.9967 47.2453 25.7894 44.7279 23.2721C42.2106 20.7547 39.0033 19.0404 35.5116 18.3459C32.02 17.6513 28.4008 18.0078 25.1117 19.3702C21.8226 20.7326 19.0114 23.0397 17.0335 25.9997C15.0557 28.9598 14 32.4399 14 36C14.0056 40.7722 15.9038 45.3473 19.2782 48.7218C22.6527 52.0962 27.2278 53.9944 32 54ZM32 20C35.1645 20 38.2579 20.9384 40.8891 22.6965C43.5203 24.4546 45.5711 26.9535 46.7821 29.8771C47.9931 32.8007 48.3099 36.0178 47.6926 39.1215C47.0752 42.2251 45.5513 45.0761 43.3137 47.3137C41.0761 49.5514 38.2251 51.0752 35.1214 51.6926C32.0177 52.3099 28.8007 51.9931 25.8771 50.7821C22.9534 49.5711 20.4546 47.5203 18.6965 44.8891C16.9384 42.2579 16 39.1645 16 36C16.005 31.7581 17.6924 27.6913 20.6918 24.6919C23.6913 21.6924 27.7581 20.005 32 20Z" fill="#569AA9"/>
</svg>
