<svg width="40" height="40" viewBox="0 0 40 40" fill="none" xmlns="http://www.w3.org/2000/svg">
<path d="M28.334 33.3307H36.6673V29.9974C36.6673 27.236 34.4287 24.9974 31.6673 24.9974C30.0746 24.9974 28.6559 25.7421 27.7402 26.9022M28.334 33.3307H11.6673M28.334 33.3307V29.9974C28.334 28.9037 28.1233 27.8591 27.7402 26.9022M11.6673 33.3307H3.33398V29.9974C3.33398 27.236 5.57256 24.9974 8.33398 24.9974C9.92666 24.9974 11.3454 25.7421 12.2611 26.9022M11.6673 33.3307V29.9974C11.6673 28.9037 11.878 27.8591 12.2611 26.9022M12.2611 26.9022C13.4898 23.8324 16.492 21.6641 20.0007 21.6641C23.5093 21.6641 26.5115 23.8324 27.7402 26.9022M25.0007 11.6641C25.0007 14.4255 22.7621 16.6641 20.0007 16.6641C17.2392 16.6641 15.0007 14.4255 15.0007 11.6641C15.0007 8.90264 17.2392 6.66406 20.0007 6.66406C22.7621 6.66406 25.0007 8.90264 25.0007 11.6641ZM35.0007 16.6641C35.0007 18.505 33.5083 19.9974 31.6673 19.9974C29.8264 19.9974 28.334 18.505 28.334 16.6641C28.334 14.8231 29.8264 13.3307 31.6673 13.3307C33.5083 13.3307 35.0007 14.8231 35.0007 16.6641ZM11.6673 16.6641C11.6673 18.505 10.1749 19.9974 8.33398 19.9974C6.49304 19.9974 5.00065 18.505 5.00065 16.6641C5.00065 14.8231 6.49304 13.3307 8.33398 13.3307C10.1749 13.3307 11.6673 14.8231 11.6673 16.6641Z" stroke="#111827" stroke-linecap="round" stroke-linejoin="round"/>
</svg>
