<svg width="81" height="81" viewBox="0 0 81 81" fill="none" xmlns="http://www.w3.org/2000/svg">
<path d="M53.9116 39.9463V18.1287C53.9116 12.3799 49.2348 7.70312 43.4868 7.70312H24.194C18.4452 7.70312 13.7676 12.3807 13.7676 18.1287V62.8711C13.7676 68.6215 18.4452 73.2983 24.1932 73.2983H49.6028C58.9564 73.2983 66.5676 65.6879 66.5676 56.3343C66.5676 48.4719 61.182 41.8599 53.9116 39.9463ZM40.9108 70.8983H24.194C19.7676 70.8983 16.1676 67.2975 16.1676 62.8711V18.1287C16.1676 13.7031 19.7676 10.1031 24.1932 10.1031H43.486C47.9108 10.1031 51.5108 13.7031 51.5108 18.1287V39.4791C51.4796 39.4751 51.4468 39.4743 51.414 39.4703C51.3356 39.4623 51.2564 39.4575 51.1764 39.4503C50.6534 39.3993 50.1283 39.3726 49.6028 39.3703C48.7124 39.3703 47.8452 39.4599 46.99 39.5927V18.1287C46.9891 17.1993 46.6197 16.3082 45.9626 15.6508C45.3056 14.9935 44.4146 14.6236 43.4852 14.6223H39.8324C39.5141 14.6223 39.2089 14.7488 38.9839 14.9738C38.7588 15.1988 38.6324 15.5041 38.6324 15.8223V17.2839C38.6324 17.4967 38.3612 17.7343 37.998 17.7343H29.6812C29.318 17.7343 29.046 17.4959 29.046 17.2839V15.8223C29.046 15.5041 28.9196 15.1988 28.6945 14.9738C28.4695 14.7488 28.1642 14.6223 27.846 14.6223H24.194C23.2643 14.6234 22.3731 14.9931 21.7157 15.6505C21.0584 16.3078 20.6886 17.1991 20.6876 18.1287V62.8711C20.6884 63.801 21.058 64.6927 21.7154 65.3504C22.3727 66.0082 23.2641 66.3784 24.194 66.3799H35.9484C36.0964 66.5799 36.2492 66.7759 36.4052 66.9687C36.4748 67.0551 36.5436 67.1415 36.6156 67.2263C36.9252 67.5951 37.246 67.9527 37.586 68.2935C37.6252 68.3335 37.6684 68.3711 37.7076 68.4103C38.0196 68.7175 38.3436 69.0095 38.6772 69.2919C38.7604 69.3623 38.8436 69.4335 38.9276 69.5023C39.3004 69.8055 39.6836 70.0951 40.082 70.3663C40.1372 70.4039 40.1956 70.4383 40.2516 70.4759C40.4692 70.6183 40.6868 70.7639 40.9108 70.8983ZM42.2908 41.0511C42.1628 41.1119 42.0348 41.1711 41.9076 41.2351C41.4339 41.4808 40.9708 41.7463 40.5196 42.0311C40.3188 42.1591 40.1188 42.2855 39.9244 42.4215C39.6332 42.6247 39.3488 42.8374 39.0716 43.0591C38.9716 43.1391 38.8668 43.2119 38.7684 43.2943C38.3692 43.6255 37.986 43.9735 37.6196 44.3383C37.6068 44.3519 37.5956 44.3655 37.582 44.3783C37.2347 44.7282 36.9029 45.0931 36.5876 45.4719C36.5244 45.5479 36.4652 45.6255 36.4028 45.7023C36.1396 46.0287 35.8884 46.3639 35.6508 46.7087C35.586 46.8023 35.5212 46.8951 35.4588 46.9911C35.2212 47.3487 34.9988 47.7159 34.7892 48.0919C34.746 48.1687 34.7004 48.2431 34.658 48.3207C34.1689 49.231 33.7645 50.1844 33.45 51.1687C33.4044 51.3095 33.3668 51.4527 33.326 51.5959C33.1731 52.1185 33.0455 52.6482 32.9436 53.1831C32.8764 53.5383 32.8236 53.8983 32.7788 54.2607C32.7588 54.4239 32.734 54.5847 32.7196 54.7495C32.6676 55.2762 32.6407 55.8051 32.6388 56.3343C32.6388 56.6951 32.6524 57.0543 32.6748 57.4127C32.6828 57.5383 32.6972 57.6623 32.7076 57.7871L32.7188 57.9071C32.7268 57.9903 32.7324 58.0751 32.7404 58.1575C32.7524 58.2631 32.7636 58.3679 32.7772 58.4735C32.7956 58.6239 32.8204 58.7711 32.8428 58.9207C32.8732 59.1191 32.9052 59.3175 32.9436 59.5143C32.958 59.5887 32.9668 59.6647 32.9828 59.7375L32.9964 59.7967C33.0108 59.8615 33.0284 59.9247 33.0428 59.9895C33.1198 60.3366 33.207 60.6812 33.3044 61.0231C33.3316 61.1167 33.3564 61.2111 33.386 61.3047C33.4092 61.3823 33.4372 61.4567 33.4628 61.5335C33.5156 61.6991 33.57 61.8655 33.6284 62.0287C33.6844 62.1847 33.7452 62.3399 33.8068 62.4943C33.8604 62.6335 33.9108 62.7743 33.9684 62.9111C33.982 62.9431 33.9972 62.9735 34.0116 63.0055V63.0063C34.0708 63.1439 34.1356 63.2783 34.198 63.4143C34.2812 63.5959 34.3628 63.7767 34.4524 63.9551L34.4644 63.9799H24.194C23.9003 63.9793 23.6189 63.8622 23.4115 63.6543C23.2041 63.4464 23.0876 63.1648 23.0876 62.8711V18.1287C23.0876 17.5183 23.5836 17.0223 24.194 17.0223H26.646V17.2839C26.646 18.8559 28.0076 20.1343 29.6812 20.1343H37.9996C39.6732 20.1343 41.0332 18.8551 41.0332 17.2839V17.0223H43.486C44.0956 17.0223 44.5908 17.5183 44.5908 18.1287V40.1271C43.7956 40.3743 43.0332 40.6943 42.2908 41.0511ZM49.6036 70.8983C44.5972 70.8983 40.174 68.3583 37.5516 64.5007C37.5012 64.4263 37.458 64.3479 37.4084 64.2719C37.2264 63.995 37.0541 63.7119 36.8916 63.4231C36.8124 63.2815 36.7404 63.1383 36.666 62.9943C36.5404 62.7523 36.4219 62.5066 36.3108 62.2575C36.2445 62.1126 36.181 61.9665 36.1204 61.8191C35.9915 61.5037 35.8741 61.1838 35.7684 60.8599C35.7428 60.7799 35.7108 60.7023 35.6852 60.6223C35.5626 60.219 35.4572 59.8106 35.3692 59.3983C35.3412 59.2695 35.3196 59.1391 35.2956 59.0095C35.2368 58.6946 35.1882 58.3779 35.15 58.0599C35.134 57.9279 35.1172 57.7959 35.1052 57.6631C35.0626 57.2214 35.0402 56.778 35.038 56.3343C35.038 55.8695 35.0644 55.4111 35.1076 54.9567C35.122 54.8087 35.1452 54.6639 35.1636 54.5175C35.202 54.2103 35.246 53.9055 35.3036 53.6047C35.334 53.4415 35.3708 53.2807 35.4076 53.1191C35.4716 52.8343 35.5444 52.5511 35.6252 52.2719C35.67 52.1207 35.714 51.9679 35.7628 51.8183C35.8612 51.5167 35.9724 51.2215 36.0892 50.9295C36.1356 50.8135 36.1772 50.6959 36.2268 50.5815C36.5828 49.7567 37.0108 48.9687 37.5076 48.2311C37.5452 48.1759 37.5868 48.1231 37.6244 48.0687C37.8364 47.7631 38.0572 47.4655 38.2908 47.1783C38.3684 47.0831 38.4492 46.9919 38.5284 46.8983C38.7316 46.6607 38.942 46.4295 39.1588 46.2047C39.4569 45.8991 39.7684 45.6068 40.0924 45.3287C40.2276 45.2119 40.3604 45.0951 40.4996 44.9831C40.6788 44.8391 40.8652 44.7055 41.0508 44.5703C41.2308 44.4399 41.4068 44.3055 41.5932 44.1831C41.6572 44.1407 41.726 44.1039 41.7916 44.0631C43.1132 43.2227 44.5612 42.6001 46.0804 42.2191H46.082C47.2325 41.9258 48.4147 41.775 49.602 41.7703C50.5657 41.7708 51.527 41.8673 52.4716 42.0583L52.478 42.0591C59.138 43.3975 64.1676 49.2887 64.1676 56.3343C64.1676 64.3647 57.6332 70.8983 49.6036 70.8983Z" fill="#333333"/>
<path d="M57.4527 49.2969H41.7527C41.4345 49.2969 41.1293 49.4233 40.9042 49.6483C40.6792 49.8734 40.5527 50.1786 40.5527 50.4969V62.1657C40.5527 62.4839 40.6792 62.7892 40.9042 63.0142C41.1293 63.2392 41.4345 63.3657 41.7527 63.3657H45.7295L48.6135 67.5393C48.8383 67.8633 49.2071 68.0569 49.6007 68.0569C49.9943 68.0569 50.3631 67.8641 50.5863 67.5401L53.4751 63.3657H57.4519C57.7702 63.3657 58.0754 63.2392 58.3005 63.0142C58.5255 62.7892 58.6519 62.4839 58.6519 62.1657V50.4969C58.6527 49.8345 58.1159 49.2969 57.4527 49.2969ZM56.2527 60.9657H52.8471C52.4535 60.9657 52.0847 61.1585 51.8615 61.4825L49.6023 64.7473L47.3463 61.4833C47.2361 61.3234 47.0886 61.1928 46.9166 61.1026C46.7446 61.0124 46.5533 60.9655 46.3591 60.9657H42.9543V51.6969H56.2543V60.9657H56.2527Z" fill="#333333"/>
</svg>
