<svg width="35" height="34" viewBox="0 0 35 34" fill="none" xmlns="http://www.w3.org/2000/svg">
<g clip-path="url(#clip0_2127_36470)">
<path d="M24.6958 4.94273C25.2345 4.92891 25.7706 5.02309 26.2724 5.21971C26.7742 5.41633 27.2315 5.71142 27.6174 6.08758C28.0034 6.46374 28.3101 6.91336 28.5195 7.40993C28.7289 7.90651 28.8368 8.43998 28.8368 8.97891C28.8368 9.51783 28.7289 10.0513 28.5195 10.5479C28.3101 11.0444 28.0034 11.4941 27.6174 11.8702C27.2315 12.2464 26.7742 12.5415 26.2724 12.7381C25.7706 12.9347 25.2345 13.0289 24.6958 13.0151H1.03125C0.890354 13.0151 0.755228 13.071 0.6556 13.1707C0.555971 13.2703 0.5 13.4054 0.5 13.5463C0.5 13.6872 0.555971 13.8224 0.6556 13.922C0.755228 14.0216 0.890354 14.0776 1.03125 14.0776H24.6958C25.3751 14.0931 26.0507 13.9727 26.6829 13.7234C27.3151 13.4741 27.8911 13.1011 28.377 12.6261C28.863 12.1511 29.2491 11.5838 29.5127 10.9574C29.7764 10.3311 29.9122 9.65844 29.9122 8.97891C29.9122 8.29937 29.7764 7.62668 29.5127 7.00037C29.2491 6.37405 28.863 5.80674 28.377 5.33175C27.8911 4.85676 27.3151 4.48367 26.6829 4.23441C26.0507 3.98514 25.3751 3.86473 24.6958 3.88023C24.5549 3.88023 24.4198 3.93621 24.3201 4.03583C24.2205 4.13546 24.1645 4.27059 24.1645 4.41148C24.1645 4.55238 24.2205 4.68751 24.3201 4.78714C24.4198 4.88676 24.5549 4.94273 24.6958 4.94273ZM29.4531 19.6557H1.03125C0.890354 19.6557 0.755228 19.7117 0.6556 19.8113C0.555971 19.9109 0.5 20.0461 0.5 20.187C0.5 20.3278 0.555971 20.463 0.6556 20.5626C0.755228 20.6622 0.890354 20.7182 1.03125 20.7182H29.4531C30.5098 20.7182 31.5233 21.138 32.2705 21.8852C33.0177 22.6324 33.4375 23.6459 33.4375 24.7026C33.4375 25.7593 33.0177 26.7727 32.2705 27.52C31.5233 28.2672 30.5098 28.687 29.4531 28.687C29.3122 28.687 29.1771 28.7429 29.0775 28.8426C28.9778 28.9422 28.9219 29.0773 28.9219 29.2182C28.9219 29.3591 28.9778 29.4942 29.0775 29.5939C29.1771 29.6935 29.3122 29.7495 29.4531 29.7495C30.7916 29.7495 32.0753 29.2177 33.0218 28.2713C33.9683 27.3248 34.5 26.0411 34.5 24.7026C34.5 23.3641 33.9683 22.0804 33.0218 21.1339C32.0753 20.1874 30.7916 19.6557 29.4531 19.6557ZM7.9375 16.4682C7.7966 16.4682 7.66148 16.5242 7.56185 16.6238C7.46222 16.7234 7.40625 16.8586 7.40625 16.9995C7.40625 17.1403 7.46222 17.2755 7.56185 17.3751C7.66148 17.4747 7.7966 17.5307 7.9375 17.5307H24.6719C24.8128 17.5307 24.9479 17.4747 25.0475 17.3751C25.1472 17.2755 25.2031 17.1403 25.2031 16.9995C25.2031 16.8586 25.1472 16.7234 25.0475 16.6238C24.9479 16.5242 24.8128 16.4682 24.6719 16.4682H7.9375Z" fill="white"/>
<path d="M18.5625 23.6406H3.95313C3.81223 23.6406 3.6771 23.6966 3.57747 23.7962C3.47785 23.8959 3.42188 24.031 3.42188 24.1719C3.42188 24.3128 3.47785 24.4479 3.57747 24.5475C3.6771 24.6472 3.81223 24.7031 3.95313 24.7031H18.5625C18.7034 24.7031 18.8385 24.6472 18.9382 24.5475C19.0378 24.4479 19.0938 24.3128 19.0938 24.1719C19.0938 24.031 19.0378 23.8959 18.9382 23.7962C18.8385 23.6966 18.7034 23.6406 18.5625 23.6406ZM3.15625 10.8906H16.4375C16.5784 10.8906 16.7135 10.8347 16.8132 10.735C16.9128 10.6354 16.9688 10.5003 16.9688 10.3594C16.9688 10.2185 16.9128 10.0834 16.8132 9.98372C16.7135 9.8841 16.5784 9.82812 16.4375 9.82812H3.15625C3.01535 9.82812 2.88023 9.8841 2.7806 9.98372C2.68097 10.0834 2.625 10.2185 2.625 10.3594C2.625 10.5003 2.68097 10.6354 2.7806 10.735C2.88023 10.8347 3.01535 10.8906 3.15625 10.8906ZM25.6361 1.0625C25.777 1.0625 25.9121 1.00653 26.0117 0.906901C26.1114 0.807272 26.1673 0.672146 26.1673 0.53125C26.1673 0.426179 26.1362 0.323467 26.0778 0.236104C26.0194 0.14874 25.9365 0.0806483 25.8394 0.0404392C25.7423 0.000230181 25.6355 -0.0102903 25.5325 0.0102081C25.4294 0.0307065 25.3347 0.0813031 25.2604 0.1556C25.1861 0.229896 25.1355 0.324556 25.1151 0.427609C25.0946 0.530661 25.1051 0.637478 25.1453 0.734551C25.1855 0.831624 25.2536 0.914594 25.3409 0.972969C25.4283 1.03134 25.531 1.0625 25.6361 1.0625ZM30.7812 23.9062C30.7812 23.8012 30.7501 23.6985 30.6917 23.6111C30.6333 23.5237 30.5504 23.4556 30.4533 23.4154C30.3562 23.3752 30.2494 23.3647 30.1464 23.3852C30.0433 23.4057 29.9486 23.4563 29.8743 23.5306C29.8001 23.6049 29.7495 23.6996 29.729 23.8026C29.7085 23.9057 29.719 24.0125 29.7592 24.1096C29.7994 24.2066 29.8675 24.2896 29.9549 24.348C30.0422 24.4063 30.1449 24.4375 30.25 24.4375C30.3909 24.4375 30.526 24.3815 30.6257 24.2819C30.7253 24.1823 30.7812 24.0471 30.7812 23.9062ZM31.3125 6.375C31.4534 6.375 31.5885 6.31903 31.6882 6.2194C31.7878 6.11977 31.8438 5.98465 31.8438 5.84375C31.8438 5.73868 31.8126 5.63597 31.7542 5.5486C31.6958 5.46124 31.6129 5.39315 31.5158 5.35294C31.4187 5.31273 31.3119 5.30221 31.2089 5.32271C31.1058 5.34321 31.0111 5.3938 30.9368 5.4681C30.8626 5.5424 30.812 5.63706 30.7915 5.74011C30.771 5.84316 30.7815 5.94998 30.8217 6.04705C30.8619 6.14412 30.93 6.22709 31.0174 6.28547C31.1047 6.34384 31.2074 6.375 31.3125 6.375ZM26 27.0938C25.8949 27.0938 25.7922 27.1249 25.7049 27.1833C25.6175 27.2417 25.5494 27.3246 25.5092 27.4217C25.469 27.5188 25.4585 27.6256 25.479 27.7286C25.4995 27.8317 25.5501 27.9264 25.6243 28.0007C25.6986 28.0749 25.7933 28.1255 25.8964 28.146C25.9994 28.1665 26.1062 28.156 26.2033 28.1158C26.3004 28.0756 26.3833 28.0075 26.4417 27.9201C26.5001 27.8328 26.5312 27.7301 26.5312 27.625C26.5312 27.4841 26.4753 27.349 26.3757 27.2493C26.276 27.1497 26.1409 27.0938 26 27.0938ZM5.01562 17C5.01562 17.1409 5.0716 17.276 5.17122 17.3757C5.27085 17.4753 5.40598 17.5312 5.54688 17.5312C5.68777 17.5312 5.8229 17.4753 5.92253 17.3757C6.02215 17.276 6.07812 17.1409 6.07812 17C6.07812 16.8591 6.02215 16.724 5.92253 16.6243C5.8229 16.5247 5.68777 16.4688 5.54688 16.4688C5.40598 16.4688 5.27085 16.5247 5.17122 16.6243C5.0716 16.724 5.01562 16.8591 5.01562 17ZM30.7812 14.6094C30.9221 14.6094 31.0573 14.5534 31.1569 14.4538C31.2565 14.3541 31.3125 14.219 31.3125 14.0781C31.3125 13.9731 31.2813 13.8703 31.223 13.783C31.1646 13.6956 31.0816 13.6275 30.9846 13.5873C30.8875 13.5471 30.7807 13.5366 30.6776 13.5571C30.5746 13.5776 30.4799 13.6282 30.4056 13.7025C30.3313 13.7768 30.2807 13.8714 30.2602 13.9745C30.2397 14.0775 30.2502 14.1844 30.2904 14.2814C30.3306 14.3785 30.3987 14.4615 30.4861 14.5198C30.5735 14.5782 30.6762 14.6094 30.7812 14.6094ZM20.1562 8.5C20.2971 8.5 20.4323 8.44403 20.5319 8.3444C20.6315 8.24477 20.6875 8.10965 20.6875 7.96875C20.6875 7.86368 20.6563 7.76097 20.598 7.6736C20.5396 7.58624 20.4566 7.51815 20.3596 7.47794C20.2625 7.43773 20.1557 7.42721 20.0526 7.44771C19.9496 7.46821 19.8549 7.5188 19.7806 7.5931C19.7063 7.6674 19.6557 7.76206 19.6352 7.86511C19.6147 7.96816 19.6252 8.07498 19.6654 8.17205C19.7056 8.26912 19.7737 8.35209 19.8611 8.41047C19.9485 8.46884 20.0512 8.5 20.1562 8.5ZM24.5736 12.0541C24.7145 12.0541 24.8496 11.9981 24.9492 11.8985C25.0489 11.7988 25.1048 11.6637 25.1048 11.5228C25.1048 11.4177 25.0737 11.315 25.0153 11.2277C24.9569 11.1403 24.874 11.0722 24.7769 11.032C24.6798 10.9918 24.573 10.9813 24.47 11.0018C24.3669 11.0223 24.2722 11.0729 24.1979 11.1472C24.1236 11.2215 24.073 11.3161 24.0526 11.4192C24.0321 11.5222 24.0426 11.629 24.0828 11.7261C24.123 11.8232 24.1911 11.9062 24.2784 11.9645C24.3658 12.0229 24.4685 12.0541 24.5736 12.0541ZM33.9688 9.29688C33.8637 9.29688 33.761 9.32803 33.6736 9.38641C33.5862 9.44478 33.5182 9.52775 33.4779 9.62482C33.4377 9.7219 33.4272 9.82871 33.4477 9.93177C33.4682 10.0348 33.5188 10.1295 33.5931 10.2038C33.6674 10.2781 33.7621 10.3287 33.8651 10.3492C33.9682 10.3697 34.075 10.3591 34.1721 10.3189C34.2691 10.2787 34.3521 10.2106 34.4105 10.1233C34.4688 10.0359 34.5 9.9332 34.5 9.82812C34.5 9.68723 34.444 9.5521 34.3444 9.45247C34.2448 9.35285 34.1096 9.29688 33.9688 9.29688ZM33.1719 18.5938C33.3128 18.5938 33.4479 18.5378 33.5475 18.4382C33.6472 18.3385 33.7031 18.2034 33.7031 18.0625C33.7031 17.9574 33.672 17.8547 33.6136 17.7674C33.5552 17.68 33.4722 17.6119 33.3752 17.5717C33.2781 17.5315 33.1713 17.521 33.0682 17.5415C32.9652 17.562 32.8705 17.6126 32.7962 17.6868C32.7219 17.7611 32.6713 17.8558 32.6508 17.9589C32.6303 18.0619 32.6409 18.1687 32.6811 18.2658C32.7213 18.3629 32.7894 18.4458 32.8767 18.5042C32.9641 18.5626 33.0668 18.5938 33.1719 18.5938ZM23.6094 22.5781C23.6094 22.4731 23.5782 22.3703 23.5198 22.283C23.4615 22.1956 23.3785 22.1275 23.2814 22.0873C23.1844 22.0471 23.0775 22.0366 22.9745 22.0571C22.8714 22.0776 22.7768 22.1282 22.7025 22.2025C22.6282 22.2768 22.5776 22.3714 22.5571 22.4745C22.5366 22.5775 22.5471 22.6844 22.5873 22.7814C22.6275 22.8785 22.6956 22.9615 22.783 23.0198C22.8703 23.0782 22.9731 23.1094 23.0781 23.1094C23.219 23.1094 23.3541 23.0534 23.4538 22.9538C23.5534 22.8541 23.6094 22.719 23.6094 22.5781ZM20.1562 26.2969C20.0512 26.2969 19.9485 26.328 19.8611 26.3864C19.7737 26.4448 19.7056 26.5278 19.6654 26.6248C19.6252 26.7219 19.6147 26.8287 19.6352 26.9318C19.6557 27.0348 19.7063 27.1295 19.7806 27.2038C19.8549 27.2781 19.9496 27.3287 20.0526 27.3492C20.1557 27.3697 20.2625 27.3591 20.3596 27.3189C20.4566 27.2787 20.5396 27.2106 20.598 27.1233C20.6563 27.0359 20.6875 26.9332 20.6875 26.8281C20.6875 26.6872 20.6315 26.5521 20.5319 26.4525C20.4323 26.3528 20.2971 26.2969 20.1562 26.2969ZM26.5312 18.0625C26.5312 18.2034 26.5872 18.3385 26.6868 18.4382C26.7865 18.5378 26.9216 18.5938 27.0625 18.5938C27.2034 18.5938 27.3385 18.5378 27.4382 18.4382C27.5378 18.3385 27.5938 18.2034 27.5938 18.0625C27.5938 17.9216 27.5378 17.7865 27.4382 17.6868C27.3385 17.5872 27.2034 17.5312 27.0625 17.5312C26.9216 17.5312 26.7865 17.5872 26.6868 17.6868C26.5872 17.7865 26.5312 17.9216 26.5312 18.0625ZM32.1094 31.0781C32.0043 31.0781 31.9016 31.1093 31.8142 31.1677C31.7269 31.226 31.6588 31.309 31.6186 31.4061C31.5784 31.5031 31.5678 31.61 31.5883 31.713C31.6088 31.8161 31.6594 31.9107 31.7337 31.985C31.808 32.0593 31.9027 32.1099 32.0057 32.1304C32.1088 32.1509 32.2156 32.1404 32.3127 32.1002C32.4097 32.06 32.4927 31.9919 32.5511 31.9045C32.6095 31.8172 32.6406 31.7144 32.6406 31.6094C32.6406 31.4685 32.5847 31.3334 32.485 31.2337C32.3854 31.1341 32.2503 31.0781 32.1094 31.0781ZM1.03125 10.8906C1.17215 10.8906 1.30727 10.8347 1.4069 10.735C1.50653 10.6354 1.5625 10.5003 1.5625 10.3594C1.5625 10.2543 1.53134 10.1516 1.47297 10.0642C1.41459 9.97686 1.33162 9.90877 1.23455 9.86856C1.13748 9.82835 1.03066 9.81783 0.927609 9.83833C0.824556 9.85883 0.729896 9.90943 0.6556 9.98372C0.581303 10.058 0.530706 10.1527 0.510208 10.2557C0.48971 10.3588 0.50023 10.4656 0.540439 10.5627C0.580648 10.6597 0.64874 10.7427 0.736104 10.8011C0.823467 10.8595 0.926179 10.8906 1.03125 10.8906ZM1.82813 23.6406C1.72305 23.6406 1.62034 23.6718 1.53298 23.7302C1.44561 23.7885 1.37752 23.8715 1.33731 23.9686C1.29711 24.0656 1.28658 24.1725 1.30708 24.2755C1.32758 24.3786 1.37818 24.4732 1.45247 24.5475C1.52677 24.6218 1.62143 24.6724 1.72448 24.6929C1.82754 24.7134 1.93435 24.7029 2.03143 24.6627C2.1285 24.6225 2.21147 24.5544 2.26984 24.467C2.32822 24.3797 2.35938 24.2769 2.35938 24.1719C2.35938 24.031 2.3034 23.8959 2.20378 23.7962C2.10415 23.6966 1.96902 23.6406 1.82813 23.6406ZM24.6719 32.9375C24.5668 32.9375 24.4641 32.9687 24.3767 33.027C24.2894 33.0854 24.2213 33.1684 24.1811 33.2654C24.1409 33.3625 24.1303 33.4693 24.1508 33.5724C24.1713 33.6754 24.2219 33.7701 24.2962 33.8444C24.3705 33.9187 24.4652 33.9693 24.5682 33.9898C24.6713 34.0103 24.7781 33.9998 24.8752 33.9596C24.9722 33.9193 25.0552 33.8513 25.1136 33.7639C25.172 33.6765 25.2031 33.5738 25.2031 33.4688C25.2031 33.3279 25.1472 33.1927 25.0475 33.0931C24.9479 32.9935 24.8128 32.9375 24.6719 32.9375ZM24.1406 29.75C24.1406 29.6449 24.1095 29.5422 24.0511 29.4549C23.9927 29.3675 23.9097 29.2994 23.8127 29.2592C23.7156 29.219 23.6088 29.2085 23.5057 29.229C23.4027 29.2495 23.308 29.3001 23.2337 29.3743C23.1594 29.4486 23.1088 29.5433 23.0883 29.6464C23.0678 29.7494 23.0784 29.8562 23.1186 29.9533C23.1588 30.0504 23.2269 30.1333 23.3142 30.1917C23.4016 30.2501 23.5043 30.2812 23.6094 30.2812C23.7503 30.2812 23.8854 30.2253 23.985 30.1257C24.0847 30.026 24.1406 29.8909 24.1406 29.75ZM17.8905 3.67094C18.0314 3.67094 18.1665 3.61497 18.2661 3.51534C18.3657 3.41571 18.4217 3.28058 18.4217 3.13969C18.4217 3.03462 18.3906 2.9319 18.3322 2.84454C18.2738 2.75718 18.1908 2.68909 18.0938 2.64888C17.9967 2.60867 17.8899 2.59815 17.7868 2.61865C17.6838 2.63914 17.5891 2.68974 17.5148 2.76404C17.4405 2.83833 17.3899 2.93299 17.3694 3.03605C17.3489 3.1391 17.3594 3.24592 17.3997 3.34299C17.4399 3.44006 17.508 3.52303 17.5953 3.58141C17.6827 3.63978 17.7854 3.67094 17.8905 3.67094Z" fill="white"/>
</g>
<defs>
<clipPath id="clip0_2127_36470">
<rect width="34" height="34" fill="white" transform="translate(0.5)"/>
</clipPath>
</defs>
</svg>
