<svg width="35" height="34" viewBox="0 0 35 34" fill="none" xmlns="http://www.w3.org/2000/svg">
<path d="M13.2469 4.25C14.092 4.25168 14.902 4.58792 15.4997 5.18526C16.0975 5.78261 16.4343 6.59244 16.4366 7.4375L16.4408 22.323C17.3118 22.9766 17.9605 23.8824 18.2989 24.9174C18.6372 25.9524 18.6488 27.0666 18.3321 28.1084C18.0002 29.1987 17.3266 30.1535 16.4108 30.832C15.495 31.5104 14.3853 31.8764 13.2456 31.8762C12.1059 31.8759 10.9964 31.5094 10.0809 30.8307C9.1653 30.1519 8.49217 29.1967 8.16074 28.1062C7.51262 25.9759 8.3148 23.5884 10.0605 22.323L10.0584 7.4375C10.0584 5.68438 11.4927 4.25 13.2469 4.25ZM13.2469 5.3125C12.0676 5.3125 11.1219 6.25813 11.1219 7.4375L11.1187 22.5886C11.1188 22.676 11.0973 22.7621 11.0562 22.8392C11.015 22.9163 10.9555 22.9821 10.8829 23.0306C10.1254 23.5377 9.55097 24.275 9.24447 25.1335C8.93797 25.9919 8.91561 26.9261 9.18069 27.7983C9.44577 28.6704 9.98424 29.4342 10.7166 29.977C11.449 30.5197 12.3364 30.8127 13.248 30.8125C14.16 30.8141 15.0482 30.5219 15.7813 29.9794C16.5144 29.437 17.0534 28.6729 17.3186 27.8004C17.5837 26.9278 17.561 25.993 17.2536 25.1344C16.9463 24.2757 16.3707 23.539 15.6121 23.0329C15.5398 22.984 15.4807 22.9181 15.4399 22.841C15.3992 22.7639 15.378 22.678 15.3783 22.5908L15.373 7.43958C15.373 6.2602 14.4274 5.31458 13.248 5.31458L13.2469 5.3125Z" fill="white"/>
<path d="M13.25 24.1719C13.8833 24.1741 14.4901 24.4266 14.938 24.8745C15.3858 25.3223 15.6384 25.9292 15.6406 26.5625C15.6384 27.1958 15.3858 27.8026 14.938 28.2504C14.4901 28.6983 13.8833 28.9509 13.25 28.9531C12.6167 28.9509 12.0099 28.6983 11.562 28.2504C11.1142 27.8026 10.8616 27.1958 10.8594 26.5625C10.8616 25.9292 11.1142 25.3223 11.562 24.8745C12.0099 24.4266 12.6167 24.1741 13.25 24.1719ZM13.25 25.2344C12.5105 25.2344 11.9219 25.823 11.9219 26.5625C11.9219 27.302 12.5105 27.8906 13.25 27.8906C13.9895 27.8906 14.5781 27.302 14.5781 26.5625C14.5781 25.823 13.9895 25.2344 13.25 25.2344Z" fill="white"/>
<path fill-rule="evenodd" clip-rule="evenodd" d="M12.7188 17V24.7031H13.7812V17H12.7188Z" fill="white"/>
<path d="M24.9704 6.37608C25.1097 6.38418 25.2403 6.44671 25.3338 6.55026C25.3338 6.55026 25.7482 7.01355 26.1658 7.59473C26.3751 7.8848 26.5876 8.2056 26.7554 8.53285C26.9233 8.85904 27.0625 9.181 27.0625 9.56137C27.0625 10.7291 26.1052 11.6864 24.9375 11.6864C23.7698 11.6864 22.8125 10.7291 22.8125 9.56137C22.8125 9.181 22.9506 8.85907 23.1196 8.53182C23.2874 8.20563 23.4999 7.8848 23.7092 7.59473C24.1268 7.01355 24.5433 6.55026 24.5433 6.55026C24.5968 6.49098 24.663 6.44451 24.737 6.41434C24.8109 6.38417 24.8907 6.37115 24.9704 6.37608ZM24.9375 7.75621C24.7972 7.92621 24.7537 7.96234 24.572 8.21522C24.3847 8.47143 24.2157 8.74062 24.0663 9.02065C23.9356 9.27353 23.875 9.50198 23.875 9.56254C23.875 10.1544 24.3446 10.625 24.9375 10.625C25.5304 10.625 26 10.1544 26 9.56254C26 9.50198 25.9394 9.27353 25.8087 9.02065C25.6593 8.74062 25.4903 8.47143 25.303 8.21522C25.1202 7.96128 25.0778 7.92727 24.9375 7.75621ZM20.7204 2.12601C20.8597 2.13412 20.9903 2.19671 21.0838 2.30026C21.0838 2.30026 21.4982 2.76355 21.9158 3.34473C22.1251 3.6348 22.3376 3.95563 22.5054 4.28181C22.6733 4.60906 22.8125 4.9311 22.8125 5.31254C22.8125 6.47916 21.8552 7.43754 20.6875 7.43754C19.5198 7.43754 18.5625 6.47916 18.5625 5.31254C18.5625 4.9311 18.7006 4.60906 18.8696 4.28181C19.0374 3.95563 19.2499 3.6348 19.4592 3.34473C19.8768 2.76355 20.2933 2.30026 20.2933 2.30026C20.3468 2.24098 20.413 2.19457 20.487 2.1644C20.5609 2.13423 20.6407 2.12108 20.7204 2.12601ZM20.6875 3.50621C20.5473 3.67621 20.5037 3.71234 20.322 3.96522C20.1347 4.22143 19.9657 4.49062 19.8163 4.77065C19.6856 5.02353 19.625 5.25198 19.625 5.31254C19.625 5.90435 20.0946 6.37504 20.6875 6.37504C21.2804 6.37504 21.75 5.90435 21.75 5.31254C21.75 5.25198 21.6894 5.02353 21.5587 4.77065C21.4093 4.49062 21.2403 4.22143 21.053 3.96522C20.8702 3.71128 20.8277 3.67727 20.6875 3.50621Z" fill="white"/>
</svg>
