<svg width="71" height="34" viewBox="0 0 71 34" fill="none" xmlns="http://www.w3.org/2000/svg">
<path d="M12.1805 4.25C13.0256 4.25168 13.8356 4.58805 14.4333 5.18539C15.0311 5.78274 15.3679 6.59244 15.3701 7.4375L15.3744 22.3231C16.2454 22.9767 16.8941 23.8825 17.2324 24.9175C17.5708 25.9525 17.5824 27.0667 17.2656 28.1085C16.9338 29.1989 16.2602 30.1537 15.3444 30.8321C14.4286 31.5105 13.3189 31.8765 12.1792 31.8763C11.0395 31.8761 9.93002 31.5094 9.01447 30.8307C8.09892 30.1519 7.42576 29.1968 7.09433 28.1063C6.44621 25.976 7.24842 23.5886 8.99411 22.3231L8.99197 7.4375C8.99197 5.68438 10.4263 4.25 12.1805 4.25ZM12.1805 5.3125C11.0011 5.3125 10.0555 6.25813 10.0555 7.4375L10.0523 22.5888C10.0523 22.6762 10.0306 22.7624 9.9893 22.8395C9.94796 22.9166 9.8882 22.9823 9.81537 23.0308C9.05787 23.5378 8.4835 24.275 8.177 25.1335C7.8705 25.9919 7.84811 26.9263 8.11319 27.7984C8.37827 28.6706 8.91679 29.4344 9.64916 29.9771C10.3815 30.5198 11.269 30.8127 12.1805 30.8125C13.0926 30.8143 13.981 30.5225 14.7143 29.9801C15.4475 29.4377 15.9867 28.6736 16.252 27.801C16.5173 26.9284 16.4946 25.9935 16.1873 25.1348C15.88 24.276 15.3044 23.5391 14.5456 23.033C14.4734 22.9841 14.4143 22.9182 14.3735 22.8412C14.3328 22.7641 14.3116 22.6782 14.3119 22.591L14.3066 7.4397C14.3066 6.26033 13.361 5.3147 12.1816 5.3147L12.1805 5.3125Z" fill="white"/>
<path d="M12.1836 24.1719C12.8169 24.1741 13.4237 24.4267 13.8716 24.8746C14.3194 25.3224 14.572 25.9292 14.5742 26.5625C14.572 27.1958 14.3194 27.8027 13.8716 28.2505C13.4237 28.6984 12.8169 28.9509 12.1836 28.9531C11.5502 28.9509 10.9435 28.6984 10.4957 28.2505C10.0478 27.8027 9.79521 27.1958 9.79297 26.5625C9.79521 25.9292 10.0478 25.3224 10.4957 24.8746C10.9435 24.4267 11.5502 24.1741 12.1836 24.1719ZM12.1836 25.2344C11.4441 25.2344 10.8555 25.823 10.8555 26.5625C10.8555 27.302 11.4441 27.8906 12.1836 27.8906C12.9231 27.8906 13.5117 27.302 13.5117 26.5625C13.5117 25.823 12.9231 25.2344 12.1836 25.2344Z" fill="white"/>
<path fill-rule="evenodd" clip-rule="evenodd" d="M11.6523 17V24.7031H12.7148V17H11.6523Z" fill="white"/>
<g clip-path="url(#clip0_2127_36430)">
<path d="M26.0013 10.5339C27.7128 10.5339 29.1003 9.1464 29.1003 7.4349C29.1003 5.72339 27.7128 4.33594 26.0013 4.33594C24.2898 4.33594 22.9023 5.72339 22.9023 7.4349C22.9023 9.1464 24.2898 10.5339 26.0013 10.5339Z" stroke="white" stroke-linecap="round" stroke-linejoin="round"/>
<path d="M26 0.617188V1.85677" stroke="white" stroke-linecap="round" stroke-linejoin="round"/>
<path d="M26 13.0156V14.2552" stroke="white" stroke-linecap="round" stroke-linejoin="round"/>
<path d="M21.1797 2.61328L22.0598 3.49339" stroke="white" stroke-linecap="round" stroke-linejoin="round"/>
<path d="M29.9414 11.375L30.8215 12.2551" stroke="white" stroke-linecap="round" stroke-linejoin="round"/>
<path d="M19.1836 7.4375H20.4232" stroke="white" stroke-linecap="round" stroke-linejoin="round"/>
<path d="M31.5781 7.4375H32.8177" stroke="white" stroke-linecap="round" stroke-linejoin="round"/>
<path d="M21.1797 12.2551L22.0598 11.375" stroke="white" stroke-linecap="round" stroke-linejoin="round"/>
<path d="M29.9453 3.49339L30.8254 2.61328" stroke="white" stroke-linecap="round" stroke-linejoin="round"/>
</g>
<path d="M48.1805 4.25C49.0256 4.25168 49.8356 4.58805 50.4333 5.18539C51.0311 5.78274 51.3679 6.59244 51.3701 7.4375L51.3744 22.3231C52.2454 22.9767 52.8941 23.8825 53.2324 24.9175C53.5708 25.9525 53.5824 27.0667 53.2656 28.1085C52.9338 29.1989 52.2602 30.1537 51.3444 30.8321C50.4286 31.5105 49.3189 31.8765 48.1792 31.8763C47.0395 31.8761 45.93 31.5094 45.0145 30.8307C44.0989 30.1519 43.4258 29.1968 43.0943 28.1063C42.4462 25.976 43.2484 23.5886 44.9941 22.3231L44.992 7.4375C44.992 5.68438 46.4263 4.25 48.1805 4.25ZM48.1805 5.3125C47.0011 5.3125 46.0555 6.25813 46.0555 7.4375L46.0523 22.5888C46.0523 22.6762 46.0306 22.7624 45.9893 22.8395C45.948 22.9166 45.8882 22.9823 45.8154 23.0308C45.0579 23.5378 44.4835 24.275 44.177 25.1335C43.8705 25.9919 43.8481 26.9263 44.1132 27.7984C44.3783 28.6706 44.9168 29.4344 45.6492 29.9771C46.3815 30.5198 47.269 30.8127 48.1805 30.8125C49.0926 30.8143 49.981 30.5225 50.7143 29.9801C51.4475 29.4377 51.9867 28.6736 52.252 27.801C52.5173 26.9284 52.4946 25.9935 52.1873 25.1348C51.88 24.276 51.3044 23.5391 50.5456 23.033C50.4734 22.9841 50.4143 22.9182 50.3735 22.8412C50.3328 22.7641 50.3116 22.6782 50.3119 22.591L50.3066 7.4397C50.3066 6.26033 49.361 5.3147 48.1816 5.3147L48.1805 5.3125Z" fill="white"/>
<path d="M48.1836 24.1719C48.8169 24.1741 49.4237 24.4267 49.8716 24.8746C50.3194 25.3224 50.572 25.9292 50.5742 26.5625C50.572 27.1958 50.3194 27.8027 49.8716 28.2505C49.4237 28.6984 48.8169 28.9509 48.1836 28.9531C47.5502 28.9509 46.9435 28.6984 46.4957 28.2505C46.0478 27.8027 45.7952 27.1958 45.793 26.5625C45.7952 25.9292 46.0478 25.3224 46.4957 24.8746C46.9435 24.4267 47.5502 24.1741 48.1836 24.1719ZM48.1836 25.2344C47.4441 25.2344 46.8555 25.823 46.8555 26.5625C46.8555 27.302 47.4441 27.8906 48.1836 27.8906C48.9231 27.8906 49.5117 27.302 49.5117 26.5625C49.5117 25.823 48.9231 25.2344 48.1836 25.2344Z" fill="white"/>
<path fill-rule="evenodd" clip-rule="evenodd" d="M47.6523 17V24.7031H48.7148V17H47.6523Z" fill="white"/>
<g clip-path="url(#clip1_2127_36430)">
<path d="M61.1483 13.3242H60.7499C59.3315 13.2331 57.992 12.6396 56.9718 11.65C55.9516 10.6605 55.3174 9.33978 55.183 7.92485C55.0487 6.50992 55.423 5.09343 56.2388 3.92957C57.0545 2.76571 58.2584 1.93066 59.6343 1.57429C59.7538 1.5429 59.8795 1.54295 59.999 1.57442C60.1185 1.60589 60.2279 1.66772 60.3165 1.75391C60.4051 1.8401 60.4699 1.94773 60.5046 2.06635C60.5394 2.18497 60.5429 2.31056 60.5148 2.43093C60.3432 3.18914 60.3444 3.97625 60.5184 4.73391C60.6925 5.49157 61.0348 6.20035 61.5201 6.80768C62.0053 7.41502 62.621 7.90534 63.3216 8.24229C64.0222 8.57924 64.7896 8.75418 65.567 8.75413H65.9097C66.0337 8.74398 66.1582 8.7661 66.2712 8.81832C66.3841 8.87055 66.4816 8.95112 66.5542 9.05219C66.6268 9.15326 66.672 9.2714 66.6855 9.39511C66.6989 9.51882 66.6801 9.64391 66.6308 9.75819C66.1594 10.8189 65.3907 11.7203 64.4177 12.3532C63.4447 12.986 62.3091 13.3233 61.1483 13.3242ZM59.714 2.38312C58.8825 2.62481 58.1249 3.07108 57.5104 3.68114C56.8959 4.29121 56.4442 5.04558 56.1965 5.87529C55.9488 6.70499 55.913 7.58356 56.0925 8.43064C56.272 9.27772 56.661 10.0663 57.2239 10.7242C57.7868 11.3822 58.5057 11.8885 59.3148 12.1969C60.1239 12.5053 60.9974 12.606 61.8555 12.4897C62.7135 12.3734 63.5287 12.0438 64.2265 11.5312C64.9243 11.0185 65.4824 10.339 65.8499 9.55499H65.567C64.6807 9.55517 63.8054 9.35821 63.0045 8.97837C62.2037 8.59852 61.4974 8.04532 60.9367 7.35881C60.3761 6.67231 59.9752 5.8697 59.763 5.00913C59.5508 4.14855 59.5327 3.25156 59.71 2.38312H59.714Z" fill="white"/>
</g>
<defs>
<clipPath id="clip0_2127_36430">
<rect width="14.875" height="14.875" fill="white" transform="translate(18.5625)"/>
</clipPath>
<clipPath id="clip1_2127_36430">
<rect width="12.75" height="12.75" fill="white" transform="translate(54.5625 1.0625)"/>
</clipPath>
</defs>
</svg>
