<svg width="12" height="12" viewBox="0 0 12 12" fill="none" xmlns="http://www.w3.org/2000/svg">
<path d="M8.5418 2.82794C8.5418 2.47756 8.8263 2.19352 9.17725 2.19352C9.5282 2.19352 9.81271 2.47756 9.81271 2.82794C9.81271 3.17831 9.5282 3.46235 9.17725 3.46235C8.8263 3.46235 8.5418 3.17831 8.5418 2.82794Z" fill="white"/>
<path fill-rule="evenodd" clip-rule="evenodd" d="M5.99999 2.98654C4.33298 2.98654 2.98159 4.33571 2.98159 6C2.98159 7.66429 4.33298 9.01346 5.99999 9.01346C7.66701 9.01346 9.01839 7.66429 9.01839 6C9.01839 4.33571 7.66701 2.98654 5.99999 2.98654ZM3.93477 6C3.93477 4.86128 4.8594 3.93816 5.99999 3.93816C7.14058 3.93816 8.06521 4.86128 8.06521 6C8.06521 7.13872 7.14058 8.06184 5.99999 8.06184C4.8594 8.06184 3.93477 7.13872 3.93477 6Z" fill="white"/>
<path fill-rule="evenodd" clip-rule="evenodd" d="M9.34136 0.184348C7.13852 -0.0614494 4.86148 -0.0614494 2.65864 0.184348C1.38007 0.327013 0.347883 1.33256 0.197564 2.61568C-0.0658548 4.86423 -0.0658548 7.13577 0.197564 9.38432C0.347883 10.6674 1.38007 11.673 2.65864 11.8157C4.86148 12.0614 7.13852 12.0614 9.34136 11.8157C10.6199 11.673 11.6521 10.6674 11.8024 9.38432C12.0659 7.13577 12.0659 4.86423 11.8024 2.61568C11.6521 1.33256 10.6199 0.327013 9.34136 0.184348ZM2.76451 1.13008C4.89699 0.892133 7.10301 0.892133 9.23549 1.13008C10.0807 1.22439 10.7578 1.89028 10.8557 2.72623C11.1105 4.90133 11.1105 7.09867 10.8557 9.27377C10.7578 10.1097 10.0807 10.7756 9.23549 10.8699C7.10301 11.1079 4.89699 11.1079 2.76451 10.8699C1.91929 10.7756 1.24222 10.1097 1.14429 9.27377C0.889475 7.09867 0.889475 4.90133 1.14429 2.72623C1.24222 1.89028 1.91929 1.22439 2.76451 1.13008Z" fill="white"/>
</svg>
