<svg width="41" height="40" viewBox="0 0 41 40" fill="none" xmlns="http://www.w3.org/2000/svg">
<circle cx="20.5" cy="20" r="20" fill="#FEE500"/>
<path d="M20.5569 9.65234C14.3345 9.65234 9.31641 13.6668 9.31641 18.5403C9.31641 21.7037 11.4039 24.4737 14.5352 26.0554L13.4754 30.0137C13.4554 30.073 13.4523 30.1367 13.4665 30.1977C13.4807 30.2586 13.5116 30.3145 13.5557 30.3589C13.62 30.4156 13.7028 30.447 13.7885 30.4472C13.8596 30.4415 13.9271 30.4134 13.9812 30.3669L18.5416 27.2919C19.2148 27.3848 19.8934 27.433 20.573 27.4363C26.7873 27.4363 31.8135 23.4219 31.8135 18.5403C31.8135 13.6587 26.7713 9.65234 20.5569 9.65234Z" fill="#392020"/>
<path d="M13.2491 17.1367H12.0207C11.8684 17.1411 11.718 17.1021 11.5871 17.0243C11.529 16.9879 11.479 16.9398 11.4403 16.8831C11.4016 16.8265 11.3751 16.7625 11.3623 16.6951C11.3584 16.6523 11.3584 16.6094 11.3623 16.5667C11.3585 16.4867 11.374 16.407 11.4076 16.3343C11.4411 16.2616 11.4917 16.1981 11.555 16.1492C11.695 16.0478 11.8639 15.9942 12.0367 15.9966H15.7381C15.8915 15.9912 16.0429 16.0332 16.1716 16.117C16.2311 16.1518 16.2822 16.1995 16.321 16.2564C16.3599 16.3133 16.3857 16.3781 16.3964 16.4462C16.4004 16.4863 16.4004 16.5266 16.3964 16.5667C16.4002 16.6478 16.3847 16.7286 16.3512 16.8026C16.3177 16.8766 16.2672 16.9415 16.2037 16.9921C16.0672 17.0934 15.8999 17.1445 15.73 17.1367H14.5418V21.3599C14.5466 21.4499 14.5327 21.5398 14.5009 21.6242C14.4691 21.7085 14.4201 21.7853 14.3571 21.8497C14.2966 21.9112 14.224 21.9595 14.1438 21.9913C14.0636 22.0231 13.9776 22.0377 13.8914 22.0343C13.7406 22.0386 13.593 21.9904 13.4739 21.8979C13.3605 21.8075 13.2835 21.6791 13.2571 21.5365C13.2492 21.4779 13.2492 21.4185 13.2571 21.3599L13.2491 17.1367Z" fill="#FEE500"/>
<path d="M16.7539 16.3089C16.7892 16.1768 16.8722 16.0624 16.9868 15.9877C17.1089 15.9185 17.248 15.8851 17.3882 15.8914H17.6933C17.8421 15.886 17.9894 15.9222 18.1188 15.9957C18.256 16.088 18.3534 16.2284 18.3918 16.3892L19.9976 20.9255C20.0392 21.0439 20.0741 21.1646 20.102 21.2869C20.1047 21.3377 20.1047 21.3886 20.102 21.4394C20.1047 21.5176 20.0903 21.5955 20.0598 21.6676C20.0293 21.7398 19.9834 21.8044 19.9253 21.8569C19.8691 21.9146 19.8016 21.96 19.727 21.9904C19.6524 22.0208 19.5723 22.0354 19.4918 22.0335C19.3679 22.0458 19.2436 22.0161 19.1387 21.9491C19.0338 21.8821 18.9546 21.7818 18.9137 21.6642L18.5765 20.6767H16.4649L16.1277 21.6642C16.0878 21.7841 16.0076 21.8864 15.9007 21.9537C15.7938 22.0211 15.6669 22.0493 15.5415 22.0335C15.4058 22.0371 15.2728 21.9946 15.1642 21.9131C15.0584 21.8289 14.987 21.709 14.9635 21.5759C14.9592 21.5305 14.9592 21.4848 14.9635 21.4394C14.9497 21.3597 14.9497 21.2783 14.9635 21.1986C14.9635 21.1103 15.0197 21.0138 15.0518 20.9255L16.7539 16.3089ZM17.5568 17.3607L16.7941 19.7694H18.3115L17.5568 17.3607Z" fill="#FEE500"/>
<path d="M20.2819 16.5658C20.2738 16.3856 20.3373 16.2095 20.4586 16.076C20.5202 16.0139 20.5943 15.9652 20.6759 15.9334C20.7574 15.9016 20.8448 15.8872 20.9323 15.8913C21.0827 15.8895 21.2295 15.9376 21.3498 16.0278C21.4613 16.122 21.5354 16.253 21.5585 16.3971C21.5665 16.453 21.5665 16.5099 21.5585 16.5658V20.789H23.7665C23.9195 20.787 24.07 20.8287 24.2001 20.9094C24.2585 20.9454 24.3087 20.9934 24.3475 21.0501C24.3862 21.1068 24.4126 21.171 24.4249 21.2386C24.4249 21.2386 24.4249 21.3189 24.4249 21.359C24.4287 21.439 24.4132 21.5186 24.3796 21.5913C24.3461 21.664 24.2955 21.7276 24.2322 21.7766C24.0922 21.8779 23.9233 21.9314 23.7504 21.9291H21.0367C20.8638 21.9402 20.692 21.8952 20.5469 21.8007C20.4171 21.7036 20.3306 21.5594 20.306 21.3992C20.3002 21.311 20.3002 21.2224 20.306 21.1342L20.2819 16.5658Z" fill="#FEE500"/>
<path d="M24.5697 16.5652C24.5649 16.3856 24.628 16.2107 24.7464 16.0755C24.8667 15.9661 25.0211 15.9016 25.1834 15.8928C25.3458 15.884 25.5062 15.9315 25.6376 16.0273C25.7516 16.1206 25.8284 16.2515 25.8544 16.3965C25.8583 16.4527 25.8583 16.5091 25.8544 16.5652V18.5323L27.8857 16.1878C27.964 16.1078 28.0471 16.0328 28.1346 15.9631C28.2171 15.9139 28.3116 15.8888 28.4076 15.8907C28.5479 15.89 28.6851 15.932 28.801 16.0112C28.8556 16.0479 28.9022 16.0954 28.9381 16.1505C28.9739 16.2057 28.9983 16.2675 29.0097 16.3324C29.013 16.3482 29.013 16.3647 29.0097 16.3806C29.0058 16.3991 29.0058 16.4182 29.0097 16.4367C29.0095 16.5212 28.9873 16.6042 28.9455 16.6776C28.9029 16.7554 28.8517 16.828 28.793 16.8943L27.4602 18.3557L29.0659 20.8446V20.9249C29.1493 21.0399 29.2143 21.1673 29.2586 21.3023V21.3424C29.2679 21.4354 29.2545 21.5293 29.2196 21.616C29.1846 21.7027 29.1291 21.7796 29.0579 21.8402C28.924 21.9414 28.7601 21.9951 28.5922 21.9928C28.4807 21.9974 28.3699 21.9724 28.2711 21.9205C28.1641 21.8487 28.076 21.7524 28.0142 21.6395L26.5208 19.2308L25.8062 19.9775V21.3183C25.811 21.4979 25.7479 21.6728 25.6296 21.808C25.5661 21.8701 25.4906 21.9185 25.4078 21.9503C25.3249 21.982 25.2365 21.9965 25.1478 21.9928C24.9997 21.9959 24.855 21.9476 24.7384 21.8563C24.6249 21.7659 24.548 21.6376 24.5216 21.495C24.5136 21.4364 24.5136 21.3769 24.5216 21.3183L24.5697 16.5652Z" fill="#FEE500"/>
</svg>
