<svg width="64" height="64" viewBox="0 0 64 64" fill="none" xmlns="http://www.w3.org/2000/svg">
<path d="M56 31C55.9984 29.6744 55.4711 28.4036 54.5338 27.4662C53.5964 26.5289 52.3256 26.0016 51 26H40V20.472C39.9971 17.6955 38.8929 15.0336 36.9296 13.0704C34.9664 11.1071 32.3045 10.0029 29.528 10C29.1229 10.0005 28.7346 10.1617 28.4481 10.4481C28.1617 10.7346 28.0005 11.1229 28 11.528V26.637L23.531 32H9C8.73478 32 8.48043 32.1054 8.29289 32.2929C8.10536 32.4804 8 32.7348 8 33V59C8 59.2652 8.10536 59.5196 8.29289 59.7071C8.48043 59.8946 8.73478 60 9 60H51C52.0494 60 53.0722 59.6698 53.9235 59.0562C54.7749 58.4426 55.4116 57.5767 55.7434 56.5811C56.0753 55.5856 56.0855 54.5108 55.7726 53.5092C55.4597 52.5075 54.8395 51.6296 54 51C54.621 50.5343 55.125 49.9303 55.4721 49.2361C55.8193 48.5418 56 47.7762 56 47C56 46.2238 55.8193 45.4582 55.4721 44.7639C55.125 44.0697 54.621 43.4657 54 43C54.621 42.5343 55.125 41.9303 55.4721 41.2361C55.8193 40.5418 56 39.7762 56 39C56 38.2238 55.8193 37.4582 55.4721 36.7639C55.125 36.0697 54.621 35.4657 54 35C54.621 34.5343 55.125 33.9303 55.4721 33.2361C55.8193 32.5418 56 31.7762 56 31ZM23 58H17V45C17 44.7348 16.8946 44.4804 16.7071 44.2929C16.5196 44.1054 16.2652 44 16 44C15.7348 44 15.4804 44.1054 15.2929 44.2929C15.1054 44.4804 15 44.7348 15 45V58H10V34H23V58ZM41.026 58H25V33.362L29.769 27.641L29.758 27.632C29.9112 27.4568 29.997 27.2327 30 27V12.013C32.1609 12.1362 34.193 13.0808 35.6803 14.6534C37.1675 16.226 37.9974 18.3076 38 20.472V27C38 27.2652 38.1054 27.5196 38.2929 27.7071C38.4804 27.8946 38.7348 28 39 28H41.026C40.625 28.5215 40.3318 29.1176 40.1636 29.7535C39.9953 30.3895 39.9553 31.0526 40.046 31.7041C40.1367 32.3557 40.3561 32.9827 40.6916 33.5485C41.0271 34.1144 41.4719 34.6078 42 35C41.379 35.4657 40.875 36.0697 40.5279 36.7639C40.1807 37.4582 40 38.2238 40 39C40 39.7762 40.1807 40.5418 40.5279 41.2361C40.875 41.9303 41.379 42.5343 42 43C41.379 43.4657 40.875 44.0697 40.5279 44.7639C40.1807 45.4582 40 46.2238 40 47C40 47.7762 40.1807 48.5418 40.5279 49.2361C40.875 49.9303 41.379 50.5343 42 51C41.4716 51.392 41.0266 51.8852 40.6908 52.451C40.3551 53.0167 40.1353 53.6437 40.0444 54.2952C39.9534 54.9468 39.9931 55.61 40.1612 56.246C40.3292 56.8821 40.6222 57.4783 41.023 58H41.026ZM54 55C54 55.7957 53.6839 56.5587 53.1213 57.1213C52.5587 57.6839 51.7957 58 51 58H45C44.2043 58 43.4413 57.6839 42.8787 57.1213C42.3161 56.5587 42 55.7957 42 55C42 54.2043 42.3161 53.4413 42.8787 52.8787C43.4413 52.3161 44.2043 52 45 52H51C51.7957 52 52.5587 52.3161 53.1213 52.8787C53.6839 53.4413 54 54.2043 54 55ZM54 47C54 47.7957 53.6839 48.5587 53.1213 49.1213C52.5587 49.6839 51.7957 50 51 50H45C44.2043 50 43.4413 49.6839 42.8787 49.1213C42.3161 48.5587 42 47.7957 42 47C42 46.2043 42.3161 45.4413 42.8787 44.8787C43.4413 44.3161 44.2043 44 45 44H51C51.7957 44 52.5587 44.3161 53.1213 44.8787C53.6839 45.4413 54 46.2043 54 47ZM54 39C54 39.7957 53.6839 40.5587 53.1213 41.1213C52.5587 41.6839 51.7957 42 51 42H45C44.2043 42 43.4413 41.6839 42.8787 41.1213C42.3161 40.5587 42 39.7957 42 39C42 38.2043 42.3161 37.4413 42.8787 36.8787C43.4413 36.3161 44.2043 36 45 36H51C51.7957 36 52.5587 36.3161 53.1213 36.8787C53.6839 37.4413 54 38.2043 54 39ZM51 34H45C44.2043 34 43.4413 33.6839 42.8787 33.1213C42.3161 32.5587 42 31.7956 42 31C42 30.2044 42.3161 29.4413 42.8787 28.8787C43.4413 28.3161 44.2043 28 45 28H51C51.7957 28 52.5587 28.3161 53.1213 28.8787C53.6839 29.4413 54 30.2044 54 31C54 31.7956 53.6839 32.5587 53.1213 33.1213C52.5587 33.6839 51.7957 34 51 34ZM61 17C60.2043 17 59.4413 16.6839 58.8787 16.1213C58.3161 15.5587 58 14.7956 58 14C58 13.7348 57.8946 13.4804 57.7071 13.2929C57.5196 13.1054 57.2652 13 57 13C56.7348 13 56.4804 13.1054 56.2929 13.2929C56.1054 13.4804 56 13.7348 56 14C56 14.7956 55.6839 15.5587 55.1213 16.1213C54.5587 16.6839 53.7957 17 53 17C52.7348 17 52.4804 17.1054 52.2929 17.2929C52.1054 17.4804 52 17.7348 52 18C52 18.2652 52.1054 18.5196 52.2929 18.7071C52.4804 18.8946 52.7348 19 53 19C53.7957 19 54.5587 19.3161 55.1213 19.8787C55.6839 20.4413 56 21.2044 56 22C56 22.2652 56.1054 22.5196 56.2929 22.7071C56.4804 22.8946 56.7348 23 57 23C57.2652 23 57.5196 22.8946 57.7071 22.7071C57.8946 22.5196 58 22.2652 58 22C58 21.2044 58.3161 20.4413 58.8787 19.8787C59.4413 19.3161 60.2043 19 61 19C61.2652 19 61.5196 18.8946 61.7071 18.7071C61.8946 18.5196 62 18.2652 62 18C62 17.7348 61.8946 17.4804 61.7071 17.2929C61.5196 17.1054 61.2652 17 61 17ZM57 19.031C56.7087 18.6387 56.3613 18.2913 55.969 18C56.3613 17.7087 56.7087 17.3613 57 16.969C57.2913 17.3613 57.6387 17.7087 58.031 18C57.6387 18.2913 57.2913 18.6387 57 19.031ZM45 13C45 13.2652 45.1054 13.5196 45.2929 13.7071C45.4804 13.8946 45.7348 14 46 14C46.2652 14 46.5196 13.8946 46.7071 13.7071C46.8946 13.5196 47 13.2652 47 13C47 12.2044 47.3161 11.4413 47.8787 10.8787C48.4413 10.3161 49.2043 10 50 10C50.2652 10 50.5196 9.89464 50.7071 9.70711C50.8946 9.51957 51 9.26522 51 9C51 8.73478 50.8946 8.48043 50.7071 8.29289C50.5196 8.10536 50.2652 8 50 8C49.2043 8 48.4413 7.68393 47.8787 7.12132C47.3161 6.55871 47 5.79565 47 5C47 4.73478 46.8946 4.48043 46.7071 4.29289C46.5196 4.10536 46.2652 4 46 4C45.7348 4 45.4804 4.10536 45.2929 4.29289C45.1054 4.48043 45 4.73478 45 5C45 5.79565 44.6839 6.55871 44.1213 7.12132C43.5587 7.68393 42.7957 8 42 8C41.7348 8 41.4804 8.10536 41.2929 8.29289C41.1054 8.48043 41 8.73478 41 9C41 9.26522 41.1054 9.51957 41.2929 9.70711C41.4804 9.89464 41.7348 10 42 10C42.7957 10 43.5587 10.3161 44.1213 10.8787C44.6839 11.4413 45 12.2044 45 13ZM46 7.969C46.2913 8.36131 46.6387 8.70869 47.031 9C46.6387 9.29131 46.2913 9.63869 46 10.031C45.7087 9.63869 45.3613 9.29131 44.969 9C45.3613 8.70869 45.7087 8.36131 46 7.969Z" fill="#569AA9"/>
<path d="M17 23C17 22.7348 16.8946 22.4804 16.7071 22.2929C16.5196 22.1054 16.2652 22 16 22H3C2.73478 22 2.48043 22.1054 2.29289 22.2929C2.10536 22.4804 2 22.7348 2 23C2 23.2652 2.10536 23.5196 2.29289 23.7071C2.48043 23.8946 2.73478 24 3 24H16C16.2652 24 16.5196 23.8946 16.7071 23.7071C16.8946 23.5196 17 23.2652 17 23ZM21 27C21 26.7348 20.8946 26.4804 20.7071 26.2929C20.5196 26.1054 20.2652 26 20 26H5C4.73478 26 4.48043 26.1054 4.29289 26.2929C4.10536 26.4804 4 26.7348 4 27C4 27.2652 4.10536 27.5196 4.29289 27.7071C4.48043 27.8946 4.73478 28 5 28H20C20.2652 28 20.5196 27.8946 20.7071 27.7071C20.8946 27.5196 21 27.2652 21 27Z" fill="#569AA9"/>
</svg>
