<svg width="64" height="64" viewBox="0 0 64 64" fill="none" xmlns="http://www.w3.org/2000/svg">
<path d="M3 27H5V32C5 32.2652 5.10536 32.5196 5.29289 32.7071C5.48043 32.8946 5.73478 33 6 33H30C30.2652 33 30.5196 32.8946 30.7071 32.7071C30.8946 32.5196 31 32.2652 31 32V26C31 25.7348 30.8946 25.4804 30.7071 25.2929C30.5196 25.1054 30.2652 25 30 25H28V21H29C29.2652 21 29.5196 20.8946 29.7071 20.7071C29.8946 20.5196 30 20.2652 30 20V14C30 13.7348 29.8946 13.4804 29.7071 13.2929C29.5196 13.1054 29.2652 13 29 13H28V8.00001C28 7.73479 27.8946 7.48044 27.7071 7.2929C27.5196 7.10536 27.2652 7.00001 27 7.00001H3C2.73478 7.00001 2.48043 7.10536 2.29289 7.2929C2.10536 7.48044 2 7.73479 2 8.00001V14C2 14.2652 2.10536 14.5196 2.29289 14.7071C2.48043 14.8946 2.73478 15 3 15H4V19H3C2.73478 19 2.48043 19.1054 2.29289 19.2929C2.10536 19.4804 2 19.7348 2 20V26C2 26.2652 2.10536 26.5196 2.29289 26.7071C2.48043 26.8946 2.73478 27 3 27ZM29 31H7V27H9V29H11V27H13V29H15V27H17V29H19V27H21V29H23V27H25V29H27V27H29V31ZM4 9.00001H6V11H8V9.00001H10V11H12V9.00001H14V11H16V9.00001H18V11H20V9.00001H22V11H24V9.00001H26V13H4V9.00001ZM6 15H8V17H10V15H12V17H14V15H16V17H18V15H20V17H22V15H24V17H26V15H28V19H6V15ZM4 21H6V23H8V21H10V23H12V21H14V23H16V21H18V23H20V21H22V23H24V21H26V25H4V21ZM47 32C49.9667 32 52.8668 31.1203 55.3336 29.472C57.8003 27.8238 59.7229 25.4811 60.8582 22.7403C61.9935 19.9994 62.2906 16.9834 61.7118 14.0737C61.133 11.1639 59.7044 8.49119 57.6066 6.3934C55.5088 4.29562 52.8361 2.86701 49.9264 2.28823C47.0166 1.70945 44.0006 2.0065 41.2598 3.14181C38.5189 4.27713 36.1762 6.19972 34.528 8.66645C32.8797 11.1332 32 14.0333 32 17C32.0045 20.9769 33.5863 24.7896 36.3984 27.6016C39.2104 30.4137 43.0231 31.9955 47 32ZM47 4.00001C49.5712 4.00001 52.0846 4.76244 54.2224 6.1909C56.3603 7.61936 58.0265 9.64968 59.0104 12.0251C59.9944 14.4006 60.2518 17.0144 59.7502 19.5362C59.2486 22.0579 58.0105 24.3743 56.1924 26.1924C54.3743 28.0105 52.0579 29.2486 49.5362 29.7502C47.0144 30.2518 44.4006 29.9944 42.0251 29.0104C39.6497 28.0265 37.6194 26.3603 36.1909 24.2224C34.7624 22.0846 34 19.5712 34 17C34.004 13.5534 35.3749 10.2491 37.812 7.812C40.2491 5.37489 43.5534 4.00398 47 4.00001Z" fill="#569AA9"/>
<path d="M47 28C49.1756 28 51.3023 27.3549 53.1113 26.1462C54.9202 24.9375 56.3301 23.2195 57.1627 21.2095C57.9952 19.1995 58.2131 16.9878 57.7886 14.854C57.3642 12.7202 56.3166 10.7602 54.7782 9.22183C53.2398 7.68345 51.2798 6.6358 49.146 6.21137C47.0122 5.78693 44.8005 6.00477 42.7905 6.83733C40.7805 7.66989 39.0625 9.07979 37.8538 10.8887C36.6451 12.6977 36 14.8244 36 17C36.0034 19.9163 37.1635 22.7122 39.2256 24.7744C41.2878 26.8365 44.0837 27.9966 47 28ZM47 8.00001C48.78 8.00001 50.5201 8.52785 52.0001 9.51678C53.4802 10.5057 54.6337 11.9113 55.3149 13.5559C55.9961 15.2004 56.1743 17.01 55.8271 18.7558C55.4798 20.5016 54.6226 22.1053 53.364 23.364C52.1053 24.6226 50.5016 25.4798 48.7558 25.8271C47.01 26.1743 45.2004 25.9961 43.5559 25.3149C41.9113 24.6337 40.5057 23.4802 39.5168 22.0001C38.5278 20.5201 38 18.78 38 17C38.0026 14.6139 38.9517 12.3262 40.639 10.639C42.3262 8.95171 44.6139 8.00265 47 8.00001Z" fill="#569AA9"/>
<path d="M46 24H48V22H50C50.2652 22 50.5196 21.8946 50.7071 21.7071C50.8946 21.5196 51 21.2652 51 21V17C51 16.7348 50.8946 16.4804 50.7071 16.2929C50.5196 16.1054 50.2652 16 50 16H45V14H51V12H48V10H46V12H44C43.7348 12 43.4804 12.1054 43.2929 12.2929C43.1054 12.4804 43 12.7348 43 13V17C43 17.2652 43.1054 17.5196 43.2929 17.7071C43.4804 17.8946 43.7348 18 44 18H49V20H43V22H46V24ZM2 62H62V36H2V62ZM4 38H60V60H4V38Z" fill="#569AA9"/>
<path d="M52 41V40H12V41C12 42.0609 11.5786 43.0783 10.8284 43.8284C10.0783 44.5786 9.06087 45 8 45H7V53H8C9.06087 53 10.0783 53.4214 10.8284 54.1716C11.5786 54.9217 12 55.9391 12 57V58H52V57C52 55.9391 52.4214 54.9217 53.1716 54.1716C53.9217 53.4214 54.9391 53 56 53H57V45H56C54.9391 45 53.9217 44.5786 53.1716 43.8284C52.4214 43.0783 52 42.0609 52 41ZM31 42.08V44H29C28.7348 44 28.4804 44.1054 28.2929 44.2929C28.1054 44.4804 28 44.7348 28 45V49C28 49.2652 28.1054 49.5196 28.2929 49.7071C28.4804 49.8946 28.7348 50 29 50H34V52H28V54H31V55.92C29.3351 55.6809 27.8123 54.8496 26.7107 53.5786C25.6092 52.3075 25.0028 50.6819 25.0028 49C25.0028 47.3181 25.6092 45.6925 26.7107 44.4214C27.8123 43.1504 29.3351 42.3191 31 42.08ZM33 55.92V54H35C35.2652 54 35.5196 53.8946 35.7071 53.7071C35.8946 53.5196 36 53.2652 36 53V49C36 48.7348 35.8946 48.4804 35.7071 48.2929C35.5196 48.1054 35.2652 48 35 48H30V46H36V44H33V42.08C34.6649 42.3191 36.1877 43.1504 37.2893 44.4214C38.3908 45.6925 38.9972 47.3181 38.9972 49C38.9972 50.6819 38.3908 52.3075 37.2893 53.5786C36.1877 54.8496 34.6649 55.6809 33 55.92ZM13.917 56C13.7071 54.7723 13.1214 53.64 12.2407 52.7593C11.36 51.8786 10.2277 51.2929 9 51.083V46.917C10.2277 46.7071 11.36 46.1214 12.2407 45.2407C13.1214 44.36 13.7071 43.2277 13.917 42H26.356C25.3084 42.8413 24.4631 43.907 23.8822 45.1185C23.3013 46.33 22.9998 47.6564 22.9998 49C22.9998 50.3436 23.3013 51.67 23.8822 52.8815C24.4631 54.093 25.3084 55.1587 26.356 56H13.917ZM55 51.083C53.7723 51.2929 52.64 51.8786 51.7593 52.7593C50.8786 53.64 50.2929 54.7723 50.083 56H37.644C38.6916 55.1587 39.5369 54.093 40.1178 52.8815C40.6987 51.67 41.0002 50.3436 41.0002 49C41.0002 47.6564 40.6987 46.33 40.1178 45.1185C39.5369 43.907 38.6916 42.8413 37.644 42H50.083C50.2929 43.2277 50.8786 44.36 51.7593 45.2407C52.64 46.1214 53.7723 46.7071 55 46.917V51.083Z" fill="#569AA9"/>
</svg>
