<svg width="30" height="30" viewBox="0 0 30 30" fill="none" xmlns="http://www.w3.org/2000/svg">
<path d="M3.75 6.25C3.75 4.86929 4.86929 3.75 6.25 3.75H10.3491C10.8871 3.75 11.3648 4.09429 11.5349 4.60472L13.4072 10.2215C13.6039 10.8117 13.3367 11.4566 12.7803 11.7348L9.95876 13.1456C11.3366 16.2015 13.7985 18.6634 16.8544 20.0412L18.2652 17.2197C18.5434 16.6633 19.1883 16.3961 19.7785 16.5928L25.3953 18.4651C25.9057 18.6352 26.25 19.1129 26.25 19.6509V23.75C26.25 25.1307 25.1307 26.25 23.75 26.25H22.5C12.1447 26.25 3.75 17.8553 3.75 7.5V6.25Z" stroke="#111827" stroke-width="2" stroke-linecap="round" stroke-linejoin="round"/>
</svg>
