<svg width="61" height="60" viewBox="0 0 61 60" fill="none" xmlns="http://www.w3.org/2000/svg">
<path d="M40.0026 12.8427V6.4375C40.0026 5.52582 39.6404 4.65148 38.9958 4.00682C38.3511 3.36216 37.4768 3 36.5651 3H6.77344C5.86176 3 4.98741 3.36216 4.34276 4.00682C3.6981 4.65148 3.33594 5.52582 3.33594 6.4375L3.33594 47.6875C3.33594 48.5992 3.6981 49.4735 4.34276 50.1182C4.98741 50.7628 5.86176 51.125 6.77344 51.125H10.2109V54.5625C10.2109 55.4742 10.5731 56.3485 11.2178 56.9932C11.8624 57.6378 12.7368 58 13.6484 58H43.4401C44.3518 58 45.2261 57.6378 45.8708 56.9932C46.5154 56.3485 46.8776 55.4742 46.8776 54.5625V21.1385C46.8776 19.2479 46.1786 19.0417 40.0026 12.8427ZM37.7109 13.7823L42.9703 19.0417H37.7109V13.7823ZM6.77344 48.8333C6.46954 48.8333 6.1781 48.7126 5.96321 48.4977C5.74833 48.2828 5.6276 47.9914 5.6276 47.6875V6.4375C5.6276 6.13361 5.74833 5.84216 5.96321 5.62727C6.1781 5.41239 6.46954 5.29167 6.77344 5.29167H36.5651C36.869 5.29167 37.1604 5.41239 37.3753 5.62727C37.5902 5.84216 37.7109 6.13361 37.7109 6.4375V10.6083C36.4047 9.58854 37.2526 9.875 13.6484 9.875C12.7368 9.875 11.8624 10.2372 11.2178 10.8818C10.5731 11.5265 10.2109 12.4008 10.2109 13.3125V48.8333H6.77344ZM44.5859 54.5625C44.5859 54.8664 44.4652 55.1578 44.2503 55.3727C44.0354 55.5876 43.744 55.7083 43.4401 55.7083H13.6484C13.3445 55.7083 13.0531 55.5876 12.8382 55.3727C12.6233 55.1578 12.5026 54.8664 12.5026 54.5625V13.3125C12.5026 13.0086 12.6233 12.7172 12.8382 12.5023C13.0531 12.2874 13.3445 12.1667 13.6484 12.1667H35.4193V20.1875C35.4193 20.4914 35.54 20.7828 35.7549 20.9977C35.9698 21.2126 36.2612 21.3333 36.5651 21.3333H44.5859V54.5625ZM57.1901 17.6438V15.6042C57.1901 14.6925 56.8279 13.8181 56.1833 13.1735C55.5386 12.5288 54.6643 12.1667 53.7526 12.1667C52.8409 12.1667 51.9666 12.5288 51.3219 13.1735C50.6773 13.8181 50.3151 14.6925 50.3151 15.6042V17.6438C48.8026 19.0073 49.1693 17.6438 49.1693 49.9792C49.1937 50.1549 49.2359 50.3276 49.2953 50.4948C52.9964 57.8969 52.8016 58 53.7526 58C54.7036 58 54.5089 57.8969 58.2099 50.4948C58.2693 50.3276 58.3115 50.1549 58.3359 49.9792C58.3359 17.7698 58.7255 19.0417 57.1901 17.6438ZM51.4609 28.2083H56.0443V48.8333H51.4609V28.2083ZM51.4609 20.1875C51.4609 19.8836 51.5817 19.5922 51.7965 19.3773C52.0114 19.1624 52.3029 19.0417 52.6068 19.0417H54.8984C55.2023 19.0417 55.4938 19.1624 55.7087 19.3773C55.9236 19.5922 56.0443 19.8836 56.0443 20.1875V21.3333H51.4609V20.1875ZM51.4609 23.625H56.0443V25.9167H51.4609V23.625ZM52.6068 15.6042C52.6068 15.3003 52.7275 15.0088 52.9424 14.7939C53.1573 14.5791 53.4487 14.4583 53.7526 14.4583C54.0565 14.4583 54.3479 14.5791 54.5628 14.7939C54.7777 15.0088 54.8984 15.3003 54.8984 15.6042V16.75H52.6068V15.6042ZM53.7526 54.2875L52.1714 51.125H55.3339L53.7526 54.2875Z" fill="white"/>
<path d="M42.0003 32.4561C42.2152 32.2412 42.3359 31.9497 42.3359 31.6458C42.3359 31.3419 42.2152 31.0505 42.0003 30.8356C41.7854 30.6207 41.494 30.5 41.1901 30.5L21.7109 30.5C21.407 30.5 21.1156 30.6207 20.9007 30.8356C20.6858 31.0505 20.5651 31.3419 20.5651 31.6458C20.5651 31.9497 20.6858 32.2412 20.9007 32.4561C21.1156 32.6709 21.407 32.7917 21.7109 32.7917L41.1901 32.7917C41.494 32.7917 41.7854 32.6709 42.0003 32.4561Z" fill="white"/>
<path d="M40.0003 38.1826C40.2152 37.9677 40.3359 37.6763 40.3359 37.3724C40.3359 37.0685 40.2152 36.7771 40.0003 36.5622C39.7854 36.3473 39.494 36.2266 39.1901 36.2266L23.1484 36.2266C22.8445 36.2266 22.5531 36.3473 22.3382 36.5622C22.1233 36.7771 22.0026 37.0685 22.0026 37.3724C22.0026 37.6763 22.1233 37.9677 22.3382 38.1826C22.5531 38.3975 22.8445 38.5182 23.1484 38.5182L39.1901 38.5182C39.494 38.5182 39.7854 38.3975 40.0003 38.1826Z" fill="white"/>
<path d="M38.0003 43.917C38.2152 43.7021 38.3359 43.4107 38.3359 43.1068C38.3359 42.8029 38.2152 42.5114 38.0003 42.2965C37.7854 42.0817 37.494 41.9609 37.1901 41.9609L25.7318 41.9609C25.4279 41.9609 25.1364 42.0817 24.9215 42.2965C24.7067 42.5114 24.5859 42.8029 24.5859 43.1068C24.5859 43.4107 24.7067 43.7021 24.9215 43.917C25.1364 44.1319 25.4279 44.2526 25.7318 44.2526L37.1901 44.2526C37.494 44.2526 37.7854 44.1319 38.0003 43.917Z" fill="white"/>
</svg>
