<svg width="61" height="60" viewBox="0 0 61 60" fill="none" xmlns="http://www.w3.org/2000/svg">
<path fill-rule="evenodd" clip-rule="evenodd" d="M2 32.25C2 31.2554 2.39509 30.3016 3.09835 29.5983C3.80161 28.8951 4.75544 28.5 5.75 28.5H55.75C56.7446 28.5 57.6984 28.8951 58.4016 29.5983C59.1049 30.3016 59.5 31.2554 59.5 32.25V44.75C59.5 48.3967 58.0513 51.8941 55.4727 54.4727C52.8941 57.0513 49.3967 58.5 45.75 58.5H15.75C12.1033 58.5 8.60591 57.0513 6.02728 54.4727C3.44866 51.8941 2 48.3967 2 44.75V32.25ZM5.75 31C5.41848 31 5.10054 31.1317 4.86612 31.3661C4.6317 31.6005 4.5 31.9185 4.5 32.25V44.75C4.5 47.7337 5.68526 50.5952 7.79505 52.705C9.90483 54.8147 12.7663 56 15.75 56H45.75C48.7337 56 51.5952 54.8147 53.7049 52.705C55.8147 50.5952 57 47.7337 57 44.75V32.25C57 31.9185 56.8683 31.6005 56.6339 31.3661C56.3995 31.1317 56.0815 31 55.75 31H5.75Z" fill="#333333"/>
<path fill-rule="evenodd" clip-rule="evenodd" d="M20.4742 1.74563C20.9514 1.6094 21.4509 1.56924 21.9438 1.62747C22.4366 1.68571 22.9129 1.84119 23.3452 2.08489C23.7775 2.3286 24.1572 2.65568 24.4621 3.04718C24.7671 3.43869 24.9913 3.88683 25.1217 4.36563L31.9542 29.4231C32.005 29.6086 32.0123 29.8032 31.9756 29.9919C31.9389 30.1806 31.8591 30.3583 31.7425 30.5112C31.6259 30.664 31.4757 30.7879 31.3034 30.8733C31.1311 30.9586 30.9415 31.003 30.7492 31.0031H10.7492C10.4651 31.0031 10.1894 30.9063 9.96758 30.7286C9.74581 30.5509 9.5912 30.303 9.52925 30.0256L5.03925 9.82563C4.83093 8.8921 4.98721 7.91426 5.4761 7.09215C5.96499 6.27005 6.74955 5.66584 7.66925 5.40313L20.4742 1.74563ZM22.7092 5.02313C22.6659 4.86329 22.5913 4.71364 22.4897 4.58289C22.388 4.45214 22.2614 4.34288 22.1172 4.26147C21.973 4.18006 21.8141 4.12812 21.6496 4.10866C21.4852 4.08921 21.3185 4.10262 21.1592 4.14813L8.35925 7.80813C8.05189 7.89501 7.78945 8.09625 7.6258 8.37055C7.46215 8.64485 7.40971 8.97138 7.47925 9.28313L11.7542 28.5031H29.1117L22.7092 5.02313ZM46.4067 13.9381C46.2237 13.8532 46.0228 13.8138 45.8212 13.8234C45.6197 13.833 45.4234 13.8912 45.2492 13.9931L43.4217 15.0581C42.9341 15.3425 42.3886 15.5131 41.8259 15.5573C41.2632 15.6014 40.6977 15.518 40.1717 15.3131L39.9892 15.2431C39.7724 15.1589 39.5364 15.1368 39.3077 15.1793C39.079 15.2219 38.8667 15.3275 38.6947 15.4841C38.5227 15.6408 38.3979 15.8423 38.3342 16.0661C38.2705 16.2898 38.2705 16.5269 38.3342 16.7506L41.6917 28.5006H49.8067L53.2967 16.2831C53.3405 16.1309 53.3394 15.9693 53.2938 15.8177C53.2481 15.666 53.1598 15.5307 53.0393 15.4279C52.9189 15.3251 52.7713 15.2591 52.6144 15.2379C52.4575 15.2166 52.2977 15.241 52.1542 15.3081C51.7143 15.5133 51.2347 15.6196 50.7492 15.6196C50.2638 15.6196 49.7842 15.5133 49.3442 15.3081L46.4067 13.9381ZM43.9892 11.8331C44.5125 11.5277 45.1019 11.3537 45.7071 11.3258C46.3123 11.2979 46.9152 11.4171 47.4642 11.6731L50.3992 13.0431C50.5088 13.0944 50.6283 13.121 50.7492 13.121C50.8702 13.121 50.9897 13.0944 51.0992 13.0431C53.6817 11.8381 56.4842 14.2306 55.6992 16.9681L51.9492 30.0956C51.8749 30.3567 51.7176 30.5864 51.5011 30.7501C51.2846 30.9139 51.0207 31.0027 50.7492 31.0031H40.7492C40.4778 31.0027 40.2139 30.9139 39.9974 30.7501C39.7809 30.5864 39.6236 30.3567 39.5492 30.0956L35.9317 17.4381C35.0792 14.4581 38.0067 11.7881 40.8967 12.9131L41.0792 12.9831C41.2545 13.0513 41.4428 13.079 41.6302 13.0643C41.8176 13.0496 41.9993 12.9928 42.1617 12.8981L43.9867 11.8331H43.9892Z" fill="#333333"/>
<path fill-rule="evenodd" clip-rule="evenodd" d="M39.5 4.75C39.5 3.75544 39.8951 2.80161 40.5983 2.09835C41.3016 1.39509 42.2554 1 43.25 1C44.2446 1 45.1984 1.39509 45.9016 2.09835C46.6049 2.80161 47 3.75544 47 4.75V12.25C47 12.5815 46.8683 12.8995 46.6339 13.1339C46.3995 13.3683 46.0815 13.5 45.75 13.5C45.4185 13.5 45.1005 13.3683 44.8661 13.1339C44.6317 12.8995 44.5 12.5815 44.5 12.25V4.75C44.5 4.41848 44.3683 4.10054 44.1339 3.86612C43.8995 3.6317 43.5815 3.5 43.25 3.5C42.9185 3.5 42.6005 3.6317 42.3661 3.86612C42.1317 4.10054 42 4.41848 42 4.75V7.25C42 7.58152 41.8683 7.89946 41.6339 8.13388C41.3995 8.3683 41.0815 8.5 40.75 8.5C40.4185 8.5 40.1005 8.3683 39.8661 8.13388C39.6317 7.89946 39.5 7.58152 39.5 7.25V4.75ZM19.4625 8.1975C19.5426 8.51907 19.4918 8.8593 19.3211 9.1434C19.1505 9.42749 18.874 9.63219 18.5525 9.7125L13.5525 10.9625C13.234 11.0342 12.9 10.9784 12.6221 10.807C12.3441 10.6357 12.1443 10.3624 12.0653 10.0456C11.9862 9.72878 12.0343 9.39363 12.1991 9.1118C12.364 8.82998 12.6326 8.62385 12.9475 8.5375L17.9475 7.2875C18.2691 7.20737 18.6093 7.25821 18.8934 7.42885C19.1775 7.5995 19.3822 7.87597 19.4625 8.1975ZM30.75 36C30.087 36 29.4511 36.2634 28.9822 36.7322C28.5134 37.2011 28.25 37.837 28.25 38.5C28.25 38.8315 28.1183 39.1495 27.8839 39.3839C27.6495 39.6183 27.3315 39.75 27 39.75C26.6685 39.75 26.3505 39.6183 26.1161 39.3839C25.8817 39.1495 25.75 38.8315 25.75 38.5C25.7502 37.5649 26.0127 36.6486 26.5076 35.8551C27.0025 35.0617 27.7099 34.423 28.5496 34.0115C29.3893 33.5999 30.3276 33.4321 31.2579 33.5271C32.1882 33.6221 33.0732 33.9761 33.8124 34.5488C34.5516 35.1215 35.1153 35.8901 35.4397 36.7672C35.764 37.6442 35.8358 38.5947 35.6471 39.5105C35.4583 40.4264 35.0165 41.271 34.3718 41.9484C33.7271 42.6257 32.9054 43.1087 32 43.3425V47.25C32 47.5815 31.8683 47.8995 31.6339 48.1339C31.3995 48.3683 31.0815 48.5 30.75 48.5C30.4185 48.5 30.1005 48.3683 29.8661 48.1339C29.6317 47.8995 29.5 47.5815 29.5 47.25V42.25C29.5 41.9185 29.6317 41.6005 29.8661 41.3661C30.1005 41.1317 30.4185 41 30.75 41C31.413 41 32.0489 40.7366 32.5178 40.2678C32.9866 39.7989 33.25 39.163 33.25 38.5C33.25 37.837 32.9866 37.2011 32.5178 36.7322C32.0489 36.2634 31.413 36 30.75 36ZM30.75 49.75C31.0815 49.75 31.3995 49.8817 31.6339 50.1161C31.8683 50.3505 32 50.6685 32 51V52.25C32 52.5815 31.8683 52.8995 31.6339 53.1339C31.3995 53.3683 31.0815 53.5 30.75 53.5C30.4185 53.5 30.1005 53.3683 29.8661 53.1339C29.6317 52.8995 29.5 52.5815 29.5 52.25V51C29.5 50.6685 29.6317 50.3505 29.8661 50.1161C30.1005 49.8817 30.4185 49.75 30.75 49.75ZM10.75 33.5C11.0815 33.5 11.3995 33.6317 11.6339 33.8661C11.8683 34.1005 12 34.4185 12 34.75V47.25C12 47.5815 11.8683 47.8995 11.6339 48.1339C11.3995 48.3683 11.0815 48.5 10.75 48.5C10.4185 48.5 10.1005 48.3683 9.86612 48.1339C9.6317 47.8995 9.5 47.5815 9.5 47.25V34.75C9.5 34.4185 9.6317 34.1005 9.86612 33.8661C10.1005 33.6317 10.4185 33.5 10.75 33.5ZM50.75 33.5C51.0815 33.5 51.3995 33.6317 51.6339 33.8661C51.8683 34.1005 52 34.4185 52 34.75V47.25C52 47.5815 51.8683 47.8995 51.6339 48.1339C51.3995 48.3683 51.0815 48.5 50.75 48.5C50.4185 48.5 50.1005 48.3683 49.8661 48.1339C49.6317 47.8995 49.5 47.5815 49.5 47.25V34.75C49.5 34.4185 49.6317 34.1005 49.8661 33.8661C50.1005 33.6317 50.4185 33.5 50.75 33.5Z" fill="#333333"/>
</svg>
