<svg width="61" height="60" viewBox="0 0 61 60" fill="none" xmlns="http://www.w3.org/2000/svg">
<g clip-path="url(#clip0_2048_256810)">
<path d="M41 10.7375V3.75C41 2.75544 40.6049 1.80161 39.9017 1.09835C39.1984 0.395088 38.2446 0 37.25 0L4.75 0C3.75544 0 2.80161 0.395088 2.09835 1.09835C1.39509 1.80161 1 2.75544 1 3.75L1 48.75C1 49.7446 1.39509 50.6984 2.09835 51.4016C2.80161 52.1049 3.75544 52.5 4.75 52.5H8.5V56.25C8.5 57.2446 8.89509 58.1984 9.59835 58.9016C10.3016 59.6049 11.2554 60 12.25 60H44.75C45.7446 60 46.6984 59.6049 47.4017 58.9016C48.1049 58.1984 48.5 57.2446 48.5 56.25V19.7875C48.5 17.725 47.7375 17.5 41 10.7375ZM38.5 11.7625L44.2375 17.5H38.5V11.7625ZM4.75 50C4.41848 50 4.10054 49.8683 3.86612 49.6339C3.6317 49.3995 3.5 49.0815 3.5 48.75V3.75C3.5 3.41848 3.6317 3.10054 3.86612 2.86612C4.10054 2.6317 4.41848 2.5 4.75 2.5H37.25C37.5815 2.5 37.8995 2.6317 38.1339 2.86612C38.3683 3.10054 38.5 3.41848 38.5 3.75V8.3C37.075 7.1875 38 7.5 12.25 7.5C11.2554 7.5 10.3016 7.89509 9.59835 8.59835C8.89509 9.30161 8.5 10.2554 8.5 11.25V50H4.75ZM46 56.25C46 56.5815 45.8683 56.8995 45.6339 57.1339C45.3995 57.3683 45.0815 57.5 44.75 57.5H12.25C11.9185 57.5 11.6005 57.3683 11.3661 57.1339C11.1317 56.8995 11 56.5815 11 56.25V11.25C11 10.9185 11.1317 10.6005 11.3661 10.3661C11.6005 10.1317 11.9185 10 12.25 10H36V18.75C36 19.0815 36.1317 19.3995 36.3661 19.6339C36.6005 19.8683 36.9185 20 37.25 20H46V56.25ZM59.75 15.975V13.75C59.75 12.7554 59.3549 11.8016 58.6517 11.0983C57.9484 10.3951 56.9946 10 56 10C55.0054 10 54.0516 10.3951 53.3484 11.0983C52.6451 11.8016 52.25 12.7554 52.25 13.75V15.975C50.6 17.4625 51 15.975 51 51.25C51.0266 51.4417 51.0727 51.6302 51.1375 51.8125C55.175 59.8875 54.9625 60 56 60C57.0375 60 56.825 59.8875 60.8625 51.8125C60.9273 51.6302 60.9734 51.4417 61 51.25C61 16.1125 61.425 17.5 59.75 15.975ZM53.5 27.5H58.5V50H53.5V27.5ZM53.5 18.75C53.5 18.4185 53.6317 18.1005 53.8661 17.8661C54.1005 17.6317 54.4185 17.5 54.75 17.5H57.25C57.5815 17.5 57.8995 17.6317 58.1339 17.8661C58.3683 18.1005 58.5 18.4185 58.5 18.75V20H53.5V18.75ZM53.5 22.5H58.5V25H53.5V22.5ZM54.75 13.75C54.75 13.4185 54.8817 13.1005 55.1161 12.8661C55.3505 12.6317 55.6685 12.5 56 12.5C56.3315 12.5 56.6495 12.6317 56.8839 12.8661C57.1183 13.1005 57.25 13.4185 57.25 13.75V15H54.75V13.75ZM56 55.95L54.275 52.5H57.725L56 55.95Z" fill="#333333"/>
<path d="M41.0506 32.1339C41.2851 31.8995 41.4167 31.5815 41.4167 31.25C41.4167 30.9185 41.2851 30.6005 41.0506 30.3661C40.8162 30.1317 40.4983 30 40.1667 30L18.9167 30C18.5852 30 18.2673 30.1317 18.0329 30.3661C17.7984 30.6005 17.6667 30.9185 17.6667 31.25C17.6667 31.5815 17.7984 31.8995 18.0329 32.1339C18.2673 32.3683 18.5852 32.5 18.9167 32.5L40.1667 32.5C40.4983 32.5 40.8162 32.3683 41.0506 32.1339Z" fill="#333333"/>
<path d="M37.3006 38.3839C37.5351 38.1495 37.6667 37.8315 37.6667 37.5C37.6667 37.1685 37.5351 36.8505 37.3006 36.6161C37.0662 36.3817 36.7483 36.25 36.4167 36.25L18.9167 36.25C18.5852 36.25 18.2673 36.3817 18.0329 36.6161C17.7984 36.8505 17.6667 37.1685 17.6667 37.5C17.6667 37.8315 17.7984 38.1495 18.0329 38.3839C18.2673 38.6183 18.5852 38.75 18.9167 38.75L36.4167 38.75C36.7483 38.75 37.0662 38.6183 37.3006 38.3839Z" fill="#333333"/>
<path d="M32.3006 44.6339C32.5351 44.3995 32.6667 44.0815 32.6667 43.75C32.6667 43.4185 32.5351 43.1005 32.3006 42.8661C32.0662 42.6317 31.7483 42.5 31.4167 42.5L18.9167 42.5C18.5852 42.5 18.2673 42.6317 18.0329 42.8661C17.7984 43.1005 17.6667 43.4185 17.6667 43.75C17.6667 44.0815 17.7984 44.3995 18.0329 44.6339C18.2673 44.8683 18.5852 45 18.9167 45L31.4167 45C31.7483 45 32.0662 44.8683 32.3006 44.6339Z" fill="#333333"/>
</g>
<defs>
<clipPath id="clip0_2048_256810">
<rect width="60" height="60" fill="white" transform="translate(0.666748)"/>
</clipPath>
</defs>
</svg>
