<svg width="60" height="60" viewBox="0 0 60 60" fill="none" xmlns="http://www.w3.org/2000/svg">
<path d="M58.1312 22.3906C57.6147 22.9268 57.0601 23.425 56.4719 23.8812V37.3438L50.5469 27.1062C50.4455 26.9216 50.3158 26.7539 50.1625 26.6094C49.9295 26.3611 49.6476 26.1638 49.3346 26.0299C49.0216 25.896 48.6842 25.8284 48.3437 25.8312C47.9709 25.8331 47.6031 25.9182 47.2674 26.0804C46.9316 26.2426 46.6363 26.4778 46.4031 26.7687C46.302 26.8837 46.214 27.0094 46.1406 27.1438L40.4687 36.8844L36.9719 30.8375C36.748 30.4501 36.4261 30.1284 36.0386 29.9048C35.651 29.6812 35.2115 29.5635 34.7641 29.5635C34.3166 29.5635 33.8771 29.6812 33.4895 29.9048C33.102 30.1284 32.7801 30.4501 32.5562 30.8375L23.8187 46.0156C16.0469 45.0781 9.33437 47.0469 4.42187 48.4906L3.8125 48.6687V18.5469C3.8125 18.2982 3.91127 18.0598 4.08709 17.884C4.2629 17.7081 4.50136 17.6094 4.75 17.6094H34.4594C34.3469 17.3281 34.2531 17.0375 34.1594 16.7469C33.9548 16.1101 33.8012 15.458 33.7 14.7969H4.75C3.75544 14.7969 2.80161 15.192 2.09835 15.8952C1.39509 16.5985 1 17.5523 1 18.5469V55.7281C1 56.7227 1.39509 57.6765 2.09835 58.3798C2.80161 59.083 3.75544 59.4781 4.75 59.4781H55.525C56.5196 59.4781 57.4734 59.083 58.1766 58.3798C58.8799 57.6765 59.275 56.7227 59.275 55.7281V21.0406C58.9223 21.514 58.5403 21.9649 58.1312 22.3906ZM56.4625 55.7281C56.4625 55.9768 56.3637 56.2152 56.1879 56.391C56.0121 56.5669 55.7736 56.6656 55.525 56.6656H4.75C4.50136 56.6656 4.2629 56.5669 4.08709 56.391C3.91127 56.2152 3.8125 55.9768 3.8125 55.7281V51.5937L5.20937 51.1906C9.89687 49.8125 16.2906 47.9281 23.4906 48.8C23.9886 48.9232 24.5132 48.8811 24.9851 48.6798C25.457 48.4785 25.8505 48.1291 26.1062 47.6844L34.7875 32.6844L38.275 38.675C38.4989 39.0624 38.8208 39.3841 39.2083 39.6077C39.5958 39.8313 40.0354 39.949 40.4828 39.949C40.9302 39.949 41.3698 39.8313 41.7573 39.6077C42.1449 39.3841 42.4667 39.0624 42.6906 38.675L48.3156 28.8969L56.4062 42.8937L56.4625 55.7281Z" fill="#333333"/>
<path d="M17.3328 22.5583C16.0479 22.5583 14.7918 22.9394 13.7233 23.6532C12.6549 24.3671 11.8222 25.3818 11.3305 26.5689C10.8388 27.7561 10.7101 29.0624 10.9608 30.3227C11.2115 31.5829 11.8302 32.7406 12.7388 33.6492C13.6474 34.5578 14.8051 35.1766 16.0653 35.4272C17.3256 35.6779 18.6319 35.5493 19.8191 35.0575C21.0062 34.5658 22.0209 33.7331 22.7348 32.6647C23.4487 31.5963 23.8297 30.3402 23.8297 29.0552C23.8272 27.3329 23.1419 25.6818 21.9241 24.464C20.7062 23.2461 19.0551 22.5608 17.3328 22.5583ZM17.3328 32.7396C16.6041 32.7396 15.8918 32.5235 15.2859 32.1186C14.68 31.7138 14.2078 31.1384 13.9289 30.4651C13.65 29.7919 13.5771 29.0511 13.7192 28.3364C13.8614 27.6217 14.2123 26.9652 14.7276 26.45C15.2428 25.9347 15.8993 25.5838 16.614 25.4416C17.3287 25.2995 18.0695 25.3724 18.7428 25.6513C19.416 25.9301 19.9914 26.4024 20.3963 27.0083C20.8011 27.6142 21.0172 28.3265 21.0172 29.0552C21.0147 30.0316 20.6257 30.9673 19.9353 31.6577C19.2449 32.3481 18.3092 32.7371 17.3328 32.7396ZM41.4641 13.6989C41.7277 13.9623 42.0852 14.1102 42.4578 14.1102C42.8305 14.1102 43.1879 13.9623 43.4516 13.6989L46.3859 10.6802V17.8989C46.3859 18.2719 46.5341 18.6296 46.7978 18.8933C47.0616 19.157 47.4192 19.3052 47.7922 19.3052C48.1652 19.3052 48.5228 19.157 48.7866 18.8933C49.0503 18.6296 49.1984 18.2719 49.1984 17.8989V10.6802L52.1328 13.6989C52.2598 13.8383 52.4134 13.9507 52.5847 14.0294C52.7559 14.1082 52.9413 14.1517 53.1297 14.1575C53.3181 14.1632 53.5057 14.1309 53.6814 14.0627C53.8572 13.9944 54.0173 13.8916 54.1525 13.7602C54.2877 13.6288 54.395 13.4716 54.4682 13.2979C54.5414 13.1242 54.5789 12.9375 54.5786 12.749C54.5782 12.5605 54.5399 12.374 54.466 12.2006C54.3921 12.0272 54.2841 11.8704 54.1484 11.7396L48.8047 6.19895C48.6737 6.06429 48.517 5.95726 48.3439 5.88418C48.1708 5.81109 47.9848 5.77344 47.7969 5.77344C47.609 5.77344 47.423 5.81109 47.2499 5.88418C47.0768 5.95726 46.9201 6.06429 46.7891 6.19895L41.4078 11.7114C41.1518 11.9825 41.0139 12.3441 41.0244 12.7168C41.035 13.0895 41.1931 13.4428 41.4641 13.6989Z" fill="#333333"/>
<path d="M47.8031 24.0438C50.0819 24.0438 52.3096 23.368 54.2043 22.102C56.0991 20.8359 57.5759 19.0365 58.448 16.9311C59.32 14.8258 59.5482 12.5091 59.1036 10.2741C58.659 8.03905 57.5617 5.98605 55.9503 4.37468C54.339 2.76332 52.286 1.66597 50.0509 1.22139C47.8159 0.776821 45.4992 1.00499 43.3939 1.87706C41.2885 2.74912 39.4891 4.22591 38.223 6.12067C36.957 8.01543 36.2812 10.2431 36.2812 12.5219C36.2837 15.5769 37.4984 18.5061 39.6587 20.6663C41.8189 22.8266 44.7481 24.0413 47.8031 24.0438ZM47.8031 3.81251C49.5257 3.81251 51.2095 4.3233 52.6418 5.2803C54.074 6.2373 55.1903 7.59752 55.8495 9.18895C56.5087 10.7804 56.6812 12.5315 56.3452 14.221C56.0091 15.9104 55.1796 17.4623 53.9616 18.6803C52.7436 19.8984 51.1917 20.7279 49.5022 21.0639C47.8128 21.4 46.0616 21.2275 44.4702 20.5683C42.8788 19.9091 41.5185 18.7928 40.5615 17.3606C39.6045 15.9283 39.0938 14.2444 39.0938 12.5219C39.0962 10.2128 40.0146 7.99895 41.6474 6.36616C43.2802 4.73338 45.494 3.81499 47.8031 3.81251Z" fill="#333333"/>
</svg>
