<svg width="64" height="64" viewBox="0 0 64 64" fill="none" xmlns="http://www.w3.org/2000/svg">
<path d="M32 30C34.3734 30 36.6935 29.2962 38.6668 27.9776C40.6402 26.6591 42.1783 24.7849 43.0866 22.5922C43.9948 20.3995 44.2324 17.9867 43.7694 15.6589C43.3064 13.3312 42.1635 11.193 40.4853 9.51472C38.8071 7.83649 36.6689 6.6936 34.3411 6.23058C32.0133 5.76756 29.6005 6.0052 27.4078 6.91345C25.2151 7.8217 23.3409 9.35977 22.0224 11.3332C20.7038 13.3066 20 15.6266 20 18C20.0034 21.1815 21.2688 24.2318 23.5185 26.4815C25.7682 28.7312 28.8185 29.9966 32 30ZM32 8.00001C33.9778 8.00001 35.9112 8.58649 37.5557 9.68531C39.2002 10.7841 40.4819 12.3459 41.2388 14.1732C41.9957 16.0004 42.1937 18.0111 41.8079 19.9509C41.422 21.8907 40.4696 23.6725 39.0711 25.0711C37.6725 26.4696 35.8907 27.422 33.9509 27.8079C32.0111 28.1937 30.0004 27.9957 28.1732 27.2388C26.3459 26.4819 24.7841 25.2002 23.6853 23.5557C22.5865 21.9112 22 19.9778 22 18C22.0029 15.3487 23.0574 12.8069 24.9321 10.9322C26.8069 9.05742 29.3487 8.00292 32 8.00001Z" fill="#FAF7F3"/>
<path d="M32 2C28.1139 2.00094 24.3624 3.4237 21.453 6H12.586L2 16.586V44H27V62H37V44H62V6H42.547C39.6376 3.4237 35.8861 2.00094 32 2ZM32 4C35.5504 3.99788 38.9688 5.34553 41.5626 7.76989C44.1565 10.1942 45.7316 13.514 45.969 17.0564C46.2064 20.5989 45.0883 24.0991 42.8411 26.8479C40.594 29.5967 37.3859 31.3884 33.867 31.86L33 31.977V42H31V31.977L30.133 31.86C26.6141 31.3884 23.406 29.5967 21.1589 26.8479C18.9117 24.0991 17.7936 20.5989 18.031 17.0564C18.2684 13.514 19.8435 10.1942 22.4374 7.76989C25.0312 5.34553 28.4496 3.99788 32 4ZM12 9.414V16H5.414L12 9.414ZM4 42V18H13C13.2652 18 13.5196 17.8946 13.7071 17.7071C13.8946 17.5196 14 17.2652 14 17V8H19.53C17.8006 10.1487 16.6572 12.7088 16.2115 15.4308C15.7657 18.1529 16.0326 20.9439 16.9863 23.5321C17.94 26.1202 19.5479 28.4172 21.6533 30.1991C23.7587 31.9811 26.2898 33.1872 29 33.7V42H4ZM35 60H33V56H31V60H29V44H35V60ZM60 42H35V33.7C37.7102 33.1872 40.2413 31.9811 42.3467 30.1991C44.4521 28.4172 46.06 26.1202 47.0137 23.5321C47.9674 20.9439 48.2343 18.1529 47.7885 15.4308C47.3428 12.7088 46.1994 10.1487 44.47 8H60V42Z" fill="#FAF7F3"/>
<path d="M26 18C26 17.386 26.2 12 32 12V10C25.672 10 24 15.233 24 18H26ZM32 26C32.08 26 40 25.9 40 17H38C38 23.871 32.241 24 32 24V26Z" fill="#FAF7F3"/>
</svg>
