<svg width="65" height="65" viewBox="0 0 65 65" fill="none" xmlns="http://www.w3.org/2000/svg">
<path d="M1.33333 64.5H33.3333C34.0667 64.5 34.6667 63.9 34.6667 63.1667V55.3C34.6667 55.2467 34.6933 55.2067 34.6933 55.1667C34.6933 55.1267 34.6667 55.0867 34.6667 55.0333V17.8333C34.6667 17.1 34.0667 16.5 33.3333 16.5H25.3333V9.83333C25.3333 9.1 24.7333 8.5 24 8.5H18.6667V3.16667H26.2267L31.2 6.9C31.44 7.08667 31.72 7.16667 32 7.16667C32.4 7.16667 32.8 6.98 33.0667 6.63333C33.5067 6.04667 33.3867 5.20667 32.8 4.76667L27.4667 0.766666C27.24 0.593333 26.96 0.5 26.6667 0.5H10.6133C9.88 0.5 9.28 1.1 9.28 1.83333C9.28 2.56667 9.88 3.16667 10.6133 3.16667H16V8.5H10.6667C9.93333 8.5 9.33333 9.1 9.33333 9.83333V16.5H1.33333C0.6 16.5 0 17.1 0 17.8333V63.1667C0 63.9 0.6 64.5 1.33333 64.5ZM12 11.1667H17.2C17.2533 11.1667 17.2933 11.1933 17.3333 11.1933C17.3733 11.1933 17.4267 11.1667 17.4667 11.1667H22.6667V16.5H12V11.1667ZM2.66667 19.1667H10.6667H24H32V53.8333H2.66667V19.1667ZM2.66667 56.5H32V61.8333H2.66667V56.5ZM41.3333 64.5H57.3333C58.0667 64.5 58.6667 63.9 58.6667 63.1667V53.9L64 1.96667C64.04 1.59333 63.92 1.22 63.6667 0.94C63.4133 0.66 63.04 0.5 62.6667 0.5H36C35.6267 0.5 35.2667 0.66 35.0133 0.94C34.76 1.22 34.64 1.59333 34.6667 1.96667L40 53.9V63.1667C40 63.9 40.6 64.5 41.3333 64.5ZM56 61.8333H42.6667V55.1667H56V61.8333ZM56.1333 52.5H42.5333L40.7467 35.1267C40.8 35.14 40.8533 35.1667 40.9067 35.1667H57.7333C57.7867 35.1667 57.84 35.14 57.8933 35.1267L56.1333 52.5ZM37.48 3.16667H40V5.83333C40 6.56667 40.6 7.16667 41.3333 7.16667C42.0667 7.16667 42.6667 6.56667 42.6667 5.83333V3.16667H45.3333V5.83333C45.3333 6.56667 45.9333 7.16667 46.6667 7.16667C47.4 7.16667 48 6.56667 48 5.83333V3.16667H50.6667V5.83333C50.6667 6.56667 51.2667 7.16667 52 7.16667C52.7333 7.16667 53.3333 6.56667 53.3333 5.83333V3.16667H56V5.83333C56 6.56667 56.6 7.16667 57.3333 7.16667C58.0667 7.16667 58.6667 6.56667 58.6667 5.83333V3.16667H61.1867L59.2667 21.8333H39.3867L37.48 3.16667ZM39.6667 24.5H59L58.1733 32.58C58.04 32.54 57.8933 32.5 57.7467 32.5H40.92C40.7733 32.5 40.6267 32.54 40.4933 32.58L39.6667 24.5Z" fill="#333333"/>
</svg>
