<svg width="70" height="45" viewBox="0 0 70 45" fill="none" xmlns="http://www.w3.org/2000/svg">
<path d="M68.7162 27.33C68.7349 27.2209 68.7462 27.1106 68.75 27V23.25C68.7487 21.9243 68.2215 20.6533 67.2841 19.7159C66.3467 18.7785 65.0757 18.2513 63.75 18.25H61.25V3.25C61.2493 2.58716 60.9857 1.95166 60.517 1.48296C60.0483 1.01427 59.4128 0.750662 58.75 0.75H11.25C10.5872 0.750662 9.95166 1.01427 9.48296 1.48296C9.01427 1.95166 8.75066 2.58716 8.75 3.25V18.25H6.25C4.92432 18.2513 3.65332 18.7785 2.71593 19.7159C1.77853 20.6533 1.25132 21.9243 1.25 23.25V27C1.25381 27.1106 1.26508 27.2209 1.28375 27.33C0.896088 27.5448 0.572751 27.8592 0.34709 28.2406C0.121428 28.6221 0.00161211 29.0568 0 29.5V39.5C0.00357908 39.7476 0.0444549 39.9933 0.12125 40.2288C0.0431438 40.3915 0.00175136 40.5695 0 40.75V43.25C0 43.5815 0.131696 43.8995 0.366117 44.1339C0.600537 44.3683 0.918479 44.5 1.25 44.5C1.58152 44.5 1.89946 44.3683 2.13388 44.1339C2.3683 43.8995 2.5 43.5815 2.5 43.25V42H67.5V43.25C67.5 43.5815 67.6317 43.8995 67.8661 44.1339C68.1005 44.3683 68.4185 44.5 68.75 44.5C69.0815 44.5 69.3995 44.3683 69.6339 44.1339C69.8683 43.8995 70 43.5815 70 43.25V40.75C69.9983 40.5695 69.9569 40.3915 69.8788 40.2288C69.9555 39.9933 69.9964 39.7476 70 39.5V29.5C69.9984 29.0568 69.8786 28.6221 69.6529 28.2406C69.4272 27.8592 69.1039 27.5448 68.7162 27.33ZM11.25 3.25H58.75V18.25H53.6875C53.7802 17.7959 53.7707 17.3269 53.6598 16.8769C53.5488 16.4269 53.3392 16.0073 53.0461 15.6483C52.7529 15.2894 52.3836 15.0001 51.9649 14.8015C51.5461 14.6029 51.0884 14.4999 50.625 14.5H39.375C38.9116 14.4999 38.4539 14.6029 38.0351 14.8015C37.6164 15.0001 37.2471 15.2894 36.9539 15.6483C36.6608 16.0073 36.4512 16.4269 36.3402 16.8769C36.2293 17.3269 36.2198 17.7959 36.3125 18.25H32.4375C32.5302 17.7959 32.5207 17.3269 32.4098 16.8769C32.2988 16.4269 32.0892 16.0073 31.7961 15.6483C31.5029 15.2894 31.1336 15.0001 30.7149 14.8015C30.2961 14.6029 29.8384 14.4999 29.375 14.5H18.125C17.6616 14.4999 17.2039 14.6029 16.7851 14.8015C16.3664 15.0001 15.9971 15.2894 15.7039 15.6483C15.4108 16.0073 15.2012 16.4269 15.0902 16.8769C14.9793 17.3269 14.9698 17.7959 15.0625 18.25H11.25V3.25ZM38.75 17.625C38.75 17.4592 38.8158 17.3003 38.9331 17.1831C39.0503 17.0658 39.2092 17 39.375 17H50.625C50.7908 17 50.9497 17.0658 51.0669 17.1831C51.1842 17.3003 51.25 17.4592 51.25 17.625C51.25 17.7908 51.1842 17.9497 51.0669 18.0669C50.9497 18.1842 50.7908 18.25 50.625 18.25H39.375C39.2092 18.25 39.0503 18.1842 38.9331 18.0669C38.8158 17.9497 38.75 17.7908 38.75 17.625ZM17.5 17.625C17.5 17.4592 17.5658 17.3003 17.6831 17.1831C17.8003 17.0658 17.9592 17 18.125 17H29.375C29.5408 17 29.6997 17.0658 29.8169 17.1831C29.9342 17.3003 30 17.4592 30 17.625C30 17.7908 29.9342 17.9497 29.8169 18.0669C29.6997 18.1842 29.5408 18.25 29.375 18.25H18.125C17.9592 18.25 17.8003 18.1842 17.6831 18.0669C17.5658 17.9497 17.5 17.7908 17.5 17.625ZM3.75 23.25C3.75066 22.5872 4.01427 21.9517 4.48296 21.483C4.95166 21.0143 5.58716 20.7507 6.25 20.75H63.75C64.4128 20.7507 65.0483 21.0143 65.517 21.483C65.9857 21.9517 66.2493 22.5872 66.25 23.25L66.2513 27H3.75V23.25ZM2.5 39.5V29.5H67.5L67.5013 39.5H2.5Z" fill="#333333"/>
</svg>
