<svg width="13" height="12" viewBox="0 0 13 12" fill="none" xmlns="http://www.w3.org/2000/svg">
<path fill-rule="evenodd" clip-rule="evenodd" d="M10.4255 0H2.13029C0.956208 0 0 0.960242 0 2.13029V7.28655C0 8.46063 0.960243 9.41683 2.13029 9.41683H5.05943L5.56376 10.2883L6.06002 11.1477C6.14878 11.305 6.37472 11.305 6.46752 11.1477L6.96378 10.2883L7.46811 9.41683H10.4295C11.6036 9.41683 12.5598 8.45659 12.5598 7.28655V2.13432C12.5598 0.960243 11.5996 0 10.4255 0ZM6.85729 3.77539C6.21578 3.77539 5.69531 4.28779 5.69531 4.92123C5.69531 5.55466 6.21578 6.06706 6.85729 6.06706C7.49879 6.06706 8.01926 5.55466 8.01926 4.92123C8.01926 4.28779 7.50283 3.77539 6.85729 3.77539ZM6.85729 5.46994C6.55065 5.46994 6.30051 5.22382 6.30051 4.92123C6.30051 4.61863 6.55065 4.37252 6.85729 4.37252C7.16392 4.37252 7.41407 4.61863 7.41407 4.92123C7.41407 5.22382 7.16795 5.46994 6.85729 5.46994ZM2.51662 4.03822C2.69817 3.8728 2.93218 3.77597 3.18233 3.77597C3.76332 3.77597 4.2273 4.2924 4.2273 4.92584C4.2273 5.55928 3.75928 6.07168 3.18233 6.07168C2.92815 6.07168 2.69817 5.97081 2.51662 5.80943V6.01519H1.87107V3.09008H2.51662V4.03822ZM2.52065 5.14774C2.60941 5.35351 2.81518 5.49472 3.05322 5.49472C3.37599 5.49472 3.63421 5.24054 3.63421 4.9218C3.63421 4.60307 3.37599 4.34888 3.05322 4.34888C2.81518 4.34888 2.60941 4.4901 2.52065 4.69586C2.48837 4.76445 2.47223 4.84111 2.47223 4.9218C2.47223 5.0025 2.49241 5.07915 2.52065 5.14774ZM10.0333 3.82368V4.00524C9.85178 3.86402 9.62584 3.7793 9.38376 3.7793C8.79067 3.7793 8.31055 4.27556 8.31055 4.88479C8.31055 5.49402 8.79067 5.99028 9.38376 5.99028C9.62987 5.99028 9.85581 5.90555 10.0333 5.76434V6.07097C10.0333 6.07097 9.96878 6.37357 9.5169 6.37357V6.94245C9.5169 6.94245 10.0051 6.99893 10.4408 6.56319C10.4408 6.56319 10.6426 6.34936 10.6869 6.06693V3.82368H10.0333ZM9.5048 5.4456C9.17799 5.4456 8.91574 5.19142 8.91574 4.88075C8.91574 4.57009 9.18203 4.3159 9.5048 4.3159C9.73477 4.3159 9.9365 4.44501 10.0333 4.6306C10.0737 4.70726 10.0939 4.79199 10.0939 4.88075C10.0939 4.96951 10.0696 5.05828 10.0333 5.1309C9.9365 5.32053 9.73477 5.4456 9.5048 5.4456ZM4.30078 3.61856V3.03354C4.30078 3.03354 4.72845 2.97706 5.10771 3.4249C5.10771 3.4249 5.2812 3.64277 5.32154 3.93326V3.9494V6.01513H4.65583V3.9494C4.59934 3.65891 4.30078 3.61856 4.30078 3.61856Z" fill="white"/>
</svg>
