<svg width="19" height="18" viewBox="0 0 19 18" fill="none" xmlns="http://www.w3.org/2000/svg">
<path d="M9.5013 0.0429688C9.84648 0.0429688 10.1263 0.322791 10.1263 0.667969V1.5013C10.1263 1.84648 9.84648 2.1263 9.5013 2.1263C9.15612 2.1263 8.8763 1.84648 8.8763 1.5013V0.667969C8.8763 0.322791 9.15612 0.0429688 9.5013 0.0429688Z" fill="#F2C94C"/>
<path fill-rule="evenodd" clip-rule="evenodd" d="M4.70964 9.0013C4.70964 6.35494 6.85494 4.20964 9.5013 4.20964C12.1477 4.20964 14.293 6.35494 14.293 9.0013C14.293 11.6477 12.1477 13.793 9.5013 13.793C6.85494 13.793 4.70964 11.6477 4.70964 9.0013ZM9.5013 5.45964C7.54529 5.45964 5.95964 7.04529 5.95964 9.0013C5.95964 10.9573 7.54529 12.543 9.5013 12.543C11.4573 12.543 13.043 10.9573 13.043 9.0013C13.043 7.04529 11.4573 5.45964 9.5013 5.45964Z" fill="#F2C94C"/>
<path d="M4.0507 2.66682C3.80662 2.42275 3.41089 2.42275 3.16682 2.66682C2.92274 2.9109 2.92274 3.30663 3.16682 3.55071L3.75607 4.13996C4.00015 4.38404 4.39588 4.38404 4.63996 4.13996C4.88403 3.89588 4.88403 3.50016 4.63996 3.25608L4.0507 2.66682Z" fill="#F2C94C"/>
<path d="M18.4596 9.0013C18.4596 9.34648 18.1798 9.6263 17.8346 9.6263H17.0013C16.6561 9.6263 16.3763 9.34648 16.3763 9.0013C16.3763 8.65612 16.6561 8.3763 17.0013 8.3763H17.8346C18.1798 8.3763 18.4596 8.65612 18.4596 9.0013Z" fill="#F2C94C"/>
<path d="M15.8358 3.5507C16.0799 3.30662 16.0799 2.91089 15.8358 2.66682C15.5917 2.42274 15.196 2.42274 14.9519 2.66682L14.3626 3.25607C14.1186 3.50015 14.1186 3.89588 14.3626 4.13996C14.6067 4.38403 15.0024 4.38403 15.2465 4.13996L15.8358 3.5507Z" fill="#F2C94C"/>
<path d="M9.5013 15.8763C9.84648 15.8763 10.1263 16.1561 10.1263 16.5013V17.3346C10.1263 17.6798 9.84648 17.9596 9.5013 17.9596C9.15612 17.9596 8.8763 17.6798 8.8763 17.3346V16.5013C8.8763 16.1561 9.15612 15.8763 9.5013 15.8763Z" fill="#F2C94C"/>
<path d="M15.2466 13.8627C15.0025 13.6186 14.6068 13.6186 14.3627 13.8627C14.1186 14.1067 14.1186 14.5025 14.3627 14.7465L14.952 15.3358C15.196 15.5799 15.5918 15.5799 15.8358 15.3358C16.0799 15.0917 16.0799 14.696 15.8358 14.4519L15.2466 13.8627Z" fill="#F2C94C"/>
<path d="M2.6263 9.0013C2.6263 9.34648 2.34648 9.6263 2.0013 9.6263H1.16797C0.822791 9.6263 0.542969 9.34648 0.542969 9.0013C0.542969 8.65612 0.822791 8.3763 1.16797 8.3763H2.0013C2.34648 8.3763 2.6263 8.65612 2.6263 9.0013Z" fill="#F2C94C"/>
<path d="M4.6399 14.7465C4.88398 14.5025 4.88398 14.1067 4.6399 13.8626C4.39582 13.6186 4.00009 13.6186 3.75602 13.8626L3.16676 14.4519C2.92268 14.696 2.92268 15.0917 3.16676 15.3358C3.41084 15.5799 3.80657 15.5799 4.05064 15.3358L4.6399 14.7465Z" fill="#F2C94C"/>
</svg>
