<svg width="262" height="53" viewBox="0 0 262 53" fill="none" xmlns="http://www.w3.org/2000/svg">
<path d="M102.218 42.4044H77.9766V41.184C79.0072 41.184 79.7839 41.1096 80.3365 40.9756C80.8892 40.8268 81.2924 40.6035 81.5762 40.2612C81.8451 39.904 82.0094 39.4426 82.0841 38.8175C82.1737 38.2073 82.2185 37.3143 82.2185 36.1385V16.3584C82.2185 15.1528 82.099 14.2747 81.8899 13.7389C81.6808 13.1882 81.3074 12.8459 80.7249 12.6971C80.1722 12.5333 79.2462 12.3994 77.9766 12.3696V11.1641H99.8285V18.0402H98.9323C98.7829 17.0281 98.5141 16.2096 98.1705 15.4951C97.827 14.7659 97.3341 14.2152 96.7964 13.7984C96.2288 13.4115 95.5417 13.1138 94.7053 12.9203C93.8689 12.7268 92.898 12.6375 91.7628 12.6375H86.565V25.2289H92.4648C94.0332 25.2289 95.0339 24.8717 95.4222 24.1573C95.8255 23.4429 96.0944 22.5053 96.2437 21.3592H97.1101V31.5395H96.2437C96.2437 30.4828 96.1541 29.6344 95.9599 29.054C95.7658 28.4438 95.482 28.0121 95.1086 27.7889C94.7501 27.521 94.302 27.3722 93.7494 27.3126C93.2117 27.2531 92.4051 27.2233 91.3595 27.2233H86.565V34.799C86.565 36.6297 86.6546 37.9692 86.804 38.7878C86.9683 39.5915 87.3715 40.157 88.0138 40.5142C88.6411 40.8566 89.7165 41.0203 91.1654 41.0203H93.9286C95.482 40.9459 97.2146 40.7673 98.0958 40.4994C98.992 40.2315 99.6791 39.6957 100.157 38.9068C100.635 38.118 100.949 37.0613 101.113 35.4985H102.218V42.4193V42.4044Z" fill="#333333"/>
<path d="M105.879 42.4044V41.184C107.223 41.184 108.239 40.9756 108.911 40.5142C109.583 40.0677 109.927 39.2938 109.927 38.1627V15.6142C109.927 14.6319 109.762 13.9324 109.434 13.4561C109.105 13.0096 108.687 12.6971 108.209 12.5929C107.701 12.4738 106.939 12.3994 105.879 12.3696V11.1641H118.336V12.3696C117.275 12.3994 116.499 12.4738 116.006 12.5929C115.513 12.6971 115.095 12.9947 114.781 13.4561C114.452 13.9175 114.288 14.6319 114.288 15.6142V36.2576C114.288 37.1804 114.363 37.9096 114.527 38.4454C114.676 39.011 114.99 39.4724 115.483 39.8296C115.961 40.2166 116.678 40.4845 117.604 40.6631C118.53 40.8417 119.785 40.931 121.353 40.931C123.101 40.931 124.968 40.7673 125.924 40.4249C126.879 40.0826 127.581 39.5171 128.03 38.7282C128.478 37.9394 128.746 36.8976 128.836 35.4092H130.031V42.4044H105.894H105.879Z" fill="#333333"/>
<path d="M156.274 11.1633V12.2945C155.423 12.3242 154.78 12.5326 154.302 12.9196C153.824 13.3214 153.242 13.9763 152.57 14.914L143.996 26.4189V37.9387C143.996 38.921 144.175 39.6354 144.504 40.1265C144.833 40.573 145.251 40.8707 145.744 40.9749C146.237 41.0791 147.013 41.1535 148.089 41.1833V42.4037H135.587V41.1833C137.051 41.1684 138.096 40.9749 138.724 40.6028C139.351 40.2605 139.665 39.3675 139.665 37.9387V27.1779L130.344 14.3037C129.911 13.6786 129.553 13.2321 129.269 13.0089C128.97 12.7707 128.686 12.6219 128.373 12.5624C128.059 12.4879 127.327 12.4135 126.207 12.2945V11.1633H137.842V12.2945C136.185 12.2945 135.348 12.607 135.348 13.2172C135.348 13.6935 135.841 14.6312 136.842 16.0004L143.07 24.7966L148.925 16.7893C149.09 16.5809 149.299 16.2535 149.627 15.8218C149.956 15.3902 150.195 14.9735 150.374 14.6163C150.553 14.2442 150.643 13.9168 150.643 13.6191C150.643 12.994 150.434 12.607 150.016 12.4731C149.612 12.3391 148.761 12.2796 147.476 12.2796V11.1484H156.289L156.274 11.1633Z" fill="#333333"/>
<path d="M158.946 41.5268L158.02 34.9781H159.08C159.528 36.8237 160.394 38.3864 161.694 39.6962C162.978 40.991 164.517 41.6459 166.324 41.6459C167.519 41.6459 168.594 41.3929 169.565 40.8571C170.506 40.3659 171.283 39.6515 171.821 38.7139C172.373 37.806 172.657 36.779 172.657 35.633C172.657 33.8172 172.105 32.4181 171.029 31.4954C169.954 30.5428 168.251 29.501 165.936 28.3103C163.621 27.1196 161.858 25.8843 160.678 24.6341C159.528 23.369 158.931 21.5532 158.931 19.2016C158.931 17.3263 159.364 15.7487 160.215 14.424C161.067 13.0845 162.232 12.0873 163.71 11.4176C165.204 10.7329 166.892 10.3906 168.819 10.3906C169.386 10.3906 169.984 10.4204 170.611 10.5097C171.253 10.599 171.895 10.6883 172.553 10.8222C173.225 10.9264 173.867 11.0455 174.479 11.1646L175.226 16.8203H174.166C173.927 15.2724 173.284 14.0222 172.254 13.1738C171.223 12.3106 169.879 11.8641 168.191 11.8641C167.086 11.8641 166.1 12.132 165.249 12.6083C164.397 13.1143 163.755 13.7989 163.307 14.6771C162.859 15.5403 162.65 16.5226 162.65 17.5942C162.65 19.4249 163.202 20.809 164.308 21.7467C165.413 22.6844 167.19 23.756 169.595 24.9615C172.015 26.182 173.837 27.4024 175.047 28.6377C176.257 29.888 176.869 31.6591 176.869 33.9809C176.869 35.3948 176.585 36.6451 175.973 37.7762C175.391 38.9073 174.569 39.8599 173.538 40.6487C172.508 41.4375 171.328 42.0477 170.013 42.4645C168.699 42.8812 167.355 43.0896 165.996 43.0896C163.516 43.0896 161.141 42.5687 158.901 41.5119L158.946 41.5268Z" fill="#333333"/>
<path d="M193.986 11.1641V12.3696C192.926 12.3994 192.134 12.4738 191.641 12.5929C191.148 12.6971 190.73 12.9947 190.401 13.4561C190.073 13.9175 189.894 14.6319 189.894 15.6142V37.9692C189.894 38.9366 190.073 39.651 190.401 40.1422C190.73 40.5887 191.133 40.8863 191.641 40.9905C192.134 41.0947 192.926 41.1691 193.986 41.1989V42.4193H181.484V41.1989C182.963 41.184 183.994 40.9905 184.621 40.6184C185.248 40.2761 185.577 39.3831 185.577 37.9692V15.6142C185.577 14.2003 185.263 13.3073 184.621 12.9501C184.009 12.5929 182.963 12.3994 181.484 12.3696V11.1641H193.986Z" fill="#333333"/>
<path d="M210.03 15.6315L214.795 28.8034H205.609L209.941 15.6315H210.03ZM202.338 33.0154C201.397 35.7689 200.785 37.4209 200.516 38.0163C200.127 38.9093 199.784 39.5641 199.47 39.9362C199.172 40.3232 198.783 40.606 198.335 40.7846C197.887 40.9781 197.155 41.0971 196.199 41.2162V42.4366H206.834V41.2162H205.818C205.146 41.1864 204.579 41.1418 204.19 41.0823C203.787 40.993 203.443 40.8143 203.175 40.5316C202.921 40.2339 202.801 39.7725 202.801 39.0879C202.801 38.4628 202.891 37.7781 203.085 37.0042C203.279 36.2451 203.563 35.1884 203.996 33.8638L204.967 30.7234H215.467L217.708 37.1828C218.141 38.4032 218.365 39.2665 218.365 39.7279C218.365 40.7399 217.543 41.2311 215.9 41.2311H215.109V42.4515H226.774V41.2311C225.071 41.2311 223.936 40.8144 223.309 39.966C223.1 39.6981 222.846 39.1772 222.562 38.4776C222.278 37.7484 221.979 36.9 221.636 35.9475C221.292 34.9949 221.009 34.1614 220.755 33.4619L212.241 9.96094H209.851L202.338 33.0303V33.0154Z" fill="#333333"/>
<path d="M255.884 35.4985V17.7574C255.884 16.3584 255.734 15.2719 255.451 14.5277C255.182 13.7687 254.659 13.218 253.882 12.9054C253.091 12.5929 251.97 12.3994 250.462 12.3696V11.1641H261.813V12.3696C261.052 12.3696 260.439 12.4143 259.961 12.4887C259.468 12.578 259.065 12.7715 258.692 13.0543C258.348 13.337 258.079 13.8133 257.9 14.4235C257.721 15.0338 257.631 15.8821 257.631 16.9686V42.7914H256.631L234.779 17.1472V33.7572C234.779 35.3348 234.838 36.6148 234.958 37.5524C235.077 38.4901 235.316 39.2343 235.675 39.7701C236.018 40.291 236.541 40.6631 237.213 40.8566C237.885 41.0649 238.856 41.1691 240.081 41.1691V42.3896H228.222V41.1691C229.387 41.1691 230.283 41.0798 230.925 40.8863C231.537 40.7077 232.045 40.1868 232.449 39.3831C232.852 38.5794 233.031 37.2697 233.031 35.4836V17.5937C233.031 15.7035 232.598 14.3789 231.747 13.5752C230.88 12.7864 229.491 12.3845 227.52 12.3845V11.1789H235.242L255.869 35.5283L255.884 35.4985Z" fill="#333333"/>
<path d="M6.63639 3.9898C8.26446 3.75166 10.1166 3.8112 10.3705 3.8112C10.6991 3.8112 11.8044 3.76655 7.72675 6.22232C8.20471 7.5023 9.45936 9.60086 9.53405 10.2409C9.71328 11.5506 8.33914 10.3302 5.68046 8.41019C4.50049 9.88365 3.12634 11.7292 2.81268 11.759C2.33472 11.8185 2.67825 9.24366 3.46988 7.10044C2.76787 6.81766 1.96131 6.49022 1.31904 6.11813C-0.309021 5.21024 -0.622686 4.49584 3.73873 4.49584C4.20176 3.21586 4.56024 1.10241 5.05314 0.983341C5.5311 0.879156 5.97919 1.98053 6.62145 3.97492L6.63639 3.9898Z" fill="#CCADB9"/>
<path d="M67.3376 34.8238C68.7266 34.9727 70.2352 35.3894 70.4294 35.449C70.7132 35.5085 71.6094 35.702 67.7707 36.8927C67.9051 38.0387 68.4877 40.0033 68.4279 40.5391C68.3084 41.6554 67.4272 40.3754 65.6498 38.2619C64.3802 39.2294 62.8865 40.4647 62.6177 40.4349C62.2144 40.3903 63.021 38.3512 64.1113 36.7587C63.5885 36.3717 63.006 35.955 62.5579 35.5234C61.4078 34.4518 61.2883 33.7969 64.8731 34.675C65.5004 33.7225 66.2323 32.0555 66.6654 32.0704C67.0836 32.0704 67.233 33.0676 67.3525 34.8238H67.3376Z" fill="#8B9CC4"/>
<path d="M62.1097 13.2494C63.0357 13.4429 64.0215 13.8448 64.1559 13.8894C64.3352 13.949 64.9476 14.1424 62.259 14.6783C62.259 15.4671 62.5129 16.8364 62.4383 17.1936C62.274 17.9377 61.7811 17.015 60.7355 15.4671C59.8095 16.0178 58.7042 16.7471 58.5249 16.7024C58.2561 16.6429 58.9581 15.3331 59.8095 14.3359C59.4809 14.0383 59.1224 13.7108 58.8386 13.3834C58.1366 12.5648 58.1067 12.1183 60.4667 12.9815C60.9596 12.3862 61.5869 11.3146 61.8707 11.3444C62.1395 11.3741 62.1843 12.0588 62.1246 13.2643L62.1097 13.2494Z" fill="#CCADB9"/>
<path d="M6.5663 13.9048C6.99946 13.4881 9.21004 14.2769 12.0928 14.9913C17.664 16.3755 25.6102 18.2359 32.7049 18.9652C40.5764 19.7689 47.492 19.7392 52.6151 19.6945C53.6308 19.6945 55.7816 19.5457 55.7816 20.2601C55.7816 20.7215 54.8556 21.0042 53.1977 21.2573C51.1962 21.5549 49.0005 21.8675 47.5816 22.061C46.4016 22.2098 46.9094 22.5224 47.5069 22.6861C48.194 22.8796 49.1648 23.1623 49.822 23.3856C50.4643 23.594 50.7929 23.713 50.778 24.0256C50.778 24.2935 50.4643 24.4721 49.9863 24.6507C49.5532 24.8144 49.2246 24.9632 49.2694 25.0972C49.2993 25.2907 50.2402 25.4098 51.1364 25.5735C51.943 25.7074 52.9139 25.9307 53.347 26.0795C53.5711 26.1539 53.7204 26.2581 53.7204 26.4069C53.7204 26.5707 53.5711 26.7046 53.1379 26.8386C51.8384 27.2553 50.5838 27.4488 50.5987 27.7167C50.5987 27.9697 51.5546 28.1037 52.8093 28.2823C54.6913 28.5502 58.9332 29.2199 59.8891 29.3836C60.3074 29.4581 60.4418 29.5176 60.4269 29.6664C60.4119 29.8153 60.0534 29.8897 59.6203 29.9343C58.6644 30.0385 53.9146 30.1278 51.7339 30.0385C38.3808 29.4283 21.6072 25.9902 8.61258 17.8936C6.37213 16.4946 6.83516 15.6611 6.71567 15.2295C6.58124 14.6937 6.26757 14.2174 6.5663 13.9197V13.9048Z" fill="#CCADB9"/>
<path d="M58.5234 50.1492C57.8065 48.4227 56.6862 46.4135 55.342 44.6423C53.6243 42.3801 52.2501 41.0852 49.8752 40.2368C44.9164 38.4508 34.9239 38.7485 30.8164 38.0192C26.7089 37.3048 22.5118 35.9206 21.2273 31.9319C19.8382 27.6454 21.0331 20.6502 24.3938 15.5303C28.6208 9.05599 33.9083 9.59179 45.9619 9.38343C58.0305 9.17506 59.076 1.67379 59.076 1.67379C56.4024 1.56961 47.4556 0.944505 40.316 0.215216C33.1913 -0.514074 29.2033 0.840321 25.7829 2.89424C22.3475 4.94816 17.1048 10.9164 15.2378 18.3135C11.1751 34.4025 17.7172 41.7252 25.6634 45.0144C31.2944 47.3511 40.1666 49.8813 51.0851 51.9948C53.3554 52.4264 55.0134 52.7092 56.6115 52.9175C57.6422 53.0664 59.8677 53.364 58.5383 50.1195L58.5234 50.1492Z" fill="#8B9CC4"/>
<path d="M21.0534 23.9307C21.4716 21.7726 22.2035 19.5698 23.2341 17.5308C20.6949 17.0247 18.2155 16.4889 15.9601 15.9531C15.6763 16.7271 15.4224 17.5308 15.2133 18.3494C14.9593 19.3317 14.7652 20.2693 14.5859 21.1772C16.677 22.1893 18.8428 23.1121 21.0384 23.9307H21.0534Z" fill="#938686"/>
<path d="M23.231 17.5098C23.5746 16.8252 23.9629 16.1554 24.3811 15.5303C28.6081 9.05599 33.8956 9.59179 45.9493 9.38343C58.0178 9.17506 59.0634 1.67379 59.0634 1.67379C56.3898 1.56961 47.4429 0.944505 40.3033 0.215216C33.1787 -0.514074 29.1907 0.840321 25.7702 2.89424C22.7083 4.7249 18.2274 9.65133 15.957 15.9321C18.2274 16.468 20.6919 17.0038 23.231 17.5098Z" fill="#A1BEBF"/>
</svg>
