<svg width="64" height="64" viewBox="0 0 64 64" fill="none" xmlns="http://www.w3.org/2000/svg">
<path d="M16.9998 29C17.265 28.9999 17.5193 28.8946 17.7068 28.707L18.7068 27.707C18.8889 27.5184 18.9897 27.2658 18.9875 27.0036C18.9852 26.7414 18.88 26.4906 18.6946 26.3052C18.5092 26.1198 18.2584 26.0146 17.9962 26.0123C17.734 26.01 17.4814 26.1108 17.2928 26.293L16.2928 27.293C16.153 27.4329 16.0578 27.611 16.0192 27.805C15.9806 27.9989 16.0004 28.2 16.0761 28.3827C16.1518 28.5654 16.2799 28.7215 16.4443 28.8314C16.6087 28.9413 16.802 29 16.9998 29ZM12.9998 32C13.265 31.9999 13.5193 31.8946 13.7068 31.707L14.7068 30.707C14.8889 30.5184 14.9897 30.2658 14.9875 30.0036C14.9852 29.7414 14.88 29.4906 14.6946 29.3052C14.5092 29.1198 14.2584 29.0146 13.9962 29.0123C13.734 29.01 13.4814 29.1108 13.2928 29.293L12.2928 30.293C12.153 30.4329 12.0578 30.611 12.0192 30.805C11.9806 30.9989 12.0004 31.2 12.0761 31.3827C12.1518 31.5654 12.2799 31.7215 12.4443 31.8314C12.6087 31.9413 12.802 32 12.9998 32ZM16.9998 34C17.265 33.9999 17.5193 33.8946 17.7068 33.707L18.7068 32.707C18.8889 32.5184 18.9897 32.2658 18.9875 32.0036C18.9852 31.7414 18.88 31.4906 18.6946 31.3052C18.5092 31.1198 18.2584 31.0146 17.9962 31.0123C17.734 31.01 17.4814 31.1108 17.2928 31.293L16.2928 32.293C16.153 32.4329 16.0578 32.611 16.0192 32.805C15.9806 32.9989 16.0004 33.2 16.0761 33.3827C16.1518 33.5654 16.2799 33.7215 16.4443 33.8314C16.6087 33.9413 16.802 34 16.9998 34ZM12.9998 37C13.265 36.9999 13.5193 36.8946 13.7068 36.707L14.7068 35.707C14.8889 35.5184 14.9897 35.2658 14.9875 35.0036C14.9852 34.7414 14.88 34.4906 14.6946 34.3052C14.5092 34.1198 14.2584 34.0146 13.9962 34.0123C13.734 34.01 13.4814 34.1108 13.2928 34.293L12.2928 35.293C12.153 35.4328 12.0578 35.611 12.0192 35.805C11.9806 35.9989 12.0004 36.2 12.0761 36.3827C12.1518 36.5654 12.2799 36.7215 12.4443 36.8314C12.6087 36.9413 12.802 37 12.9998 37ZM20.9998 30C21.265 29.9999 21.5193 29.8946 21.7068 29.707L22.7068 28.707C22.8889 28.5184 22.9897 28.2658 22.9875 28.0036C22.9852 27.7414 22.88 27.4906 22.6946 27.3052C22.5092 27.1198 22.2584 27.0146 21.9962 27.0123C21.734 27.01 21.4814 27.1108 21.2928 27.293L20.2928 28.293C20.153 28.4329 20.0578 28.611 20.0192 28.805C19.9806 28.9989 20.0004 29.2 20.0761 29.3827C20.1518 29.5654 20.2799 29.7215 20.4443 29.8314C20.6087 29.9413 20.802 30 20.9998 30ZM54.9998 20H53.9998V3C53.9998 2.73478 53.8944 2.48043 53.7069 2.29289C53.5194 2.10536 53.265 2 52.9998 2H46.9998C46.7346 2 46.4802 2.10536 46.2927 2.29289C46.1051 2.48043 45.9998 2.73478 45.9998 3V20H44.9998C44.7346 20 44.4802 20.1054 44.2927 20.2929C44.1051 20.4804 43.9998 20.7348 43.9998 21V24H35.9998C34.6742 24.0016 33.4033 24.5289 32.466 25.4662C31.5287 26.4036 31.0014 27.6744 30.9998 29V35C31.0014 36.3256 31.5287 37.5964 32.466 38.5338C33.4033 39.4711 34.6742 39.9984 35.9998 40H48.9998C50.8557 39.9979 52.6349 39.2597 53.9472 37.9474C55.2595 36.6351 55.9977 34.8559 55.9998 33V21C55.9998 20.7348 55.8944 20.4804 55.7069 20.2929C55.5194 20.1054 55.265 20 54.9998 20ZM47.9998 4H51.9998V20H47.9998V4ZM45.9998 22H53.9998V24H45.9998V22ZM48.9998 38H35.9998C35.2041 38 34.4411 37.6839 33.8785 37.1213C33.3159 36.5587 32.9998 35.7957 32.9998 35V29C32.9998 28.2044 33.3159 27.4413 33.8785 26.8787C34.4411 26.3161 35.2041 26 35.9998 26H53.9998V29H44.9998C44.7346 29 44.4802 29.1054 44.2927 29.2929C44.1051 29.4804 43.9998 29.7348 43.9998 30C43.9998 30.2652 44.1051 30.5196 44.2927 30.7071C44.4802 30.8946 44.7346 31 44.9998 31H53.9998V33H37.9998C37.7346 33 37.4802 33.1054 37.2927 33.2929C37.1051 33.4804 36.9998 33.7348 36.9998 34C36.9998 34.2652 37.1051 34.5196 37.2927 34.7071C37.4802 34.8946 37.7346 35 37.9998 35H53.5758C53.1871 35.8906 52.5473 36.6487 51.7346 37.1815C50.9219 37.7143 49.9716 37.9987 48.9998 38Z" fill="#569AA9"/>
<path d="M41 31H42C42.2652 31 42.5196 30.8946 42.7071 30.7071C42.8946 30.5196 43 30.2652 43 30C43 29.7348 42.8946 29.4804 42.7071 29.2929C42.5196 29.1054 42.2652 29 42 29H41C40.7348 29 40.4804 29.1054 40.2929 29.2929C40.1054 29.4804 40 29.7348 40 30C40 30.2652 40.1054 30.5196 40.2929 30.7071C40.4804 30.8946 40.7348 31 41 31ZM30 42C28.6 42 27.22 42.058 25.855 42.146C25.9476 41.7709 25.9963 41.3863 26 41V40.529C27.9319 38.4991 29.0064 35.8023 29 33C29 30.0826 27.8411 27.2847 25.7782 25.2218C23.7153 23.1589 20.9174 22 18 22C15.0826 22 12.2847 23.1589 10.2218 25.2218C8.15893 27.2847 7 30.0826 7 33C6.99404 35.8019 8.06855 38.4982 10 40.528V41C10.0022 41.7708 10.1835 42.5306 10.5296 43.2193C10.8756 43.9081 11.3769 44.5071 11.994 44.969C7.464 46.8 5 49.245 5 52C5 57.607 15.981 62 30 62C44.019 62 55 57.607 55 52C55 46.393 44.019 42 30 42ZM17 46H19V54H17V46ZM14.954 44C14.3414 43.9907 13.7463 43.7941 13.2488 43.4365C12.7513 43.079 12.3752 42.5777 12.171 42H23.829C23.6214 42.5845 23.2381 43.0905 22.7316 43.4486C22.2251 43.8066 21.6203 43.9992 21 44C21 44 15.022 43.994 14.954 44ZM18 24C19.8623 23.998 21.6793 24.5745 23.1999 25.6497C24.7204 26.7249 25.8696 28.2458 26.4885 30.0022C27.1074 31.7587 27.1656 33.664 26.655 35.4549C26.1444 37.2459 25.0902 38.834 23.638 40H12.363C11.3109 39.1623 10.4619 38.0975 9.87953 36.8853C9.29715 35.6731 8.99647 34.3448 9 33C9.00265 30.6139 9.95171 28.3262 11.639 26.639C13.3262 24.9517 15.6139 24.0026 18 24ZM30 60C16.446 60 7 55.784 7 52C7 49.8 9.987 47.58 15 46.024V56H21V46C21.7252 45.998 22.4412 45.8373 23.0977 45.5291C23.7542 45.2209 24.3352 44.7727 24.8 44.216C26.5 44.074 28.246 44 30 44C43.554 44 53 48.216 53 52C53 55.784 43.554 60 30 60Z" fill="#569AA9"/>
</svg>
