<svg width="64" height="64" viewBox="0 0 64 64" fill="none" xmlns="http://www.w3.org/2000/svg">
<path d="M42 14.6969C41.1278 14.1704 40.1107 13.9351 39.0958 14.025C38.081 14.1148 37.1211 14.5253 36.355 15.1969C35.9292 15.5731 35.5882 16.0356 35.3546 16.5535C35.121 17.0715 35.0003 17.6332 35.0003 18.2014C35.0003 18.7697 35.121 19.3314 35.3546 19.8494C35.5882 20.3673 35.9292 20.8298 36.355 21.2059L41.326 25.7369C41.5102 25.905 41.7506 25.9982 42 25.9982C42.2494 25.9982 42.4898 25.905 42.674 25.7369L47.645 21.2059C48.071 20.8299 48.4121 20.3676 48.6457 19.8497C48.8794 19.3318 49.0002 18.7701 49.0002 18.2019C49.0002 17.6338 48.8794 17.0721 48.6457 16.5542C48.4121 16.0363 48.071 15.574 47.645 15.1979C46.8787 14.5269 45.9189 14.1167 44.9042 14.0266C43.8896 13.9366 42.8725 14.1713 42 14.6969V14.6969ZM46.3 19.7329L42 23.6499L37.7 19.7329C37.4796 19.5443 37.3026 19.3102 37.1813 19.0467C37.0599 18.7832 36.9971 18.4966 36.9971 18.2064C36.9971 17.9163 37.0599 17.6297 37.1813 17.3662C37.3026 17.1027 37.4796 16.8686 37.7 16.6799C38.2008 16.2398 38.8448 15.997 39.5115 15.997C40.1783 15.997 40.8222 16.2398 41.323 16.6799C41.5072 16.848 41.7476 16.9412 41.997 16.9412C42.2464 16.9412 42.4868 16.848 42.671 16.6799C43.1718 16.2398 43.8157 15.997 44.4825 15.997C45.1492 15.997 45.7932 16.2398 46.294 16.6799C46.5144 16.8685 46.6914 17.1025 46.8127 17.3659C46.934 17.6293 46.9969 17.9159 46.9969 18.2059C46.9969 18.496 46.934 18.7826 46.8127 19.046C46.6914 19.3094 46.5144 19.5434 46.294 19.7319L46.3 19.7329ZM32 2.69695C31.1275 2.17148 30.1106 1.93676 29.096 2.02662C28.0814 2.11649 27.1216 2.5263 26.355 3.19695C25.9292 3.57314 25.5882 4.03556 25.3546 4.55354C25.121 5.07153 25.0003 5.63324 25.0003 6.20145C25.0003 6.76965 25.121 7.33137 25.3546 7.84935C25.5882 8.36734 25.9292 8.82975 26.355 9.20595L31.326 13.7369C31.5102 13.905 31.7506 13.9982 32 13.9982C32.2494 13.9982 32.4898 13.905 32.674 13.7369L37.645 9.20595C38.071 8.82993 38.4121 8.36763 38.6457 7.84972C38.8794 7.3318 39.0002 6.77012 39.0002 6.20195C39.0002 5.63377 38.8794 5.07209 38.6457 4.55418C38.4121 4.03626 38.071 3.57396 37.645 3.19795C36.8787 2.52686 35.9189 2.11668 34.9042 2.02663C33.8896 1.93658 32.8725 2.17131 32 2.69695V2.69695ZM36.3 7.73295L32 11.6499L27.7 7.73295C27.4796 7.54434 27.3026 7.31024 27.1813 7.04673C27.0599 6.78322 26.9971 6.49655 26.9971 6.20645C26.9971 5.91634 27.0599 5.62968 27.1813 5.36617C27.3026 5.10266 27.4796 4.86855 27.7 4.67995C28.2008 4.23978 28.8447 3.99702 29.5115 3.99702C30.1782 3.99702 30.8222 4.23978 31.323 4.67995C31.5072 4.84803 31.7476 4.94122 31.997 4.94122C32.2464 4.94122 32.4868 4.84803 32.671 4.67995C33.1718 4.23978 33.8157 3.99702 34.4825 3.99702C35.1492 3.99702 35.7932 4.23978 36.294 4.67995C36.5144 4.86846 36.6914 5.10248 36.8127 5.3659C36.934 5.62933 36.9969 5.91592 36.9969 6.20595C36.9969 6.49598 36.934 6.78256 36.8127 7.04599C36.6914 7.30942 36.5144 7.54344 36.294 7.73195L36.3 7.73295ZM47 34.0029V28.0029H37V34.0029H39V36.0029H18V48.0029H20V62.0029H44V48.0029H46V36.0029H45V34.0029H47ZM39 30.0029H45V32.0029H39V30.0029ZM30 60.0029V54.0029H34V60.0029H30ZM42 60.0029H36V53.0029C36 52.7377 35.8946 52.4834 35.7071 52.2958C35.5196 52.1083 35.2652 52.0029 35 52.0029H29C28.7348 52.0029 28.4804 52.1083 28.2929 52.2958C28.1054 52.4834 28 52.7377 28 53.0029V60.0029H22V48.0029H42V60.0029ZM44 46.0029H20V38.0029H44V46.0029ZM43 36.0029H41V34.0029H43V36.0029ZM18 14.0029C16.469 13.9984 14.9624 14.3866 13.6241 15.1303C12.2859 15.874 11.1607 16.9484 10.356 18.2509C10.3316 18.3022 10.3115 18.3554 10.296 18.4099C8.94589 18.9325 7.84919 19.9554 7.234 21.2659C6.62223 21.0952 5.97929 21.068 5.35529 21.1865C4.73129 21.305 4.14308 21.566 3.63652 21.9492C3.12996 22.3324 2.71872 22.8273 2.43485 23.3955C2.15099 23.9637 2.00217 24.5898 2 25.2249C2.00317 25.5734 2.05157 25.92 2.144 26.2559C2.19993 26.4698 2.32517 26.6592 2.50014 26.7943C2.6751 26.9295 2.88991 27.0028 3.111 27.0029H9.964C10.6785 28.4366 11.7631 29.6533 13.1056 30.5272C14.448 31.4011 15.9996 31.9005 17.5998 31.9736C19.2 32.0467 20.7906 31.6909 22.2072 30.9431C23.6238 30.1952 24.8148 29.0825 25.6571 27.7199C26.4993 26.3574 26.9622 24.7945 26.9979 23.1931C27.0335 21.5916 26.6407 20.0097 25.8599 18.6111C25.0791 17.2124 23.9388 16.0477 22.557 15.2375C21.1751 14.4274 19.6018 14.0011 18 14.0029V14.0029ZM6.13 23.1139C6.53845 23.1147 6.93803 23.2331 7.281 23.4549C7.41598 23.5408 7.56946 23.5933 7.72874 23.608C7.88802 23.6228 8.04853 23.5995 8.197 23.5399C8.34584 23.48 8.47805 23.3851 8.58248 23.2632C8.68691 23.1414 8.76049 22.9962 8.797 22.8399C8.98443 22.0521 9.42516 21.3475 10.0516 20.8343C10.678 20.321 11.4555 20.0275 12.2648 19.9986C13.0741 19.9698 13.8705 20.2073 14.5319 20.6747C15.1932 21.142 15.683 21.8134 15.926 22.5859C15.9656 22.7131 16.0303 22.8311 16.1162 22.9329C16.202 23.0347 16.3074 23.1184 16.426 23.1789C16.5447 23.2389 16.6741 23.2749 16.8067 23.2849C16.9394 23.2948 17.0727 23.2786 17.199 23.2369C17.4987 23.131 17.8185 23.0945 18.1343 23.1301C18.4502 23.1657 18.7538 23.2726 19.0224 23.4426C19.2909 23.6127 19.5173 23.8415 19.6846 24.1117C19.8519 24.382 19.9556 24.6867 19.988 25.0029H4.012C4.07017 24.4824 4.31854 24.0017 4.70943 23.653C5.10033 23.3044 5.60622 23.1124 6.13 23.1139V23.1139ZM18 30.0029C16.874 30.0038 15.7646 29.7313 14.7672 29.2087C13.7698 28.6862 12.9142 27.9292 12.274 27.0029H20.889C21.1101 27.0028 21.3249 26.9295 21.4999 26.7943C21.6748 26.6592 21.8001 26.4698 21.856 26.2559C21.9484 25.92 21.9968 25.5734 22 25.2249C21.9987 24.6517 21.8778 24.085 21.6449 23.5611C21.4121 23.0373 21.0724 22.5678 20.6477 22.1827C20.223 21.7976 19.7226 21.5055 19.1786 21.3249C18.6345 21.1443 18.0587 21.0792 17.488 21.1339C17.0657 20.2918 16.4396 19.5685 15.6666 19.0299C14.8936 18.4913 13.9983 18.1545 13.062 18.0499C13.8766 17.2364 14.8794 16.6363 15.9814 16.3029C17.0834 15.9695 18.2506 15.913 19.3796 16.1385C20.5086 16.3641 21.5646 16.8646 22.4539 17.5957C23.3433 18.3269 24.0386 19.2661 24.4781 20.3302C24.9177 21.3943 25.0881 22.5504 24.9741 23.6961C24.8601 24.8417 24.4653 25.9416 23.8246 26.8982C23.1839 27.8548 22.3172 28.6386 21.3012 29.1802C20.2852 29.7217 19.1513 30.0043 18 30.0029V30.0029ZM56 52.0029V38.0029C56 36.9421 55.5786 35.9247 54.8284 35.1745C54.0783 34.4244 53.0609 34.0029 52 34.0029C50.9391 34.0029 49.9217 34.4244 49.1716 35.1745C48.4214 35.9247 48 36.9421 48 38.0029V52.0029H51V55.0029H48V62.0029H56V55.0029H53V52.0029H56ZM54 60.0029H50V57.0029H54V60.0029ZM50 38.0029C50 37.4725 50.2107 36.9638 50.5858 36.5887C50.9609 36.2137 51.4696 36.0029 52 36.0029C52.5304 36.0029 53.0391 36.2137 53.4142 36.5887C53.7893 36.9638 54 37.4725 54 38.0029V50.0029H50V38.0029Z" fill="#569AA9"/>
<path d="M8 34H6V36H8V34Z" fill="#569AA9"/>
<path d="M8 38H6V40H8V38Z" fill="#569AA9"/>
<path d="M6 36H4V38H6V36Z" fill="#569AA9"/>
<path d="M10 36H8V38H10V36Z" fill="#569AA9"/>
<path d="M12 46H10V48H12V46Z" fill="#569AA9"/>
<path d="M12 50H10V52H12V50Z" fill="#569AA9"/>
<path d="M10 48H8V50H10V48Z" fill="#569AA9"/>
<path d="M14 48H12V50H14V48Z" fill="#569AA9"/>
</svg>
