<svg width="75" height="65" viewBox="0 0 75 65" fill="none" xmlns="http://www.w3.org/2000/svg">
<path fill-rule="evenodd" clip-rule="evenodd" d="M3.75 0C1.69375 0 0 1.69375 0 3.75V61.25C0 63.3063 1.69375 65 3.75 65H71.25C73.3063 65 75 63.3063 75 61.25V3.75C75 1.69375 73.3063 0 71.25 0H3.75ZM3.75 2.5H66.25V6.25H2.5V3.75C2.5 3.03625 3.03625 2.5 3.75 2.5ZM68.75 2.5H71.25C71.9638 2.5 72.5 3.03625 72.5 3.75V6.25H68.75V2.5ZM2.5 8.75H72.5V61.25C72.5 61.9637 71.9638 62.5 71.25 62.5H51.25V58.5375C58.3337 57.3425 63.75 51.1675 63.75 43.75C63.75 36.3325 58.3337 30.1575 51.25 28.9625V16.25C51.25 14.1938 49.5563 12.5 47.5 12.5H20C17.9438 12.5 16.25 14.1938 16.25 16.25V62.5H3.75C3.03625 62.5 2.5 61.9637 2.5 61.25V8.75ZM20 15H47.5C48.2137 15 48.75 15.5363 48.75 16.25V28.75C40.48 28.75 33.75 35.48 33.75 43.75C33.75 52.02 40.48 58.75 48.75 58.75V62.5H18.75V16.25C18.75 15.5363 19.2862 15 20 15ZM25 17.5C22.9438 17.5 21.25 19.1938 21.25 21.25V23.75C21.25 25.8062 22.9438 27.5 25 27.5H27.5C29.5562 27.5 31.25 25.8062 31.25 23.75V21.25C31.25 19.1938 29.5562 17.5 27.5 17.5H25ZM40 17.5C37.9437 17.5 36.25 19.1938 36.25 21.25V23.75C36.25 25.8062 37.9437 27.5 40 27.5H42.5C44.5563 27.5 46.25 25.8062 46.25 23.75V21.25C46.25 19.1938 44.5563 17.5 42.5 17.5H40ZM25 20H27.5C28.2138 20 28.75 20.5362 28.75 21.25V23.75C28.75 24.4638 28.2138 25 27.5 25H25C24.2862 25 23.75 24.4638 23.75 23.75V21.25C23.75 20.5362 24.2862 20 25 20ZM40 20H42.5C43.2137 20 43.75 20.5362 43.75 21.25V23.75C43.75 24.4638 43.2137 25 42.5 25H40C39.2863 25 38.75 24.4638 38.75 23.75V21.25C38.75 20.5362 39.2863 20 40 20ZM48.75 31.25C55.6688 31.25 61.25 36.8312 61.25 43.75C61.25 50.6688 55.6688 56.25 48.75 56.25C41.8312 56.25 36.25 50.6688 36.25 43.75C36.25 36.8312 41.8312 31.25 48.75 31.25ZM25 32.5C22.9438 32.5 21.25 34.1937 21.25 36.25V38.75C21.25 40.8063 22.9438 42.5 25 42.5H27.5C29.5562 42.5 31.25 40.8063 31.25 38.75V36.25C31.25 34.1937 29.5562 32.5 27.5 32.5H25ZM25 35H27.5C28.2138 35 28.75 35.5363 28.75 36.25V38.75C28.75 39.4637 28.2138 40 27.5 40H25C24.2862 40 23.75 39.4637 23.75 38.75V36.25C23.75 35.5363 24.2862 35 25 35ZM55.2275 38.0325L47.9963 48.3625C47.9174 48.4827 47.8123 48.5835 47.6889 48.6572C47.5655 48.7309 47.427 48.7756 47.2838 48.788C47.1405 48.8004 46.9964 48.7801 46.8621 48.7287C46.7279 48.6773 46.6071 48.5961 46.5088 48.4912L42.1338 44.1162C41.898 43.8885 41.5822 43.7626 41.2545 43.7654C40.9268 43.7683 40.6132 43.8997 40.3815 44.1315C40.1497 44.3632 40.0183 44.6768 40.0154 45.0045C40.0126 45.3322 40.1385 45.648 40.3662 45.8838L44.7412 50.2588C46.2512 51.7687 48.82 51.545 50.0438 49.795L57.2738 39.4675C57.4637 39.1961 57.5381 38.8604 57.4807 38.5341C57.4233 38.2079 57.2387 37.9177 56.9675 37.7275C56.6952 37.5407 56.3605 37.468 56.0353 37.525C55.71 37.582 55.42 37.7642 55.2275 38.0325ZM25 47.5C22.9438 47.5 21.25 49.1937 21.25 51.25V53.75C21.25 55.8063 22.9438 57.5 25 57.5H27.5C29.5562 57.5 31.25 55.8063 31.25 53.75V51.25C31.25 49.1937 29.5562 47.5 27.5 47.5H25ZM25 50H27.5C28.2138 50 28.75 50.5363 28.75 51.25V53.75C28.75 54.4637 28.2138 55 27.5 55H25C24.2862 55 23.75 54.4637 23.75 53.75V51.25C23.75 50.5363 24.2862 50 25 50Z" fill="#333333"/>
</svg>
