<svg width="76" height="75" viewBox="0 0 76 75" fill="none" xmlns="http://www.w3.org/2000/svg">
<path d="M31.584 25H27.834V20C27.834 16.05 24.7627 12.8113 20.8827 12.5275C22.1376 11.1538 22.8336 9.36059 22.834 7.5C22.834 3.36375 19.4702 0 15.334 0C11.1977 0 7.83398 3.36375 7.83398 7.5C7.83398 9.435 8.57648 11.1962 9.78523 12.5275C5.90523 12.8113 2.83398 16.05 2.83398 20V25H0.333984V27.5H30.334V31.25H27.834C27.5025 31.25 27.1845 31.3817 26.9501 31.6161C26.7157 31.8505 26.584 32.1685 26.584 32.5V60H0.333984V62.5H27.834C28.1655 62.5 28.4834 62.3683 28.7179 62.1339C28.9523 61.8995 29.084 61.5815 29.084 61.25V33.75H31.584C31.9155 33.75 32.2334 33.6183 32.4679 33.3839C32.7023 33.1495 32.834 32.8315 32.834 32.5V26.25C32.834 25.9185 32.7023 25.6005 32.4679 25.3661C32.2334 25.1317 31.9155 25 31.584 25ZM15.334 2.5C18.0915 2.5 20.334 4.7425 20.334 7.5C20.334 10.2575 18.0915 12.5 15.334 12.5C12.5765 12.5 10.334 10.2575 10.334 7.5C10.334 4.7425 12.5765 2.5 15.334 2.5ZM21.584 25V20H19.084V25H11.584V20H9.08398V25H5.33398V20C5.33398 17.2425 7.57648 15 10.334 15H20.334C23.0915 15 25.334 17.2425 25.334 20V25H21.584ZM71.584 48.75H70.334V27.5C70.334 23.7325 67.9352 20.5225 64.589 19.2925C65.6022 18.474 66.4195 17.4392 66.981 16.2639C67.5425 15.0886 67.8339 13.8025 67.834 12.5C67.834 7.67625 63.909 3.75 59.084 3.75C54.259 3.75 50.334 7.67625 50.334 12.5C50.334 13.8025 50.6255 15.0886 51.187 16.2639C51.7485 17.4392 52.5658 18.474 53.579 19.2925C51.9757 19.8815 50.5797 20.9268 49.5631 22.2994C48.5465 23.672 47.9537 25.3121 47.8577 27.0175L39.5602 36.975C38.5227 38.2188 38.3065 39.9038 38.9927 41.3713C39.679 42.8387 41.1152 43.75 42.734 43.75C43.9627 43.75 45.1202 43.2075 45.9077 42.265L47.834 39.9525V48.75H46.584C44.5165 48.75 42.834 50.4325 42.834 52.5V66.25C42.8358 67.1246 43.1431 67.9712 43.7027 68.6433C44.2623 69.3155 45.0392 69.771 45.899 69.9313C45.4865 71.0175 45.5677 72.2188 46.189 73.2225C46.5235 73.7676 46.9927 74.2174 47.5514 74.5287C48.1101 74.84 48.7394 75.0023 49.379 75H51.289C51.9858 75.0021 52.6692 74.8091 53.2619 74.4429C53.8547 74.0766 54.333 73.5516 54.6427 72.9275L56.1065 70H63.3115L64.7752 72.9275C65.0849 73.5517 65.5632 74.0767 66.1559 74.443C66.7487 74.8093 67.4322 75.0023 68.129 75H70.039C71.3477 75 72.5402 74.335 73.229 73.2213C73.9177 72.1075 73.979 70.7438 73.3927 69.5725L73.3702 69.5262C73.962 69.2073 74.4568 68.7346 74.8024 68.158C75.148 67.5814 75.3317 66.9222 75.334 66.25V52.5C75.334 50.4325 73.6515 48.75 71.584 48.75ZM52.834 12.5C52.834 9.05375 55.6377 6.25 59.084 6.25C62.5302 6.25 65.334 9.05375 65.334 12.5C65.334 15.9462 62.5302 18.75 59.084 18.75C57.9072 18.7467 56.7557 18.4085 55.764 17.775C56.4041 17.3169 56.9258 16.7129 57.2858 16.0129C57.6458 15.3129 57.8337 14.5371 57.834 13.75H55.334C55.334 14.735 54.7577 15.5887 53.9027 15.9913C53.2045 14.961 52.8322 13.7446 52.834 12.5ZM43.9877 40.6625C43.8349 40.8467 43.6433 40.9949 43.4266 41.0965C43.2098 41.198 42.9733 41.2505 42.734 41.25C42.0852 41.25 41.5327 40.8988 41.2577 40.3112C40.9827 39.7225 41.0665 39.0737 41.4815 38.575L47.834 30.9525V36.0475L43.9877 40.6625ZM50.334 36.5V27.5C50.334 24.0537 53.1377 21.25 56.584 21.25H61.584C65.0302 21.25 67.834 24.0537 67.834 27.5V48.75H65.334V47.5C65.3315 46.727 65.0899 45.9737 64.6423 45.3435C64.1947 44.7133 63.563 44.237 62.834 43.98V30C62.834 27.9325 61.1515 26.25 59.084 26.25C57.0165 26.25 55.334 27.9325 55.334 30V43.98C54.6049 44.237 53.9733 44.7133 53.5257 45.3435C53.0781 45.9737 52.8365 46.727 52.834 47.5V48.75H50.334V36.5ZM60.334 43.75H57.834V30C57.8484 29.6782 57.9864 29.3743 58.2192 29.1516C58.4521 28.9289 58.7618 28.8047 59.084 28.8047C59.4062 28.8047 59.7159 28.9289 59.9488 29.1516C60.1816 29.3743 60.3196 29.6782 60.334 30V43.75ZM56.584 46.25H61.584C62.2727 46.25 62.834 46.81 62.834 47.5V48.75H55.334V47.5C55.334 46.81 55.8952 46.25 56.584 46.25ZM46.584 51.25H71.584C72.2727 51.25 72.834 51.81 72.834 52.5V55H45.334V52.5C45.334 51.81 45.8952 51.25 46.584 51.25ZM72.834 57.5V61.25H45.334V57.5H72.834ZM45.334 66.25V63.75H72.834V66.25C72.834 66.94 72.2727 67.5 71.584 67.5H46.584C45.8952 67.5 45.334 66.94 45.334 66.25ZM52.4065 71.8087C52.3034 72.0169 52.1441 72.192 51.9466 72.3142C51.7491 72.4364 51.5212 72.5007 51.289 72.5H49.379C49.1655 72.5014 48.9552 72.4475 48.7688 72.3434C48.5824 72.2393 48.4261 72.0887 48.3152 71.9062C48.2015 71.7256 48.1368 71.5185 48.1273 71.3052C48.1179 71.092 48.1641 70.88 48.2615 70.69L48.6065 70H53.3115L52.4065 71.8087ZM71.1027 71.9062C70.9919 72.0887 70.8356 72.2393 70.6492 72.3434C70.4627 72.4475 70.2525 72.5014 70.039 72.5H68.129C67.8967 72.5007 67.6689 72.4364 67.4714 72.3142C67.2738 72.192 67.1145 72.0169 67.0115 71.8087L66.1065 70H70.8115L71.1565 70.6913C71.4377 71.2538 71.2127 71.7288 71.1027 71.9062ZM47.4115 14.6875C47.5444 14.5701 47.6508 14.4258 47.7236 14.2642C47.7964 14.1026 47.8341 13.9273 47.834 13.75V5C47.8339 4.82279 47.7962 4.64762 47.7233 4.4861C47.6504 4.32458 47.544 4.18041 47.4111 4.06315C47.2783 3.94589 47.122 3.85822 46.9527 3.80596C46.7833 3.75369 46.6048 3.73803 46.429 3.76L37.834 4.83375V1.25C37.8335 1.01805 37.7686 0.790798 37.6465 0.593613C37.5243 0.396428 37.3498 0.237073 37.1423 0.133343C36.9349 0.0296127 36.7026 -0.0144103 36.4716 0.00618964C36.2406 0.0267896 36.0198 0.111201 35.834 0.25L25.834 7.75C25.6854 7.86189 25.5635 8.00548 25.4773 8.17034C25.3911 8.3352 25.3428 8.51719 25.3357 8.70309C25.3286 8.88899 25.3631 9.07413 25.4365 9.24506C25.5099 9.41599 25.6205 9.56841 25.7602 9.69125L35.7602 18.4412C35.9414 18.5988 36.1639 18.7011 36.4015 18.7359C36.639 18.7707 36.8815 18.7365 37.1002 18.6375C37.3191 18.5387 37.5048 18.3789 37.635 18.1771C37.7652 17.9753 37.8343 17.7401 37.834 17.5V13.9163L46.429 14.99C46.7865 15.0337 47.1427 14.9237 47.4115 14.6875ZM45.334 12.3337L36.739 11.26C36.5632 11.2394 36.385 11.2556 36.2159 11.3077C36.0467 11.3598 35.8902 11.4466 35.7565 11.5625C35.6236 11.6799 35.5172 11.8242 35.4444 11.9858C35.3715 12.1474 35.3339 12.3227 35.334 12.5V14.745L28.5677 8.825L35.334 3.75V6.25C35.334 6.42721 35.3718 6.60238 35.4447 6.7639C35.5176 6.92542 35.624 7.06959 35.7568 7.18685C35.8897 7.30411 36.046 7.39178 36.2153 7.44404C36.3846 7.49631 36.5631 7.51197 36.739 7.49L45.334 6.41625V12.3337Z" fill="#333333"/>
</svg>
