<svg width="81" height="81" viewBox="0 0 81 81" fill="none" xmlns="http://www.w3.org/2000/svg">
<path d="M65.5 55.5C67.5675 55.5 69.25 53.8175 69.25 51.75V39.25C69.25 37.1825 67.5675 35.5 65.5 35.5C63.4325 35.5 61.75 37.1825 61.75 39.25V51.75C61.75 53.8175 63.4325 55.5 65.5 55.5ZM64.25 39.25C64.2644 38.9282 64.4024 38.6243 64.6352 38.4016C64.8681 38.1789 65.1778 38.0547 65.5 38.0547C65.8222 38.0547 66.1319 38.1789 66.3648 38.4016C66.5976 38.6243 66.7356 38.9282 66.75 39.25V51.75C66.7356 52.0718 66.5976 52.3757 66.3648 52.5984C66.1319 52.8211 65.8222 52.9453 65.5 52.9453C65.1778 52.9453 64.8681 52.8211 64.6352 52.5984C64.4024 52.3757 64.2644 52.0718 64.25 51.75V39.25Z" fill="#333333"/>
<path d="M75.5 60.405V38C75.5 34.5387 73.475 31.55 70.5525 30.1313C71.6941 29.3248 72.6256 28.2563 73.2689 27.0155C73.9123 25.7747 74.2487 24.3977 74.25 23C74.25 18.1763 70.325 14.25 65.5 14.25C60.675 14.25 56.75 18.1763 56.75 23C56.7513 24.3977 57.0877 25.7747 57.7311 27.0155C58.3744 28.2563 59.306 29.3248 60.4475 30.1313C58.7377 30.9611 57.3427 32.3223 56.4713 34.0112L43.8825 46.5988C43.2096 47.2764 42.8208 48.1854 42.7957 49.1401C42.7707 50.0947 43.1111 51.023 43.7475 51.735L40.5 54.9825L34.25 48.7325V35.5H36.75C37.0815 35.5 37.3995 35.3683 37.6339 35.1339C37.8683 34.8995 38 34.5815 38 34.25V28C38 27.6685 37.8683 27.3505 37.6339 27.1161C37.3995 26.8817 37.0815 26.75 36.75 26.75H33V21.75C33 17.8 29.9288 14.5613 26.0488 14.2775C27.3037 12.9038 27.9996 11.1106 28 9.25C28 5.11375 24.6363 1.75 20.5 1.75C16.3638 1.75 13 5.11375 13 9.25C13 11.185 13.7425 12.9462 14.9513 14.2775C11.0713 14.5613 8 17.8 8 21.75V26.75H3V29.25H35.5V33H33C32.6685 33 32.3505 33.1317 32.1161 33.3661C31.8817 33.6005 31.75 33.9185 31.75 34.25V48.7325L18.7325 61.75H3V64.25H16.2325L14.6163 65.8662C14.5001 65.9822 14.4079 66.12 14.345 66.2716C14.2821 66.4233 14.2497 66.5858 14.2497 66.75C14.2497 66.9142 14.2821 67.0767 14.345 67.2284C14.4079 67.38 14.5001 67.5178 14.6163 67.6338L23 76.0175V78H25.5V76.0175L42.6338 58.8838C42.7499 58.7678 42.8421 58.63 42.905 58.4784C42.9679 58.3267 43.0003 58.1642 43.0003 58C43.0003 57.8358 42.9679 57.6733 42.905 57.5216C42.8421 57.37 42.7499 57.2322 42.6338 57.1162L42.2675 56.75L45.9063 53.1113C46.18 53.1738 46.4613 53.215 46.7488 53.215C47.75 53.215 48.6925 52.825 49.4 52.1162L55.5 46.0175V63.8712L49.49 72.8863C49.1607 73.3822 48.9721 73.9581 48.9441 74.5527C48.9161 75.1473 49.0498 75.7384 49.3311 76.2631C49.6123 76.7877 50.0305 77.2263 50.5412 77.5322C51.0519 77.838 51.636 77.9997 52.2313 78H54.41C55.5113 78 56.5338 77.4525 57.145 76.5362L64.04 66.1937C64.1763 65.9887 64.25 65.7463 64.25 65.5V61.75H66.9275L68.8613 74.3225C69.0148 75.3484 69.5326 76.2847 70.3199 76.96C71.1073 77.6353 72.1115 78.0045 73.1488 78H73.1513C73.7768 78.0004 74.3951 77.8653 74.9634 77.604C75.5318 77.3427 76.0368 76.9614 76.4438 76.4863C77.2688 75.5238 77.6313 74.255 77.4375 73.0025L75.5 60.405ZM20.5 4.25C23.2575 4.25 25.5 6.4925 25.5 9.25C25.5 12.0075 23.2575 14.25 20.5 14.25C17.7425 14.25 15.5 12.0075 15.5 9.25C15.5 6.4925 17.7425 4.25 20.5 4.25ZM26.75 26.75V21.75H24.25V26.75H16.75V21.75H14.25V26.75H10.5V21.75C10.5 18.9925 12.7425 16.75 15.5 16.75H25.5C28.2575 16.75 30.5 18.9925 30.5 21.75V26.75H26.75ZM24.25 73.7325L17.2675 66.75L20.1338 63.8838L33 51.0175L39.9825 58L24.25 73.7325ZM59.25 23C59.25 19.5537 62.0538 16.75 65.5 16.75C68.9463 16.75 71.75 19.5537 71.75 23C71.7518 24.2446 71.3794 25.461 70.6813 26.4912C70.254 26.2927 69.8924 25.9763 69.6389 25.5793C69.3853 25.1823 69.2504 24.7211 69.25 24.25H66.75C66.75 25.9 67.5588 27.3637 68.82 28.275C67.8283 28.9085 66.6768 29.2467 65.5 29.25C62.0538 29.25 59.25 26.4463 59.25 23ZM64.25 31.75H66.75C70.1963 31.75 73 34.5537 73 38V59.25H58V38C58 37.61 58.0463 37.2313 58.115 36.8613C58.1263 36.8013 58.1325 36.7412 58.1463 36.6825C58.2163 36.3563 58.32 36.0438 58.44 35.7388C58.4813 35.635 58.5225 35.5312 58.5688 35.4287C59.5525 33.265 61.7225 31.75 64.25 31.75ZM47.6338 50.3488C47.3961 50.5769 47.0794 50.7042 46.75 50.7042C46.4206 50.7042 46.1039 50.5769 45.8663 50.3488L45.6525 50.1338C45.4182 49.8993 45.2865 49.5815 45.2865 49.25C45.2865 48.9185 45.4182 48.6007 45.6525 48.3662L55.5 38.5188V42.4825L47.6338 50.3488ZM61.75 65.1212L55.065 75.1488C54.9934 75.2572 54.8959 75.3461 54.7813 75.4074C54.6667 75.4687 54.5387 75.5005 54.4088 75.5H52.23C52.1058 75.5003 51.9833 75.4711 51.8725 75.415C51.7724 75.3653 51.684 75.2948 51.6133 75.2082C51.5426 75.1217 51.4913 75.021 51.4626 74.9129C51.434 74.8049 51.4287 74.692 51.4473 74.5817C51.4658 74.4715 51.5076 74.3665 51.57 74.2738L57.79 64.9437C57.9263 64.7388 58 64.4963 58 64.25V61.75H61.75V65.1212ZM74.5463 74.8575C74.1963 75.265 73.6863 75.5 73.1488 75.5C72.7092 75.5021 72.2835 75.3456 71.95 75.0593C71.6164 74.773 71.3971 74.3761 71.3325 73.9412L69.4575 61.75H73.1788L74.9688 73.3838C75.0488 73.9125 74.895 74.4512 74.5463 74.8575Z" fill="#333333"/>
<path d="M43.7338 21.6363C43.9525 21.7353 44.195 21.7694 44.4325 21.7346C44.6701 21.6998 44.8926 21.5976 45.0738 21.44L55.0737 12.69C55.3563 12.4413 55.5138 12.0788 55.5 11.7013C55.4926 11.5153 55.4438 11.3334 55.3573 11.1687C55.2709 11.0039 55.1488 10.8605 55 10.7488L45 3.24876C44.8142 3.10996 44.5934 3.02554 44.3624 3.00495C44.1313 2.98435 43.8991 3.02837 43.6917 3.1321C43.4842 3.23583 43.3097 3.39518 43.1875 3.59237C43.0654 3.78955 43.0005 4.01681 43 4.24876V7.83251L34.405 6.75876C34.2292 6.73678 34.0507 6.75245 33.8813 6.80471C33.712 6.85698 33.5557 6.94465 33.4229 7.06191C33.29 7.17917 33.1836 7.32334 33.1107 7.48486C33.0378 7.64637 33.0001 7.82155 33 7.99876V16.7488C33.0001 16.926 33.0378 17.1011 33.1107 17.2627C33.1836 17.4242 33.29 17.5683 33.4229 17.6856C33.5557 17.8029 33.712 17.8905 33.8813 17.9428C34.0507 17.9951 34.2292 18.0107 34.405 17.9888L43 16.915V20.4988C43 20.99 43.2863 21.4338 43.7338 21.6363ZM35.5 15.3325V9.41501L44.095 10.4888C44.2708 10.5107 44.4493 10.4951 44.6187 10.4428C44.788 10.3905 44.9443 10.3029 45.0771 10.1856C45.21 10.0683 45.3164 9.92417 45.3893 9.76265C45.4622 9.60114 45.5 9.42596 45.5 9.24876V6.74876L52.2662 11.8238L45.5 17.7438V15.4988C45.5 15.3215 45.4622 15.1464 45.3893 14.9849C45.3164 14.8233 45.21 14.6792 45.0771 14.5619C44.9443 14.4446 44.788 14.357 44.6187 14.3047C44.4493 14.2524 44.2708 14.2368 44.095 14.2588L35.5 15.3325Z" fill="#333333"/>
</svg>
