<svg width="35" height="34" viewBox="0 0 35 34" fill="none" xmlns="http://www.w3.org/2000/svg">
<path d="M17.4664 25.5017C17.3271 25.5098 17.1966 25.5723 17.1031 25.6758C17.1031 25.6758 16.6887 26.1381 16.2711 26.7203C16.0521 27.018 15.855 27.3311 15.6814 27.6574C15.5136 27.9847 15.3744 28.3067 15.3744 28.6881C15.3744 29.8547 16.3317 30.8131 17.4994 30.8131C18.6671 30.8131 19.6244 29.8547 19.6244 28.6881C19.6244 28.3067 19.4863 27.9847 19.3173 27.6574C19.1438 27.3311 18.9467 27.018 18.7276 26.7203C18.3101 26.1391 17.8957 25.6758 17.8957 25.6758C17.842 25.6163 17.7754 25.5697 17.7011 25.5395C17.6267 25.5094 17.5465 25.4964 17.4664 25.5017ZM17.4994 26.8818C17.6396 27.0518 17.6832 27.0869 17.8649 27.3408C18.054 27.6043 18.2399 27.8913 18.3706 28.1452C18.5013 28.4002 18.5619 28.6276 18.5619 28.6871C18.5619 29.28 18.0923 29.7496 17.4994 29.7496C16.9065 29.7496 16.4369 29.28 16.4369 28.6871C16.4369 28.6276 16.4974 28.4002 16.6281 28.1452C16.7588 27.8913 16.9448 27.6032 17.1339 27.3408C17.3166 27.0869 17.3591 27.0529 17.4994 26.8818ZM22.7789 21.2506C22.6392 21.2596 22.5086 21.3233 22.4156 21.4281C22.4156 21.4281 22.0012 21.8881 21.5836 22.4693C21.3645 22.7673 21.1674 23.0807 20.9939 23.4074C20.8261 23.7347 20.6869 24.0567 20.6869 24.4371C20.6869 25.6048 21.6442 26.5621 22.8119 26.5621C23.9796 26.5621 24.9369 25.6048 24.9369 24.4371C24.9369 24.0567 24.7988 23.7347 24.6298 23.4074C24.4563 23.0807 24.2593 22.7673 24.0401 22.4693C23.6226 21.8881 23.2082 21.4281 23.2082 21.4281C23.1547 21.3681 23.0882 21.321 23.0139 21.2904C22.9395 21.2599 22.8592 21.2456 22.7789 21.2506ZM22.8119 22.6318C22.9521 22.8018 22.9957 22.8369 23.1774 23.0898C23.3665 23.3533 23.5524 23.6423 23.6831 23.8952C23.8138 24.1502 23.8744 24.3776 23.8744 24.4371C23.8744 25.03 23.4048 25.4996 22.8119 25.4996C22.219 25.4996 21.7494 25.03 21.7494 24.4371C21.7494 24.3776 21.8099 24.1502 21.9406 23.8952C22.0713 23.6413 22.2573 23.3533 22.4464 23.0898C22.6291 22.8369 22.6716 22.8029 22.8119 22.6318ZM12.1539 21.2506C12.0142 21.2596 11.8836 21.3233 11.7906 21.4281C11.7906 21.4281 11.3762 21.8881 10.9586 22.4693C10.7395 22.7673 10.5424 23.0807 10.3689 23.4074C10.2011 23.7347 10.0619 24.0567 10.0619 24.4371C10.0619 25.6048 11.0192 26.5621 12.1869 26.5621C13.3546 26.5621 14.3119 25.6048 14.3119 24.4371C14.3119 24.0567 14.1738 23.7347 14.0048 23.4074C13.8313 23.0807 13.6343 22.7673 13.4151 22.4693C12.9976 21.8881 12.5832 21.4281 12.5832 21.4281C12.5297 21.3681 12.4632 21.321 12.3889 21.2904C12.3145 21.2599 12.2342 21.2456 12.1539 21.2506ZM12.1869 22.6318C12.3271 22.8018 12.3707 22.8369 12.5524 23.0898C12.7415 23.3533 12.9274 23.6423 13.0581 23.8952C13.1888 24.1502 13.2494 24.3776 13.2494 24.4371C13.2494 25.03 12.7798 25.4996 12.1869 25.4996C11.594 25.4996 11.1244 25.03 11.1244 24.4371C11.1244 24.3776 11.1849 24.1502 11.3156 23.8952C11.4463 23.6413 11.6323 23.3533 11.8214 23.0898C12.0041 22.8369 12.0466 22.8029 12.1869 22.6318ZM21.8291 3.27736C20.2981 3.03706 18.7304 3.28155 17.3453 3.97657C15.9602 4.6716 14.8271 5.7823 14.1047 7.15331C13.1128 6.84343 12.0539 6.81789 11.0481 7.07951C10.0424 7.34113 9.13019 7.87949 8.41501 8.63344C7.64505 9.44189 7.13518 10.4626 6.95127 11.5637C6.76736 12.6649 6.91786 13.796 7.38332 14.8108C7.84998 15.8248 8.60997 16.6756 9.56513 17.2533C10.5203 17.831 11.6267 18.109 12.7415 18.0515L20.689 18.0621H20.6911C22.5637 18.06 24.3665 17.352 25.7402 16.0794C27.1138 14.8068 27.9572 13.0631 28.1021 11.1962C28.2442 9.32918 27.6775 7.47718 26.5148 6.00949C25.3522 4.54179 23.6791 3.56625 21.8291 3.27736ZM21.6644 4.32715C23.2511 4.57227 24.6867 5.40771 25.6837 6.66628C26.6806 7.92486 27.1653 9.5136 27.0406 11.1143C26.9195 12.7153 26.198 14.2114 25.0205 15.303C23.8431 16.3945 22.2967 17.0009 20.6911 17.0006L12.7149 16.99H12.6852C11.7825 17.037 10.8865 16.8118 10.1132 16.3437C9.3399 15.8756 8.72498 15.1861 8.34807 14.3645C7.97027 13.5432 7.84778 12.6274 7.99649 11.7357C8.1452 10.844 8.55825 10.0176 9.18214 9.36339C10.3647 8.12345 12.1635 7.68352 13.6765 8.13189C13.5882 8.39002 13.5116 8.65203 13.447 8.91709C13.3014 9.57691 14.3098 9.84145 14.4808 9.16145C14.8481 7.59824 15.7922 6.23146 17.1243 5.33466C18.4563 4.43785 20.0778 4.0772 21.6644 4.32495V4.32715Z" fill="white"/>
</svg>
