<svg width="35" height="34" viewBox="0 0 35 34" fill="none" xmlns="http://www.w3.org/2000/svg">
<path d="M22.4598 9.20833C24.0594 6.192 26.5268 3.72463 29.5431 2.125M19.6265 11.3333C19.6265 7.87667 22.1198 3.49917 25.2223 3.49917C25.6002 3.50624 25.9728 3.58884 26.3183 3.74212C26.6638 3.8954 26.9751 4.11625 27.234 4.39167C27.5094 4.6505 27.7302 4.96182 27.8835 5.30731C28.0368 5.65279 28.1194 6.02544 28.1265 6.40333C28.1265 9.54833 23.749 12.0417 20.3348 12.0417C20.2401 12.0479 20.1453 12.0339 20.0565 12.0005C19.9677 11.9671 19.8871 11.9152 19.82 11.8481C19.753 11.781 19.701 11.7004 19.6676 11.6116C19.6342 11.5229 19.6202 11.428 19.6265 11.3333Z" stroke="white" stroke-linecap="round" stroke-linejoin="round"/>
<path d="M2.625 21.9587C2.625 21.9587 6.875 16.2921 16.7917 16.2921M25.2917 14.8754C25.2917 14.8754 26 13.4587 28.8333 13.4587C29.3076 13.4226 29.7841 13.4895 30.2302 13.6547C30.6763 13.82 31.0814 14.0797 31.4177 14.416C31.7541 14.7524 32.0138 15.1574 32.179 15.6035C32.3442 16.0496 32.4111 16.5261 32.375 17.0004C32.375 18.4171 30.9583 21.9587 25.2917 21.9587C19.625 21.9587 18.2083 20.5421 14.6667 20.5421C11.125 20.5421 4.75 23.3754 2.625 27.6254" stroke="white" stroke-linecap="round" stroke-linejoin="round"/>
<path d="M8.29297 29.0391C8.29297 29.0391 9.70964 24.7891 16.793 24.7891C23.8763 24.7891 26.7096 26.9141 26.7096 29.0391C26.7471 29.4204 26.6995 29.8053 26.5703 30.1661C26.4412 30.5269 26.2337 30.8545 25.9627 31.1255C25.6918 31.3964 25.3641 31.6039 25.0033 31.7331C24.6426 31.8623 24.2577 31.9098 23.8763 31.8724C22.802 31.7237 21.8065 31.2259 21.043 30.4557" stroke="white" stroke-linecap="round" stroke-linejoin="round"/>
</svg>
