<svg width="35" height="24" viewBox="0 0 35 24" fill="none" xmlns="http://www.w3.org/2000/svg">
<path d="M9.70833 22.625C11.2731 22.625 12.5417 17.868 12.5417 12C12.5417 6.13197 11.2731 1.375 9.70833 1.375C8.14353 1.375 6.875 6.13197 6.875 12C6.875 17.868 8.14353 22.625 9.70833 22.625Z" stroke="white" stroke-linecap="round" stroke-linejoin="round"/>
<path d="M9.70703 22.625C11.832 22.625 14.6654 18.375 18.207 18.375C21.7487 18.375 22.7404 19.7917 26.707 19.7917C30.6737 19.7917 32.6429 19.0833 33.082 18.375C33.6072 17.2711 33.8506 16.0543 33.7904 14.8333C33.7904 13.6575 33.6487 12.7083 33.0679 12.7083H32.3737C24.582 12.7083 24.327 10.3283 20.332 6.33333C16.337 2.33833 13.6879 1.375 9.70703 1.375" stroke="white" stroke-linecap="round" stroke-linejoin="round"/>
<path d="M9.70703 1.375L1.20703 12.7083L11.6337 19.7917M1.20703 12.7083L6.88786 11.1217M16.762 18.6017C17.822 16.0667 18.3059 13.328 18.1787 10.5833C18.227 8.24234 17.9018 5.9086 17.2154 3.67M22.287 19.0833C23.4486 17.2988 24.0049 15.1877 23.8737 13.0625C23.8765 11.9463 23.7481 10.8337 23.4912 9.7475M28.2937 19.7492C29.0968 18.6241 29.5322 17.2781 29.5404 15.8958C29.5545 14.7481 29.3871 13.6054 29.0445 12.51" stroke="white" stroke-linecap="round" stroke-linejoin="round"/>
</svg>
