<svg width="35" height="34" viewBox="0 0 35 34" fill="none" xmlns="http://www.w3.org/2000/svg">
<g clip-path="url(#clip0_2127_36396)">
<path d="M28.4796 15.0888C28.3805 14.9966 28.2502 14.9453 28.1148 14.9453C27.9794 14.9453 27.8491 14.9966 27.75 15.0888C27.5092 15.3154 21.9062 20.6421 21.9062 23.9642C21.9062 27.3855 24.69 30.1692 28.1113 30.1692C31.5325 30.1692 34.3163 27.3855 34.3163 23.9642C34.3233 20.6421 28.7204 15.3154 28.4796 15.0888ZM28.1183 29.1138C25.285 29.1138 22.9758 26.8046 22.9758 23.9713C22.9758 21.7613 26.4042 17.915 28.1183 16.2221C29.8325 17.9221 33.2608 21.7613 33.2608 23.9713C33.2608 26.8046 30.9517 29.1138 28.1183 29.1138Z" fill="white"/>
<path d="M27.5874 27.6418C27.5874 27.9322 27.8282 28.173 28.1186 28.173C30.4916 28.173 32.4182 26.2464 32.4182 23.8734C32.4182 23.583 32.1774 23.3422 31.887 23.3422C31.5966 23.3422 31.3557 23.583 31.3557 23.8734C31.3557 25.6584 29.9036 27.1105 28.1186 27.1105C27.8211 27.1105 27.5874 27.3443 27.5874 27.6418ZM17.5007 3.68594C15.2341 3.68594 13.3924 5.5276 13.3924 7.79427C13.3924 10.0609 15.2341 11.9026 17.5007 11.9026C19.7674 11.9026 21.602 10.0609 21.602 7.79427C21.602 5.5276 19.7674 3.68594 17.5007 3.68594ZM17.5007 10.833C15.822 10.833 14.4549 9.46594 14.4549 7.78719C14.4549 6.10844 15.822 4.74135 17.5007 4.74135C19.1795 4.74135 20.5395 6.10844 20.5395 7.78719C20.5395 9.46594 19.1795 10.833 17.5007 10.833ZM16.9695 0.710938V2.55969C16.9695 2.8501 17.2103 3.09094 17.5007 3.09094C17.7911 3.09094 18.032 2.8501 18.032 2.55969V0.710938C18.032 0.420521 17.7911 0.179688 17.5007 0.179688C17.2103 0.179688 16.9695 0.420521 16.9695 0.710938ZM17.5007 12.4905C17.2103 12.4905 16.9695 12.7314 16.9695 13.0218V14.8776C16.9695 15.168 17.2103 15.4089 17.5007 15.4089C17.7911 15.4089 18.032 15.168 18.032 14.8776V13.0289C18.032 12.7314 17.7911 12.4905 17.5007 12.4905ZM22.7353 8.32552H24.5841C24.8745 8.32552 25.1153 8.08469 25.1153 7.79427C25.1153 7.50385 24.8745 7.26302 24.5841 7.26302H22.7353C22.5944 7.26302 22.4593 7.31899 22.3597 7.41862C22.26 7.51825 22.2041 7.65337 22.2041 7.79427C22.2041 7.93517 22.26 8.07029 22.3597 8.16992C22.4593 8.26955 22.5944 8.32552 22.7353 8.32552ZM12.2661 7.26302H10.4174C10.127 7.26302 9.88614 7.50385 9.88614 7.79427C9.88614 8.08469 10.127 8.32552 10.4174 8.32552H12.2661C12.407 8.32552 12.5422 8.26955 12.6418 8.16992C12.7414 8.07029 12.7974 7.93517 12.7974 7.79427C12.7974 7.65337 12.7414 7.51825 12.6418 7.41862C12.5422 7.31899 12.407 7.26302 12.2661 7.26302ZM22.8841 2.41094C22.7841 2.31214 22.6492 2.25673 22.5086 2.25673C22.3681 2.25673 22.2332 2.31214 22.1332 2.41094L20.8228 3.72135C20.6174 3.92677 20.6174 4.26677 20.8228 4.47219C20.9291 4.57844 21.0636 4.62802 21.1982 4.62802C21.3328 4.62802 21.4674 4.57844 21.5736 4.47219L22.8841 3.16177C23.0895 2.95635 23.0895 2.61635 22.8841 2.41094ZM12.1174 13.1776C12.2236 13.2839 12.3582 13.3334 12.4928 13.3334C12.6274 13.3334 12.762 13.2839 12.8682 13.1776L14.1786 11.8672C14.3841 11.6618 14.3841 11.3218 14.1786 11.1164C14.0787 11.0176 13.9438 10.9621 13.8032 10.9621C13.6627 10.9621 13.5278 11.0176 13.4278 11.1164L12.1174 12.4268C11.912 12.6322 11.912 12.9651 12.1174 13.1776ZM22.5086 13.3334C22.6432 13.3334 22.7778 13.2839 22.8841 13.1776C23.0895 12.9722 23.0895 12.6322 22.8841 12.4268L21.5736 11.1164C21.3682 10.9109 21.0282 10.9109 20.8228 11.1164C20.6174 11.3218 20.6174 11.6618 20.8228 11.8672L22.1332 13.1776C22.2395 13.2768 22.3741 13.3334 22.5086 13.3334ZM13.8032 4.62094C13.9378 4.62094 14.0724 4.57135 14.1786 4.4651C14.3841 4.25969 14.3841 3.91969 14.1786 3.71427L12.8682 2.41094C12.7682 2.31214 12.6334 2.25673 12.4928 2.25673C12.3523 2.25673 12.2174 2.31214 12.1174 2.41094C11.912 2.61635 11.912 2.95635 12.1174 3.16177L13.4278 4.47219C13.527 4.57135 13.6686 4.62094 13.8032 4.62094ZM16.6436 22.8039L15.0286 22.3364L16.2541 21.6634C16.5091 21.5218 16.6011 21.1959 16.4595 20.9409C16.3178 20.6859 15.9991 20.5868 15.737 20.7355L14.5116 21.4084L14.9791 19.7934C15.0641 19.5101 14.9011 19.2197 14.6178 19.1347C14.3345 19.0568 14.0441 19.2197 13.9591 19.4959L13.1941 22.138L9.38322 24.2418V19.8855L11.3241 17.9447C11.5295 17.7393 11.5295 17.3993 11.3241 17.1939C11.1186 16.9884 10.7786 16.9884 10.5732 17.1939L9.38322 18.3839V16.9884C9.38322 16.698 9.14239 16.4572 8.85197 16.4572C8.56156 16.4572 8.32072 16.698 8.32072 16.9884V18.3839L7.13072 17.1939C6.92531 16.9884 6.58531 16.9884 6.37989 17.1939C6.17447 17.3993 6.17447 17.7393 6.37989 17.9447L8.32072 19.8855V24.2064L4.61614 21.9893L3.94322 19.3259C3.87239 19.0426 3.58197 18.8655 3.29864 18.9434C3.01531 19.0143 2.83822 19.3047 2.91614 19.588L3.32697 21.2172L2.12989 20.5018C2.06995 20.4658 2.00348 20.4419 1.9343 20.4317C1.86512 20.4215 1.7946 20.425 1.7268 20.4421C1.659 20.4592 1.59525 20.4896 1.53921 20.5314C1.48318 20.5733 1.43597 20.6258 1.40031 20.6859C1.25156 20.9409 1.32947 21.2668 1.58447 21.4155L2.78156 22.1309L1.14531 22.5418C0.861973 22.6126 0.68489 22.903 0.762807 23.1864C0.826557 23.4272 1.03906 23.5901 1.27989 23.5901C1.32239 23.5901 1.36489 23.583 1.40739 23.5759L4.07072 22.903L7.78947 25.1272L3.99989 27.2168L1.36489 26.4518C1.08156 26.3739 0.79114 26.5368 0.70614 26.813C0.62114 27.0964 0.784057 27.3868 1.06739 27.4718L2.68239 27.9393L1.45697 28.6122C1.35389 28.6699 1.2729 28.7602 1.22669 28.8689C1.18048 28.9777 1.17168 29.0987 1.20167 29.2129C1.23165 29.3272 1.29873 29.4283 1.39237 29.5003C1.48601 29.5724 1.60092 29.6113 1.71906 29.6109C1.80406 29.6109 1.89614 29.5897 1.97406 29.5472L3.19947 28.8743L2.73197 30.4893C2.70825 30.5685 2.70345 30.6521 2.71795 30.7335C2.73245 30.8149 2.76584 30.8918 2.81544 30.9579C2.86505 31.0241 2.92948 31.0776 3.00356 31.1143C3.07764 31.1511 3.1593 31.1699 3.24197 31.1693C3.47572 31.1693 3.68822 31.0205 3.75197 30.7868L4.51697 28.1518L8.32781 26.048V30.4043L6.37989 32.338C6.17447 32.5434 6.17447 32.8834 6.37989 33.0889C6.58531 33.2943 6.92531 33.2943 7.13072 33.0889L8.32072 31.8989V33.2943C8.32072 33.5847 8.56156 33.8255 8.85197 33.8255C9.14239 33.8255 9.38322 33.5847 9.38322 33.2943V31.8989L10.5732 33.0889C10.6795 33.1951 10.8141 33.2447 10.9486 33.2447C11.0832 33.2447 11.2178 33.1951 11.3241 33.0889C11.5295 32.8834 11.5295 32.5434 11.3241 32.338L9.38322 30.3972V26.0764L13.0878 28.2934L13.7607 30.9568C13.8245 31.1976 14.037 31.3605 14.2778 31.3605C14.3203 31.3605 14.3628 31.3534 14.4053 31.3464C14.6886 31.2755 14.8657 30.9851 14.7878 30.7018L14.377 29.0726L15.5741 29.788C15.6332 29.8247 15.6992 29.8491 15.768 29.8598C15.8368 29.8704 15.907 29.867 15.9745 29.8498C16.042 29.8326 16.1053 29.8019 16.1606 29.7597C16.216 29.7174 16.2622 29.6644 16.2966 29.6039C16.4453 29.3489 16.3674 29.023 16.1124 28.8743L14.9153 28.1589L16.5516 27.748C16.6794 27.7059 16.7864 27.6168 16.8511 27.4988C16.9158 27.3807 16.9332 27.2425 16.8999 27.1121C16.8667 26.9817 16.7851 26.8688 16.6718 26.7962C16.5585 26.7236 16.4219 26.6967 16.2895 26.7209L13.6261 27.3939L9.90739 25.1697L13.697 23.0801L16.332 23.8451C16.3816 23.8593 16.4311 23.8664 16.4807 23.8664C16.7145 23.8664 16.927 23.7176 16.9907 23.4839C17.0148 23.4165 17.0249 23.345 17.0203 23.2736C17.0157 23.2022 16.9966 23.1326 16.9641 23.0689C16.9316 23.0052 16.8864 22.9488 16.8313 22.9032C16.7762 22.8576 16.7123 22.8238 16.6436 22.8039Z" fill="white"/>
</g>
<defs>
<clipPath id="clip0_2127_36396">
<rect width="34" height="34" fill="white" transform="translate(0.5)"/>
</clipPath>
</defs>
</svg>
