<svg width="35" height="34" viewBox="0 0 35 34" fill="none" xmlns="http://www.w3.org/2000/svg">
<path d="M17.5 28.685C15.2482 28.6766 13.0911 27.7784 11.4989 26.1861C9.90663 24.5939 9.0084 22.4368 9 20.185C9 11.685 16.8466 5.66594 17.1813 5.41094C17.294 5.3264 17.4357 5.2901 17.5751 5.31003C17.7146 5.32995 17.8405 5.40447 17.925 5.51719C18.0095 5.62991 18.0458 5.77159 18.0259 5.91107C18.006 6.05055 17.9315 6.1764 17.8188 6.26094C17.7444 6.31938 10.0625 12.2163 10.0625 20.185C10.0709 22.155 10.8572 24.0419 12.2502 25.4348C13.6431 26.8278 15.53 27.6141 17.5 27.6225C17.6409 27.6225 17.776 27.6785 17.8757 27.7781C17.9753 27.8777 18.0313 28.0129 18.0313 28.1538C18.0313 28.2946 17.9753 28.4298 17.8757 28.5294C17.776 28.629 17.6409 28.685 17.5 28.685Z" fill="white"/>
<path d="M17.5 28.685C17.3591 28.685 17.224 28.629 17.1243 28.5294C17.0247 28.4298 16.9688 28.2946 16.9688 28.1538C16.9688 28.0129 17.0247 27.8777 17.1243 27.7781C17.224 27.6785 17.3591 27.6225 17.5 27.6225C19.47 27.6141 21.3569 26.8278 22.7498 25.4348C24.1428 24.0419 24.9291 22.155 24.9375 20.185C24.9375 12.2163 17.2556 6.31938 17.1813 6.26094C17.0685 6.1764 16.994 6.05055 16.9741 5.91107C16.9642 5.84201 16.9681 5.77168 16.9854 5.70409C17.0027 5.63651 17.0331 5.573 17.075 5.51719C17.1169 5.46138 17.1693 5.41436 17.2293 5.37881C17.2894 5.34327 17.3558 5.3199 17.4249 5.31003C17.5643 5.2901 17.706 5.3264 17.8187 5.41094C18.1534 5.66594 26 11.685 26 20.185C25.9916 22.4368 25.0934 24.5939 23.5011 26.1861C21.9089 27.7784 19.7518 28.6766 17.5 28.685Z" fill="white"/>
<path d="M14.7905 23.6149C14.7206 23.6153 14.6513 23.6019 14.5865 23.5754C14.5218 23.549 14.463 23.51 14.4133 23.4608C14.3635 23.4114 14.324 23.3527 14.297 23.2879C14.2701 23.2232 14.2562 23.1537 14.2562 23.0836C14.2562 23.0135 14.2701 22.944 14.297 22.8793C14.324 22.8146 14.3635 22.7558 14.4133 22.7064L19.8321 17.2877C19.9349 17.1876 20.0733 17.1326 20.2168 17.1345C20.3602 17.1365 20.497 17.1954 20.5971 17.2983C20.6971 17.4012 20.7522 17.5395 20.7502 17.683C20.7482 17.8265 20.6893 17.9633 20.5864 18.0633L15.1677 23.482C15.0641 23.5738 14.9287 23.6214 14.7905 23.6149ZM15.2049 19.9174C14.9644 19.9187 14.7261 19.8725 14.5037 19.7813C14.2812 19.6901 14.079 19.5558 13.9086 19.3861C13.5644 19.0415 13.3711 18.5743 13.3711 18.0872C13.3711 17.6001 13.5644 17.1329 13.9086 16.7883C14.2579 16.4529 14.7233 16.2656 15.2075 16.2656C15.6917 16.2656 16.1572 16.4529 16.5064 16.7883C16.7624 17.0457 16.9365 17.373 17.0066 17.7292C17.0768 18.0853 17.04 18.4542 16.9008 18.7895C16.7616 19.1247 16.5262 19.4112 16.2244 19.6129C15.9226 19.8145 15.5679 19.9223 15.2049 19.9227V19.9174ZM15.2049 17.3089C15.1047 17.3075 15.0052 17.326 14.9121 17.3632C14.8191 17.4004 14.7343 17.4556 14.6627 17.5258C14.5911 17.5959 14.5341 17.6795 14.4949 17.7717C14.4558 17.864 14.4353 17.9631 14.4346 18.0633C14.4374 18.2626 14.5174 18.453 14.6577 18.5945C14.8037 18.738 15.0002 18.8183 15.2049 18.8183C15.4095 18.8183 15.606 18.738 15.7521 18.5945C15.8232 18.5254 15.88 18.4428 15.9192 18.3517C15.9584 18.2605 15.9792 18.1625 15.9805 18.0633C15.9768 17.8631 15.8948 17.6724 15.7521 17.532C15.68 17.4607 15.5946 17.4042 15.5007 17.3659C15.4068 17.3276 15.3063 17.3083 15.2049 17.3089ZM19.7949 24.502C19.4319 24.5017 19.0771 24.3939 18.7753 24.1923C18.4735 23.9906 18.2382 23.7041 18.099 23.3688C17.9598 23.0336 17.9229 22.6647 17.9931 22.3085C18.0633 21.9524 18.2373 21.625 18.4933 21.3677C18.8438 21.0347 19.3088 20.8491 19.7922 20.8491C20.2757 20.8491 20.7406 21.0347 21.0911 21.3677C21.4353 21.7123 21.6287 22.1795 21.6287 22.6666C21.6287 23.1537 21.4353 23.6208 21.0911 23.9655C20.9216 24.1366 20.7196 24.2722 20.497 24.3643C20.2745 24.4565 20.0358 24.5033 19.7949 24.502ZM19.7949 21.8936C19.5896 21.895 19.3931 21.9772 19.248 22.1223C19.1028 22.2675 19.0206 22.464 19.0192 22.6692C19.023 22.8694 19.105 23.0601 19.2477 23.2005C19.395 23.3414 19.591 23.4201 19.7949 23.4201C19.9987 23.4201 20.1947 23.3414 20.3421 23.2005C20.4814 23.0583 20.5612 22.8683 20.5652 22.6692C20.5623 22.47 20.4824 22.2795 20.3421 22.138C20.272 22.0625 20.1874 22.002 20.0934 21.96C19.9994 21.918 19.8978 21.8954 19.7949 21.8936Z" fill="white"/>
</svg>
