<svg width="65" height="64" viewBox="0 0 65 64" fill="none" xmlns="http://www.w3.org/2000/svg">
<path d="M47.1859 10.151C46.7143 9.57112 46.3444 8.9155 46.0919 8.212C45.6922 6.95437 44.9019 5.85691 43.8359 5.079C42.6417 4.55264 41.3115 4.41787 40.0359 4.694C39.2874 4.82825 38.5213 4.83366 37.7709 4.71C37.0912 4.44756 36.4607 4.07229 35.9059 3.6C34.9181 2.69802 33.6666 2.13714 32.3359 2C31.0053 2.13714 29.7538 2.69802 28.7659 3.6C28.2105 4.07249 27.5793 4.44777 26.8989 4.71C26.1491 4.83254 25.384 4.82713 24.6359 4.694C23.3605 4.41655 22.0298 4.55136 20.8359 5.079C19.7712 5.85747 18.982 6.95484 18.5829 8.212C18.3308 8.91513 17.9612 9.57042 17.4899 10.15C16.9101 10.6216 16.2544 10.9915 15.5509 11.244C14.2924 11.643 13.1941 12.4334 12.4159 13.5C11.8887 14.694 11.7536 16.0244 12.0299 17.3C12.1635 18.0486 12.1692 18.8145 12.0469 19.565C11.784 20.2444 11.4084 20.8746 10.9359 21.429C10.0341 22.4174 9.47329 23.6691 9.33594 25C9.47329 26.3309 10.0341 27.5826 10.9359 28.571C11.4074 29.1262 11.7817 29.7571 12.0429 30.437C12.1652 31.1875 12.1595 31.9534 12.0259 32.702C11.7483 33.9775 11.8831 35.3082 12.4109 36.502C13.1886 37.5676 14.2863 38.3569 15.5439 38.755C16.247 39.0079 16.9022 39.3778 17.4819 39.849C17.9535 40.4289 18.3234 41.0845 18.5759 41.788C18.9768 43.0462 19.7685 44.1437 20.8359 44.921C21.2983 45.1777 21.8092 45.3351 22.3359 45.383V61C22.3359 61.1666 22.3775 61.3306 22.457 61.477C22.5364 61.6235 22.6512 61.7477 22.7909 61.8385C22.9306 61.9293 23.0908 61.9838 23.2568 61.997C23.4229 62.0102 23.5897 61.9816 23.7419 61.914L32.3359 58.094L40.9299 61.914C41.0822 61.9816 41.2489 62.0102 41.415 61.997C41.5811 61.9838 41.7413 61.9293 41.881 61.8385C42.0207 61.7477 42.1354 61.6235 42.2149 61.477C42.2944 61.3306 42.336 61.1666 42.3359 61V45.383C42.8627 45.3355 43.3737 45.1781 43.8359 44.921C44.9007 44.1425 45.6898 43.0452 46.0889 41.788C46.3411 41.0849 46.7107 40.4296 47.1819 39.85C47.7618 39.3784 48.4174 39.0085 49.1209 38.756C50.3795 38.357 51.4778 37.5666 52.2559 36.5C52.7832 35.306 52.9183 33.9756 52.6419 32.7C52.5084 31.9514 52.5027 31.1855 52.6249 30.435C52.8878 29.7556 53.2634 29.1254 53.7359 28.571C54.6378 27.5826 55.1986 26.3309 55.3359 25C55.1986 23.6691 54.6378 22.4174 53.7359 21.429C53.2644 20.8738 52.8902 20.2429 52.6289 19.563C52.5067 18.8125 52.5124 18.0466 52.6459 17.298C52.9236 16.0225 52.7888 14.6918 52.2609 13.498C51.4829 12.4328 50.3853 11.6436 49.1279 11.245C48.4235 10.9925 47.7669 10.6226 47.1859 10.151ZM24.3359 45.337L24.6359 45.306C25.3845 45.1717 26.1505 45.1663 26.9009 45.29C27.0515 45.3319 27.1978 45.3878 27.3379 45.457V58.128L24.3379 59.461L24.3359 45.337ZM31.9299 56.086L29.3359 57.239V46.808C30.1874 47.5081 31.2362 47.9249 32.3359 48C33.4357 47.9249 34.4845 47.5081 35.3359 46.808V57.239L32.7419 56.086C32.6141 56.0292 32.4758 55.9999 32.3359 55.9999C32.1961 55.9999 32.0578 56.0292 31.9299 56.086ZM37.3359 58.128V45.457C37.4761 45.3878 37.6224 45.3319 37.7729 45.29C38.523 45.1663 39.2887 45.1717 40.0369 45.306L40.3369 45.337V59.461L37.3359 58.128ZM50.5259 14.5C50.8082 15.3323 50.8522 16.227 50.6529 17.083C50.4823 18.077 50.4959 19.0939 50.6929 20.083C51.0082 21.0092 51.4927 21.8688 52.1219 22.618C52.7455 23.2799 53.1668 24.1065 53.3359 25C53.1673 25.8946 52.746 26.7222 52.1219 27.385C51.493 28.1344 51.0085 28.9939 50.6929 29.92C50.4957 30.9091 50.4822 31.926 50.6529 32.92C50.852 33.7768 50.8076 34.6721 50.5249 35.505C49.94 36.1765 49.1774 36.6694 48.3249 36.927C47.3887 37.2689 46.5241 37.7816 45.7749 38.439C45.1177 39.1877 44.6053 40.052 44.2639 40.988C44.0055 41.8404 43.5124 42.6028 42.8409 43.188C42.0086 43.4701 41.114 43.5141 40.2579 43.315C39.264 43.1442 38.247 43.1578 37.2579 43.355C36.3312 43.6705 35.471 44.155 34.7209 44.784C34.0584 45.4088 33.2308 45.8307 32.3359 46C31.4417 45.8311 30.6145 45.4099 29.9519 44.786C29.2018 44.157 28.3416 43.6725 27.4149 43.357C26.9739 43.245 26.52 43.1916 26.0649 43.198C25.5142 43.2081 24.9644 43.2478 24.4179 43.317C23.5621 43.5147 22.6682 43.4707 21.8359 43.19C21.1651 42.6044 20.6724 41.8421 20.4139 40.99C20.0721 40.0538 19.5594 39.1891 18.9019 38.44C18.1532 37.7827 17.2889 37.2704 16.3529 36.929C15.5005 36.6707 14.738 36.1776 14.1529 35.506C13.8707 34.6737 13.8267 33.779 14.0259 32.923C14.1966 31.929 14.183 30.9121 13.9859 29.923C13.6707 28.9968 13.1861 28.1372 12.5569 27.388C11.9298 26.7253 11.506 25.8965 11.3359 25C11.5046 24.1054 11.9258 23.2778 12.5499 22.615C13.1788 21.8656 13.6634 21.0061 13.9789 20.08C14.1762 19.0909 14.1897 18.074 14.0189 17.08C13.8199 16.2232 13.8642 15.3279 14.1469 14.495C14.7319 13.8235 15.4944 13.3306 16.3469 13.073C17.2832 12.7311 18.1478 12.2184 18.8969 11.561C19.5542 10.8123 20.0666 9.94795 20.4079 9.012C20.6674 8.15832 21.1623 7.39511 21.8359 6.81C22.6683 6.52786 23.5629 6.48387 24.4189 6.683C25.4129 6.85428 26.4299 6.84072 27.4189 6.643C28.3456 6.32751 29.2058 5.84299 29.9559 5.214C30.6174 4.59079 31.4431 4.16958 32.3359 4C33.2302 4.16886 34.0574 4.59012 34.7199 5.214C35.47 5.84299 36.3302 6.32751 37.2569 6.643C38.246 6.84072 39.263 6.85428 40.2569 6.683C41.1117 6.48533 42.0047 6.5293 42.8359 6.81C43.5075 7.39695 44.0003 8.16109 44.2579 9.015C44.5998 9.95123 45.1125 10.8159 45.7699 11.565C46.5186 12.2223 47.383 12.7346 48.3189 13.076C49.1739 13.3336 49.9388 13.8272 50.5259 14.5Z" fill="white"/>
<path d="M32.3359 8C28.9737 8 25.6869 8.99703 22.8913 10.865C20.0956 12.733 17.9167 15.388 16.63 18.4944C15.3433 21.6007 15.0066 25.0189 15.6626 28.3165C16.3185 31.6142 17.9376 34.6433 20.3151 37.0208C22.6926 39.3983 25.7217 41.0174 29.0194 41.6734C32.3171 42.3293 35.7352 41.9926 38.8416 40.706C41.9479 39.4193 44.6029 37.2403 46.4709 34.4447C48.3389 31.6491 49.3359 28.3623 49.3359 25C49.3309 20.4929 47.5382 16.1718 44.3512 12.9847C41.1642 9.79771 36.8431 8.00503 32.3359 8ZM32.3359 40C29.3692 40 26.4691 39.1203 24.0024 37.472C21.5357 35.8238 19.6131 33.4811 18.4778 30.7403C17.3424 27.9994 17.0454 24.9834 17.6242 22.0736C18.2029 19.1639 19.6316 16.4912 21.7293 14.3934C23.8271 12.2956 26.4999 10.867 29.4096 10.2882C32.3193 9.70944 35.3353 10.0065 38.0762 11.1418C40.8171 12.2771 43.1598 14.1997 44.808 16.6664C46.4562 19.1332 47.3359 22.0333 47.3359 25C47.3314 28.9769 45.7496 32.7896 42.9376 35.6016C40.1255 38.4137 36.3128 39.9955 32.3359 40Z" fill="white"/>
<path d="M41.3359 18H38.3359C38.3343 16.6744 37.8071 15.4036 36.8697 14.4662C35.9324 13.5289 34.6615 13.0016 33.3359 13C33.0707 13 32.8164 13.1054 32.6288 13.2929C32.4413 13.4804 32.3359 13.7348 32.3359 14V18H23.3359C23.0707 18 22.8164 18.1054 22.6288 18.2929C22.4413 18.4804 22.3359 18.7348 22.3359 19V32C22.3359 32.2652 22.4413 32.5196 22.6288 32.7071C22.8164 32.8946 23.0707 33 23.3359 33H39.3359C39.5005 33 39.6626 32.9594 39.8077 32.8818C39.9529 32.8042 40.0766 32.6919 40.1679 32.555L42.1679 29.555C42.2772 29.3905 42.3356 29.1975 42.3359 29V19C42.3359 18.7348 42.2306 18.4804 42.043 18.2929C41.8555 18.1054 41.6012 18 41.3359 18ZM24.3359 20H30.3359V31H24.3359V20ZM40.3359 28.7L38.8009 31H32.3359V20H33.3359C33.6012 20 33.8555 19.8946 34.043 19.7071C34.2306 19.5196 34.3359 19.2652 34.3359 19V15.171C34.9204 15.3786 35.4264 15.7619 35.7845 16.2684C36.1426 16.7749 36.3352 17.3797 36.3359 18V19C36.3359 19.2652 36.4413 19.5196 36.6288 19.7071C36.8164 19.8946 37.0707 20 37.3359 20H40.3359V28.7Z" fill="white"/>
<path d="M27.3359 26C27.0707 26 26.8164 26.1054 26.6288 26.2929C26.4413 26.4804 26.3359 26.7348 26.3359 27V29C26.3359 29.2652 26.4413 29.5196 26.6288 29.7071C26.8164 29.8946 27.0707 30 27.3359 30C27.6012 30 27.8555 29.8946 28.043 29.7071C28.2306 29.5196 28.3359 29.2652 28.3359 29V27C28.3359 26.7348 28.2306 26.4804 28.043 26.2929C27.8555 26.1054 27.6012 26 27.3359 26Z" fill="white"/>
</svg>
