<svg width="80" height="61" viewBox="0 0 80 61" fill="none" xmlns="http://www.w3.org/2000/svg">
<path d="M78.8281 58.1406H70.7188C70.8594 57.6719 70.8906 57.1719 70.8125 56.6875L70.0156 51.8906C72.1406 50.7188 73.7188 48.6875 74.2812 46.1719L76.125 37.8438C76.7188 35.1875 75.0312 32.5469 72.375 31.9688C71.4375 31.7656 70.5 31.8438 69.6562 32.1406L68.1094 22.0625C67.6406 19.0312 65.0781 16.8281 62 16.8281H40.5469C37.4688 16.8281 34.9062 19.0312 34.4375 22.0625L32.8906 32.1406C32.0469 31.8438 31.1094 31.7656 30.1719 31.9688C27.5156 32.5625 25.8438 35.2031 26.4219 37.8438L28.2656 46.1719C28.8281 48.6875 30.4062 50.7344 32.5312 51.8906L31.7344 56.6875C31.6562 57.1719 31.6875 57.6719 31.8281 58.1406H19.625L18.8281 54.9688C18.5625 53.8906 17.5938 53.125 16.4688 53.125H14.875V15.3906H21.2188C21.5938 15.3906 21.9375 15.2188 22.1562 14.9219C22.375 14.625 22.4375 14.2344 22.3438 13.8906L18.5938 1.35938C18.4375 0.859375 17.9844 0.53125 17.4688 0.53125H9.9375C9.42188 0.53125 8.96875 0.875 8.8125 1.35938L5.0625 13.8906C4.95313 14.25 5.03125 14.625 5.25 14.9219C5.46875 15.2188 5.8125 15.3906 6.1875 15.3906H12.5312V53.125H10.9219C9.8125 53.125 8.84375 53.875 8.5625 54.9688L7.76562 58.1406H1.17188C0.53125 58.1406 0 58.6719 0 59.3125C0 59.9531 0.53125 60.4844 1.17188 60.4844H78.8281C79.4688 60.4844 80 59.9531 80 59.3125C80 58.6563 79.4688 58.1406 78.8281 58.1406ZM7.75 13.0469L10.7969 2.85938H16.5625L19.6094 13.0469H7.75ZM10.1875 58.1406L10.8438 55.5312C10.8594 55.5 10.8906 55.4687 10.9219 55.4687H16.4844C16.5156 55.4687 16.5469 55.5 16.5625 55.5312L17.2188 58.1406H10.1875ZM36.75 22.4062C37.0469 20.5156 38.6406 19.1562 40.5469 19.1562H62.0156C63.9219 19.1562 65.5156 20.5312 65.8125 22.4062L67.5312 33.625C67.0469 34.2031 66.6875 34.9062 66.5156 35.7031L65.5938 39.8281C65.0625 39.5313 64.4531 39.3594 63.8125 39.3594H38.75C38.1094 39.3594 37.5 39.5313 36.9688 39.8281L36.0469 35.7031C35.875 34.9062 35.5156 34.2031 35.0312 33.625L36.75 22.4062ZM62.5781 44.3594H61.2969H38.75C38.0156 44.3594 37.4219 43.7656 37.4219 43.0312C37.4219 42.2969 38.0156 41.7031 38.75 41.7031H63.7969C64.5312 41.7031 65.125 42.2969 65.125 43.0312C65.125 43.7656 64.5312 44.3594 63.7969 44.3594H62.5781ZM30.5625 45.6562L28.7188 37.3281C28.4062 35.9375 29.2969 34.5469 30.6719 34.25C32.0625 33.9375 33.4531 34.8281 33.7656 36.2188L35.1406 42.3906C35.1094 42.5938 35.0781 42.8125 35.0781 43.0469C35.0781 45.0781 36.7344 46.7187 38.75 46.7187H61.2969H62.5781H63.7969C65.8281 46.7187 67.4688 45.0625 67.4688 43.0469C67.4688 42.8281 67.4531 42.6094 67.4062 42.3906L68.7812 36.2188C69.0938 34.8281 70.4688 33.9531 71.8594 34.25C73.25 34.5625 74.125 35.9375 73.8281 37.3281L71.9844 45.6562C71.3281 48.5781 68.7812 50.625 65.7969 50.625H36.75C33.75 50.625 31.2031 48.5781 30.5625 45.6562ZM35.7656 57.625C35.6094 57.9375 35.2969 58.125 34.9375 58.125C34.5625 58.125 34.3438 57.9219 34.2344 57.7969C34.125 57.6719 33.9688 57.4219 34.0312 57.0469L34.75 52.7188C35.3906 52.8594 36.0469 52.9375 36.7344 52.9375H38.0938L35.7656 57.625ZM38.1406 58.1406L40.7188 52.9687H61.8125L64.3906 58.1406H38.1406ZM68.2969 57.8125C68.1875 57.9375 67.9688 58.1406 67.5938 58.1406C67.25 58.1406 66.9219 57.9531 66.7656 57.6406L64.4375 52.9687H65.7969C66.4844 52.9687 67.1406 52.8906 67.7812 52.75L68.5 57.0781C68.5625 57.4375 68.3906 57.6875 68.2969 57.8125Z" fill="#333333"/>
</svg>
