<svg width="80" height="81" viewBox="0 0 80 81" fill="none" xmlns="http://www.w3.org/2000/svg">
<path d="M43.749 26.75C44.0806 26.75 44.3985 26.6183 44.6329 26.3839C44.8673 26.1495 44.999 25.8315 44.999 25.5V8C44.999 7.66848 44.8673 7.35054 44.6329 7.11612C44.3985 6.8817 44.0806 6.75 43.749 6.75C43.4175 6.75 43.0996 6.8817 42.8652 7.11612C42.6307 7.35054 42.499 7.66848 42.499 8V25.5C42.499 25.8315 42.6307 26.1495 42.8652 26.3839C43.0996 26.6183 43.4175 26.75 43.749 26.75ZM54.999 46.75H58.4015C58.5795 46.7499 58.7554 46.7878 58.9175 46.8612C59.0796 46.9345 59.2241 47.0416 59.3415 47.1753C59.4589 47.3091 59.5464 47.4663 59.5981 47.6365C59.6499 47.8068 59.6647 47.9861 59.6415 48.1625L56.6903 70.7875C56.6151 71.354 56.6571 71.9298 56.8137 72.4794C56.9702 73.0289 57.238 73.5405 57.6004 73.9823C57.9627 74.4241 58.412 74.7868 58.9203 75.0479C59.4286 75.3089 59.9851 75.4628 60.5553 75.4999C61.1255 75.5371 61.6973 75.4567 62.2352 75.2638C62.773 75.0709 63.2656 74.7696 63.6822 74.3785C64.0988 73.9874 64.4307 73.5149 64.6572 72.9903C64.8837 72.4657 65.0001 71.9002 64.999 71.3288V6.75C64.9989 6.48645 64.9155 6.22969 64.7606 6.01641C64.6058 5.80312 64.3876 5.64423 64.137 5.56242C63.8865 5.48062 63.6165 5.4801 63.3657 5.56093C63.1148 5.64177 62.8959 5.79982 62.7403 6.0125C59.3252 10.6649 56.7257 15.864 55.0528 21.3875C52.6926 29.2833 52.2529 37.6287 53.7703 45.7287C53.8237 46.0156 53.9758 46.2748 54.2002 46.4613C54.4246 46.6478 54.7072 46.75 54.999 46.75ZM57.4453 22.1125C58.6412 18.1592 60.3397 14.3758 62.499 10.855V71.3288C62.4981 71.7719 62.3215 72.1966 62.008 72.5098C61.6945 72.8231 61.2697 72.9993 60.8265 73C60.5888 72.9998 60.3539 72.949 60.1374 72.8509C59.9209 72.7528 59.7278 72.6097 59.5709 72.4311C59.4141 72.2525 59.2971 72.0425 59.2278 71.8151C59.1585 71.5878 59.1385 71.3482 59.169 71.1125L62.1203 48.485C62.1893 47.956 62.1446 47.4185 61.9893 46.9081C61.834 46.3978 61.5716 45.9265 61.2196 45.5257C60.8676 45.1248 60.4342 44.8037 59.9482 44.5837C59.4623 44.3637 58.935 44.25 58.4015 44.25H56.049C54.8227 36.8608 55.3002 29.2891 57.4453 22.1125ZM20.5215 30.865C20.9296 31.0851 21.2655 31.4182 21.489 31.8244C21.7124 32.2305 21.814 32.6925 21.7815 33.155L20.1353 71.0788C20.1112 71.6504 20.2031 72.221 20.4052 72.7562C20.6074 73.2915 20.9158 73.7803 21.3117 74.1933C21.7077 74.6062 22.1831 74.9349 22.7094 75.1594C23.2357 75.3839 23.8019 75.4996 24.374 75.4996C24.9462 75.4996 25.5124 75.3839 26.0387 75.1594C26.565 74.9349 27.0404 74.6062 27.4363 74.1933C27.8323 73.7803 28.1407 73.2915 28.3428 72.7562C28.545 72.221 28.6368 71.6504 28.6128 71.0788L26.9665 33.155C26.9338 32.6923 27.0353 32.2301 27.2588 31.8236C27.4823 31.4172 27.8183 31.0839 28.2265 30.8638C29.9691 29.9341 31.4127 28.5298 32.3901 26.8136C33.3675 25.0973 33.8386 23.1393 33.749 21.1663C33.749 15.0038 29.724 5.5 24.374 5.5C19.024 5.5 14.999 15.0038 14.999 21.1663C14.9095 23.1393 15.3806 25.0973 16.358 26.8136C17.3354 28.5298 18.779 29.9341 20.5215 30.8638V30.865ZM24.374 8C27.694 8 31.249 15.7275 31.249 21.1663C31.3349 22.6684 30.9948 24.1642 30.2679 25.4816C29.541 26.7989 28.4569 27.8842 27.1403 28.6125C26.2891 29.0415 25.5824 29.7106 25.1076 30.5371C24.6328 31.3636 24.4108 32.3111 24.469 33.2625L26.1153 71.1875C26.1262 71.4218 26.0891 71.6558 26.0064 71.8753C25.9236 72.0947 25.7969 72.295 25.634 72.4637C25.299 72.7963 24.8461 72.9828 24.374 72.9828C23.902 72.9828 23.4491 72.7963 23.114 72.4637C22.9512 72.295 22.8245 72.0947 22.7417 71.8753C22.659 71.6558 22.6219 71.4218 22.6328 71.1875L24.279 33.2625C24.3373 32.3111 24.1152 31.3636 23.6405 30.5371C23.1657 29.7106 22.459 29.0415 21.6078 28.6125C20.2912 27.8842 19.2071 26.7989 18.4802 25.4816C17.7533 24.1642 17.4132 22.6684 17.499 21.1663C17.499 15.7288 21.054 8 24.374 8Z" fill="#333333"/>
<path d="M41.2675 31.7625L39.5125 71.125V71.2625C39.5204 71.8222 39.639 72.3747 39.8616 72.8883C40.0842 73.4018 40.4063 73.8662 40.8092 74.2546C41.2122 74.6431 41.6882 74.9478 42.2096 75.1513C42.731 75.3549 43.2875 75.4531 43.8471 75.4404C44.4067 75.4277 44.9582 75.3043 45.4698 75.0773C45.9814 74.8503 46.443 74.5243 46.8279 74.1179C47.2129 73.7116 47.5135 73.2331 47.7126 72.7099C47.9116 72.1868 48.005 71.6294 47.9875 71.07L46.25 31.75C47.5756 31.7483 48.8464 31.221 49.7837 30.2837C50.721 29.3464 51.2483 28.0756 51.25 26.75V6.75C51.25 6.41848 51.1183 6.10054 50.8839 5.86612C50.6495 5.6317 50.3315 5.5 50 5.5C49.6685 5.5 49.3505 5.6317 49.1161 5.86612C48.8817 6.10054 48.75 6.41848 48.75 6.75V26.75C48.749 27.4136 48.4846 28.0497 48.0149 28.5184C47.5452 28.9872 46.9086 29.2503 46.245 29.25C45.629 29.2502 45.0345 29.4767 44.5745 29.8864C44.1145 30.2961 43.8211 30.8606 43.75 31.4725C43.6788 30.8597 43.3847 30.2946 42.9236 29.8847C42.4626 29.4749 41.8669 29.2489 41.25 29.25C40.5872 29.2493 39.9517 28.9857 39.483 28.517C39.0143 28.0483 38.7507 27.4128 38.75 26.75V6.75C38.75 6.41848 38.6183 6.10054 38.3839 5.86612C38.1495 5.6317 37.8315 5.5 37.5 5.5C37.1685 5.5 36.8505 5.6317 36.6161 5.86612C36.3817 6.10054 36.25 6.41848 36.25 6.75V26.75C36.2546 28.0788 36.7849 29.3519 37.725 30.291C38.6651 31.2302 39.9387 31.7592 41.2675 31.7625ZM43.75 32.2025L45.4887 71.18C45.4971 71.41 45.4597 71.6394 45.3787 71.8548C45.2977 72.0703 45.1747 72.2675 45.0169 72.4351C44.8591 72.6026 44.6696 72.7372 44.4594 72.8309C44.2492 72.9247 44.0225 72.9758 43.7924 72.9812C43.5623 72.9867 43.3334 72.9464 43.119 72.8627C42.9046 72.7791 42.7089 72.6536 42.5433 72.4938C42.3778 72.3339 42.2456 72.1427 42.1545 71.9314C42.0633 71.72 42.0151 71.4927 42.0125 71.2625L42.0113 71.18L43.75 32.2025Z" fill="#333333"/>
</svg>
