<svg width="64" height="64" viewBox="0 0 64 64" fill="none" xmlns="http://www.w3.org/2000/svg">
<path d="M58 8C57.2043 8 56.4413 7.68393 55.8787 7.12132C55.3161 6.55871 55 5.79565 55 5C55 4.73478 54.8946 4.48043 54.7071 4.29289C54.5196 4.10536 54.2652 4 54 4C53.7348 4 53.4804 4.10536 53.2929 4.29289C53.1054 4.48043 53 4.73478 53 5C53 5.79565 52.6839 6.55871 52.1213 7.12132C51.5587 7.68393 50.7957 8 50 8C49.7348 8 49.4804 8.10536 49.2929 8.29289C49.1054 8.48043 49 8.73478 49 9C49 9.26522 49.1054 9.51957 49.2929 9.70711C49.4804 9.89464 49.7348 10 50 10C50.7957 10 51.5587 10.3161 52.1213 10.8787C52.6839 11.4413 53 12.2044 53 13C53 13.2652 53.1054 13.5196 53.2929 13.7071C53.4804 13.8946 53.7348 14 54 14C54.2652 14 54.5196 13.8946 54.7071 13.7071C54.8946 13.5196 55 13.2652 55 13C55 12.2044 55.3161 11.4413 55.8787 10.8787C56.4413 10.3161 57.2043 10 58 10C58.2652 10 58.5196 9.89464 58.7071 9.70711C58.8946 9.51957 59 9.26522 59 9C59 8.73478 58.8946 8.48043 58.7071 8.29289C58.5196 8.10536 58.2652 8 58 8ZM54 10.031C53.7087 9.63869 53.3613 9.29131 52.969 9C53.3613 8.70869 53.7087 8.36131 54 7.969C54.2913 8.36131 54.6387 8.70869 55.031 9C54.6387 9.29131 54.2913 9.63869 54 10.031ZM56 31C55.2043 31 54.4413 30.6839 53.8787 30.1213C53.3161 29.5587 53 28.7956 53 28C53 27.7348 52.8946 27.4804 52.7071 27.2929C52.5196 27.1054 52.2652 27 52 27C51.7348 27 51.4804 27.1054 51.2929 27.2929C51.1054 27.4804 51 27.7348 51 28C51 28.7956 50.6839 29.5587 50.1213 30.1213C49.5587 30.6839 48.7957 31 48 31C47.7348 31 47.4804 31.1054 47.2929 31.2929C47.1054 31.4804 47 31.7348 47 32C47 32.2652 47.1054 32.5196 47.2929 32.7071C47.4804 32.8946 47.7348 33 48 33C48.7957 33 49.5587 33.3161 50.1213 33.8787C50.6839 34.4413 51 35.2044 51 36C51 36.2652 51.1054 36.5196 51.2929 36.7071C51.4804 36.8946 51.7348 37 52 37C52.2652 37 52.5196 36.8946 52.7071 36.7071C52.8946 36.5196 53 36.2652 53 36C53 35.2044 53.3161 34.4413 53.8787 33.8787C54.4413 33.3161 55.2043 33 56 33C56.2652 33 56.5196 32.8946 56.7071 32.7071C56.8946 32.5196 57 32.2652 57 32C57 31.7348 56.8946 31.4804 56.7071 31.2929C56.5196 31.1054 56.2652 31 56 31ZM52 33.031C51.7087 32.6387 51.3613 32.2913 50.969 32C51.3613 31.7087 51.7087 31.3613 52 30.969C52.2913 31.3613 52.6387 31.7087 53.031 32C52.6387 32.2913 52.2913 32.6387 52 33.031ZM17 22C17 21.7348 16.8946 21.4804 16.7071 21.2929C16.5196 21.1054 16.2652 21 16 21C14.9391 21 13.9217 20.5786 13.1716 19.8284C12.4214 19.0783 12 18.0609 12 17C12 16.7348 11.8946 16.4804 11.7071 16.2929C11.5196 16.1054 11.2652 16 11 16C10.7348 16 10.4804 16.1054 10.2929 16.2929C10.1054 16.4804 10 16.7348 10 17C10 18.0609 9.57857 19.0783 8.82843 19.8284C8.07828 20.5786 7.06087 21 6 21C5.73478 21 5.48043 21.1054 5.29289 21.2929C5.10536 21.4804 5 21.7348 5 22C5 22.2652 5.10536 22.5196 5.29289 22.7071C5.48043 22.8946 5.73478 23 6 23C7.06087 23 8.07828 23.4214 8.82843 24.1716C9.57857 24.9217 10 25.9391 10 27C10 27.2652 10.1054 27.5196 10.2929 27.7071C10.4804 27.8946 10.7348 28 11 28C11.2652 28 11.5196 27.8946 11.7071 27.7071C11.8946 27.5196 12 27.2652 12 27C12 25.9391 12.4214 24.9217 13.1716 24.1716C13.9217 23.4214 14.9391 23 16 23C16.2652 23 16.5196 22.8946 16.7071 22.7071C16.8946 22.5196 17 22.2652 17 22ZM11 23.69C10.5548 23.0198 9.98021 22.4452 9.31 22C9.98021 21.5548 10.5548 20.9802 11 20.31C11.4452 20.9802 12.0198 21.5548 12.69 22C12.0198 22.4452 11.4452 23.0198 11 23.69Z" fill="#569AA9"/>
<path d="M49 44.0023V38.0023H37.133L37.802 32.6493L41.485 34.8593C41.6546 34.9611 41.8506 35.0104 42.0482 35.0009C42.2458 34.9913 42.4362 34.9233 42.5951 34.8056C42.7541 34.6878 42.8746 34.5255 42.9413 34.3393C43.008 34.153 43.018 33.9512 42.97 33.7593L40.107 22.3093L47.707 14.7093C47.8402 14.5754 47.9327 14.4065 47.9739 14.2222C48.0151 14.0379 48.0033 13.8456 47.9398 13.6678C47.8763 13.4899 47.7637 13.3337 47.6151 13.2171C47.4665 13.1006 47.2879 13.0285 47.1 13.0093L37.648 12.0643L32.9 2.55527C32.8076 2.40029 32.6765 2.27196 32.5197 2.18284C32.3628 2.09373 32.1854 2.04688 32.005 2.04688C31.8246 2.04688 31.6472 2.09373 31.4903 2.18284C31.3335 2.27196 31.2024 2.40029 31.11 2.55527L26.352 12.0623L16.9 13.0073C16.7121 13.0265 16.5335 13.0986 16.3849 13.2151C16.2363 13.3317 16.1237 13.4879 16.0602 13.6658C15.9967 13.8436 15.9849 14.0359 16.0261 14.2202C16.0673 14.4045 16.1598 14.5734 16.293 14.7073L23.893 22.3073L21.03 33.7603C20.982 33.9522 20.992 34.154 21.0587 34.3403C21.1254 34.5265 21.2459 34.6888 21.4049 34.8066C21.5638 34.9243 21.7542 34.9923 21.9518 35.0019C22.1494 35.0114 22.3454 34.9621 22.515 34.8603L26.198 32.6503L26.867 38.0023H15V44.0023H17V56.0023H15V62.0023H49V56.0023H47V44.0023H49ZM40.444 31.9023L37.515 30.1453L33 27.4363V19.7253L38.133 22.6583L40.444 31.9023ZM38.833 20.7553L33.633 17.7833L37.372 14.0443L44.801 14.7873L38.833 20.7553ZM32 5.23827L35.783 12.8023L32 16.5883L28.217 12.8023L32 5.23827ZM19.2 14.7873L26.629 14.0443L30.368 17.7833L25.168 20.7553L19.2 14.7873ZM25.868 22.6583L31 19.7253V27.4363L26.485 30.1453L23.556 31.9023L25.868 22.6583ZM28.074 31.5243L32 29.1683L35.927 31.5243L35.117 38.0023H28.883L28.074 31.5243ZM17 40.0023H47V42.0023H17V40.0023ZM47 60.0023H17V58.0023H47V60.0023ZM45 52.0023H40V54.0023H45V56.0023H19V54.0023H21V52.0023H19V44.0023H45V52.0023Z" fill="#569AA9"/>
<path d="M32 54C32.7911 54 33.5645 53.7654 34.2223 53.3259C34.8801 52.8864 35.3928 52.2616 35.6955 51.5307C35.9983 50.7998 36.0775 49.9956 35.9231 49.2196C35.7688 48.4437 35.3878 47.731 34.8284 47.1716C34.269 46.6122 33.5563 46.2312 32.7804 46.0769C32.0044 45.9225 31.2002 46.0017 30.4693 46.3045C29.7384 46.6072 29.1136 47.1199 28.6741 47.7777C28.2346 48.4355 28 49.2089 28 50C28 51.0609 28.4214 52.0783 29.1716 52.8284C29.9217 53.5786 30.9391 54 32 54ZM32 48C32.3956 48 32.7822 48.1173 33.1111 48.3371C33.44 48.5568 33.6964 48.8692 33.8478 49.2346C33.9991 49.6001 34.0387 50.0022 33.9616 50.3902C33.8844 50.7781 33.6939 51.1345 33.4142 51.4142C33.1345 51.6939 32.7781 51.8844 32.3902 51.9616C32.0022 52.0387 31.6001 51.9991 31.2346 51.8478C30.8692 51.6964 30.5568 51.44 30.3371 51.1111C30.1173 50.7822 30 50.3956 30 50C30 49.4696 30.2107 48.9609 30.5858 48.5858C30.9609 48.2107 31.4696 48 32 48Z" fill="#569AA9"/>
<path d="M25 52H23V54H25V52Z" fill="#569AA9"/>
</svg>
