<svg width="13" height="10" viewBox="0 0 13 10" fill="none" xmlns="http://www.w3.org/2000/svg">
<path d="M4.37386 9.79687C8.90218 9.79687 11.379 6.33401 11.379 3.33102C11.379 3.23267 11.379 3.13475 11.3718 3.03728C11.8536 2.71559 12.2695 2.31728 12.6001 1.86099C12.1508 2.04485 11.6741 2.16538 11.186 2.21853C11.7 1.93456 12.0847 1.48786 12.2684 0.961601C11.7851 1.22633 11.2564 1.41288 10.7051 1.5132C10.3339 1.14887 9.84291 0.907623 9.3082 0.826787C8.77348 0.74595 8.22481 0.830031 7.74708 1.06602C7.26936 1.30201 6.88921 1.67674 6.66547 2.13224C6.44173 2.58774 6.38687 3.0986 6.50938 3.58578C5.53055 3.54046 4.57298 3.30566 3.69883 2.89662C2.82467 2.48758 2.05348 1.91344 1.4353 1.21148C1.12046 1.71175 1.02403 2.30398 1.16565 2.86757C1.30726 3.43116 1.67627 3.92375 2.19754 4.24503C1.80571 4.23444 1.42242 4.13687 1.0801 3.9606V3.98939C1.08025 4.51406 1.27702 5.02253 1.63703 5.42855C1.99704 5.83457 2.49813 6.11315 3.0553 6.21704C2.69284 6.3083 2.31254 6.32164 1.94362 6.25603C2.10101 6.70754 2.40731 7.10236 2.81972 7.38531C3.23212 7.66826 3.73001 7.8252 4.24378 7.83417C3.73332 8.20452 3.14876 8.47834 2.52354 8.63996C1.89831 8.80159 1.24471 8.84784 0.600098 8.77609C1.72601 9.44298 3.03606 9.79672 4.37386 9.7951" fill="white"/>
</svg>
