<svg width="37" height="28" viewBox="0 0 37 28" fill="none" xmlns="http://www.w3.org/2000/svg">
<path d="M3.28962 2.45765C4.12362 2.33566 5.07241 2.36616 5.20248 2.36616C5.37081 2.36616 5.93702 2.34329 3.84817 3.60131C4.09302 4.257 4.73574 5.33204 4.774 5.65988C4.86582 6.33083 4.16188 5.70563 2.79992 4.72209C2.19546 5.4769 1.49152 6.42232 1.33084 6.43757C1.086 6.46806 1.26198 5.14905 1.66751 4.05114C1.30789 3.90628 0.894709 3.73855 0.565696 3.54794C-0.268313 3.08285 -0.428993 2.71688 1.80523 2.71688C2.04243 2.06119 2.22606 0.97853 2.47856 0.917535C2.72341 0.864164 2.95295 1.42837 3.28196 2.45003L3.28962 2.45765Z" fill="#CCADB9"/>
<path d="M34.3857 18.2543C35.0972 18.3305 35.87 18.544 35.9695 18.5745C36.1149 18.605 36.574 18.7041 34.6075 19.3141C34.6764 19.9012 34.9748 20.9076 34.9442 21.1821C34.883 21.7539 34.4316 21.0982 33.521 20.0155C32.8707 20.5111 32.1055 21.1439 31.9678 21.1287C31.7612 21.1058 32.1744 20.0613 32.7329 19.2455C32.4651 19.0472 32.1667 18.8338 31.9372 18.6127C31.348 18.0637 31.2868 17.7282 33.1232 18.1781C33.4445 17.6901 33.8194 16.8362 34.0413 16.8438C34.2556 16.8438 34.3321 17.3546 34.3933 18.2543H34.3857Z" fill="#8B9CC4"/>
<path d="M31.7075 7.20279C32.1819 7.30191 32.6869 7.50776 32.7558 7.53064C32.8476 7.56114 33.1613 7.66025 31.784 7.93473C31.784 8.33882 31.9141 9.04026 31.8758 9.22325C31.7917 9.60446 31.5392 9.13175 31.0036 8.33882C30.5292 8.62092 29.963 8.99451 29.8712 8.97164C29.7334 8.94114 30.093 8.2702 30.5292 7.75937C30.3608 7.60688 30.1772 7.43915 30.0318 7.27141C29.6722 6.85207 29.6569 6.62334 30.8658 7.06555C31.1183 6.76058 31.4397 6.21162 31.5851 6.22687C31.7228 6.24212 31.7458 6.59284 31.7152 7.21042L31.7075 7.20279Z" fill="#CCADB9"/>
<path d="M3.25148 7.53587C3.47337 7.32239 4.60579 7.72648 6.08252 8.09245C8.93651 8.80151 13.0071 9.75456 16.6415 10.1282C20.6739 10.5399 24.2165 10.5246 26.8409 10.5017C27.3612 10.5017 28.463 10.4255 28.463 10.7915C28.463 11.0278 27.9886 11.1727 27.1393 11.3023C26.114 11.4548 24.9893 11.6149 24.2624 11.714C23.6579 11.7903 23.9181 11.9504 24.2241 12.0342C24.5761 12.1334 25.0734 12.2782 25.4101 12.3926C25.7391 12.4993 25.9074 12.5603 25.8998 12.7204C25.8998 12.8577 25.7391 12.9492 25.4943 13.0407C25.2724 13.1245 25.104 13.2008 25.127 13.2694C25.1423 13.3685 25.6243 13.4295 26.0834 13.5134C26.4966 13.582 26.994 13.6963 27.2158 13.7726C27.3306 13.8107 27.4071 13.8641 27.4071 13.9403C27.4071 14.0242 27.3306 14.0928 27.1087 14.1614C26.4431 14.3749 25.8003 14.474 25.808 14.6113C25.808 14.7409 26.2977 14.8095 26.9404 14.901C27.9045 15.0382 30.0775 15.3813 30.5672 15.4652C30.7814 15.5033 30.8503 15.5338 30.8426 15.6101C30.835 15.6863 30.6514 15.7244 30.4295 15.7473C29.9398 15.8007 27.5066 15.8464 26.3895 15.8007C19.5491 15.4881 10.9565 13.7268 4.29973 9.5792C3.15201 8.86251 3.38921 8.43554 3.328 8.21444C3.25913 7.93996 3.09845 7.69598 3.25148 7.5435V7.53587Z" fill="#CCADB9"/>
<path d="M29.8715 26.1038C29.5043 25.2194 28.9304 24.1901 28.2418 23.2828C27.3619 22.1239 26.6579 21.4606 25.4413 21.026C22.9011 20.1111 17.7822 20.2636 15.6781 19.89C13.5739 19.524 11.4239 18.8149 10.7658 16.7716C10.0543 14.5758 10.6664 10.9924 12.388 8.36958C14.5533 5.05299 17.2619 5.32746 23.4367 5.22072C29.619 5.11398 30.1546 1.27131 30.1546 1.27131C28.785 1.21794 24.2018 0.897713 20.5444 0.524119C16.8947 0.150526 14.8517 0.844342 13.0995 1.8965C11.3397 2.94866 8.65404 6.00603 7.69761 9.79533C5.61642 18.0373 8.96775 21.7884 13.0383 23.4734C15.9229 24.6705 20.4679 25.9666 26.0611 27.0492C27.2241 27.2704 28.0734 27.4152 28.8922 27.522C29.4201 27.5982 30.5602 27.7507 29.8792 26.0886L29.8715 26.1038Z" fill="#8B9CC4"/>
<path d="M10.6734 12.6726C10.8877 11.5671 11.2626 10.4387 11.7905 9.39412C10.4898 9.13489 9.21966 8.86041 8.06429 8.58594C7.91891 8.9824 7.78883 9.39412 7.68171 9.81346C7.55164 10.3167 7.45217 10.797 7.36035 11.2621C8.43156 11.7805 9.54102 12.2533 10.6658 12.6726H10.6734Z" fill="#938686"/>
<path d="M11.7907 9.38362C11.9667 9.0329 12.1656 8.6898 12.3799 8.36958C14.5452 5.05299 17.2539 5.32746 23.4286 5.22072C29.611 5.11398 30.1466 1.27131 30.1466 1.27131C28.777 1.21794 24.1937 0.897713 20.5363 0.524119C16.8866 0.150526 14.8436 0.844342 13.0915 1.8965C11.5229 2.8343 9.22747 5.35796 8.06445 8.57544C9.22747 8.84991 10.49 9.12439 11.7907 9.38362Z" fill="#A1BEBF"/>
</svg>
